<svg width="512" height="512" viewBox="0 0 512 512" fill="none" xmlns="http://www.w3.org/2000/svg">
<path d="M61.9382 306.619C65.4183 296.296 67.717 287.108 68.8344 279.054C69.915 271.074 71.9573 262.39 74.9613 253C81.2438 233.269 87.1784 215.433 92.765 199.491C100.348 177.912 116.86 158.914 132.906 142.551C138.089 137.261 142.495 132.201 146.121 127.369C146.587 126.76 146.864 126.025 146.918 125.255L147.44 119.462C147.477 119.037 147.405 118.609 147.231 118.22C147.058 117.83 146.789 117.49 146.449 117.233C146.108 116.975 145.709 116.808 145.286 116.746C144.864 116.685 144.433 116.731 144.033 116.881C105.66 131.157 77.6721 156.717 60.0699 193.561C54.6298 204.964 51.571 213.576 50.8932 219.396C48.4205 240.893 45.2059 255.581 47.7611 273.124C49.6477 286.119 52.1479 297.284 55.2618 306.619C55.4943 307.32 55.942 307.93 56.5412 308.362C57.1405 308.794 57.8608 309.027 58.6 309.027C59.3391 309.027 60.0594 308.794 60.6587 308.362C61.2579 307.93 61.7056 307.32 61.9382 306.619Z" fill="black" stroke="#686566" stroke-width="2.60702"/>
<path d="M398.907 46.0216C358.493 56.2241 318.108 66.5857 277.706 76.8542C275.143 77.5664 274.827 81.2277 277.006 82.601C285.357 90.9611 293.708 99.3213 302.058 107.681C299.155 109.904 296.475 112.549 293.435 114.513C290.69 113.162 288.249 111.073 285.559 109.544C261.129 94.1212 232.829 84.6785 203.916 83.259C182.404 82.1553 160.572 84.5912 140.178 91.6942C121.908 97.8556 104.656 107.029 89.4871 118.94C61.7998 140.365 40.4957 170.114 29.9814 203.556C16.3953 246.166 20.2355 294.091 40.8795 333.822C56.7541 364.679 82.1687 390.483 112.549 407.229C133.621 418.6 157.014 425.978 180.977 427.486C209.058 429.671 237.703 424.943 263.386 413.314C273.809 408.678 283.693 402.901 293.134 396.527C294.766 396.686 295.811 398.535 297.202 399.346C298.819 400.669 300.436 401.992 302.053 403.316C293.398 412.028 284.621 420.634 276.043 429.413C274.457 431.517 276.443 434.431 278.9 434.457C318.892 444.618 358.866 454.873 398.87 464.975C401.072 465.278 402.526 462.719 401.554 460.831C391.287 420.487 381.142 380.103 370.799 339.784C369.899 337.532 366.754 337.855 365.627 339.756C357.039 348.34 348.451 356.923 339.863 365.507C337.861 362.526 335.473 359.717 333.703 356.632C336.721 352.057 340.016 347.569 342.799 342.804C350.065 330.913 356.018 313.429 359.904 300.062C361.051 296.36 366.154 246.49 362.69 217.371C358.756 203.842 354.73 190.215 348.107 177.707C343.983 169.552 338.923 161.885 333.708 154.418C335.103 151.714 337.279 149.327 338.967 146.743C339.864 144.231 341.216 147.202 342.388 148.014C350.607 156.149 358.678 164.454 366.989 172.484C368.966 173.619 371.199 171.83 371.23 169.709C381.426 129.459 391.717 89.2272 401.853 48.9654C402.1 47.3335 400.532 45.799 398.907 46.0216ZM361.945 146.992C355.01 140.167 348.274 133.121 341.215 126.433C338.661 124.757 335.242 126.123 333.903 128.701C327.675 136.91 321.453 145.124 315.221 153.33C322.264 163.041 328.895 173.172 334.695 183.573C334.682 186.212 332.088 187.918 330.785 190.008C330.034 191.138 327.312 193.656 330.15 192.257C332.888 191.606 335.505 189.814 338.382 190.115C340.791 191.118 340.875 194.243 341.993 196.281C345.797 206.113 345.057 222.112 351.105 226.513C354.635 244.822 339.901 263.239 351.157 286.105C350.094 299.733 342.774 313.046 336.713 325.078C331.238 335.68 324.596 345.646 317.393 355.136C315.903 357.918 318.894 360.201 320.183 362.375C325.423 369.61 330.466 377.002 335.828 384.14C338.022 386.176 341.482 385.292 343.104 382.993L362.074 364.037C369.003 391.374 375.933 418.71 382.862 446.047C355.554 438.938 328.097 432.153 300.797 425.156C307.294 418.76 314.154 412.695 320.548 406.195C322.708 403.383 321.426 399.21 318.468 397.518C311.278 391.703 304.22 385.703 296.95 380.001C294.143 378.441 291.676 381.212 289.479 382.564C279.343 389.407 269.321 396.651 257.92 401.282C245.837 406.384 233.34 410.836 220.326 412.817C216.823 413.301 212.653 413.744 208.86 413.882C195.73 414.048 182.589 413.935 169.46 413.874C161.379 412.147 153.402 409.835 145.625 407.04C133.918 402.598 122.714 396.927 111.632 391.137C109.509 389.887 107.778 387.983 106.954 385.642C95.6957 380.502 85.6891 372.023 80.2408 360.765C79.6664 358.997 77.4714 360.834 76.1101 360.328C72.7433 359.972 71.4559 356.287 69.5222 354.015C57.9194 337.556 48.7223 319.689 41.5293 300.893C38.853 293.953 37.7302 286.577 36.9524 279.221C35.1578 266.68 33.3088 253.894 35.382 241.262C36.3724 233.353 37.054 225.369 39.295 217.683C42.0042 207.265 45.3168 197.509 49.9225 187.729C55.7871 175.071 64.276 163.831 73.1962 153.301C82.1457 142.931 91.9287 133.151 102.986 125.212C121.983 111.692 144.279 104.043 166.169 96.6232C174.026 95.5851 181.985 95.297 189.905 94.9304C195.98 94.7757 202.246 94.7394 208.398 95.2959C216.966 96.2212 225.182 98.4943 233.503 100.804C245.943 104.498 258.166 109.161 269.557 115.402C277.36 120.217 284.897 125.467 292.635 130.369C295.608 131.711 297.982 128.799 300.25 127.384C307.325 122.262 314.563 117.343 321.537 112.095C323.421 110.053 322.53 106.867 320.394 105.387L300.91 85.9165C328.208 79.0011 355.505 72.0856 382.803 65.1702C375.85 92.4441 368.898 119.718 361.945 146.992Z" fill="white"/>
<path d="M362.844 282.949C366.596 282.331 370.348 281.712 374.099 281.094C374.111 294.03 374.075 306.97 374.119 319.904C374.228 321.72 376.517 322.853 378.034 321.85C414.917 299.884 451.799 277.918 488.682 255.953C490.232 255.012 490.23 252.503 488.679 251.564C451.74 229.619 414.8 207.675 377.861 185.729C376.329 184.875 374.197 186.029 374.107 187.784C374.067 200.758 374.103 213.737 374.091 226.713L362.77 224.934C339.526 226.345 347.952 289.932 362.844 282.949ZM404.748 218.768C424.48 230.388 444.161 242.065 463.828 253.814C438.858 268.793 413.839 283.691 388.738 298.449C388.73 288.026 388.758 277.6 388.723 267.177C388.65 265.355 386.672 264.023 384.94 264.528C378.191 265.644 371.442 266.759 364.693 267.875C365.058 261.196 365.425 254.503 365.068 247.816C364.958 245.192 364.824 242.569 364.674 239.947C371.634 241.069 378.587 242.249 385.551 243.335C387.335 243.516 388.928 241.805 388.714 240.042C388.694 229.804 388.678 219.565 388.659 209.327C394.021 212.474 399.386 215.621 404.748 218.768Z" fill="white"/>
<path d="M317.84 153.368C336.471 174.203 336.687 179.484 342.402 191.584C346.633 201.962 350.484 223.767 353.195 235.609C362.835 240.144 371.333 232.286 384.837 266.044C389.568 267.291 356.704 266.931 353.278 274.255C353.076 281.686 350.104 299.956 346.661 308.54C339.865 325.452 330.771 341.239 319.378 355.899C319.003 356.384 318.992 357.063 319.351 357.574L336.88 382.146C337.762 383.396 339.558 383.554 340.644 382.475L361.717 361.418C362.377 360.78 363.48 361.082 363.723 361.967L385.51 447.899C385.637 448.394 385.177 448.839 384.686 448.695C376.095 446.408 347.934 439.242 300.201 427.199C299.138 426.924 298.625 426.238 298.662 425.14C298.681 424.499 298.983 423.895 299.569 423.327C306.437 416.885 312.72 410.927 318.416 405.455C319.987 403.931 319.885 401.387 318.197 400.019L296.272 382.063C295.641 381.544 294.741 381.511 294.074 381.981C280.574 391.316 271.489 397.145 266.819 399.47C257.715 404.009 247.614 407.962 236.514 411.33C226.073 414.496 215.395 416.08 204.478 416.08C183.249 416.06 171.728 416.043 169.915 416.025C168.413 416.025 162.991 414.661 153.65 411.934C139.445 407.816 125.515 400.595 112.327 393.951C85.0412 374.031 80.0775 370.663 70.7853 359.359C59.081 343.636 49.1076 325.544 40.8651 305.081C37.9894 297.943 36.2219 291.29 35.5625 285.122C34.436 274.305 31.1115 259.15 32.815 244.874C34.2254 233.105 35.0679 226.552 35.3427 225.216C40.3431 202.209 48.1734 183.229 58.8337 168.276C69.3657 153.523 80.7495 140.885 92.985 130.361C114.031 112.241 139.088 103.675 164.502 94.9173C165.525 94.5706 166.575 94.3404 167.634 94.231C189.742 92.2726 205.467 92.2176 214.809 94.0662C234.444 97.9648 252.468 104.133 268.879 112.571C270.802 113.559 278.88 118.784 293.112 128.247C293.826 128.726 294.758 128.715 295.447 128.22L319.598 111.006C320.65 110.253 320.781 108.746 319.873 107.848L298.827 86.8183C297.942 85.9118 298.369 84.3884 299.596 84.0728L383.807 62.7407C384.668 62.5297 385.447 63.3074 385.235 64.1683L363.558 149.195C363.334 150.042 362.285 150.335 361.689 149.716L340.561 128.604C339.377 127.431 337.432 127.56 336.413 128.878L317.84 153.368ZM61.9384 306.619C65.4185 296.296 67.7172 287.108 68.8346 279.054C69.9152 271.074 71.9575 262.389 74.9615 253C81.2441 233.269 87.1786 215.433 92.7652 199.491C100.348 177.912 116.861 158.914 132.906 142.551C138.09 137.261 142.495 132.2 146.121 127.368C146.587 126.76 146.865 126.025 146.918 125.254L147.44 119.462C147.599 117.612 145.773 116.228 144.033 116.881C105.66 131.157 77.6723 156.717 60.0701 193.561C54.63 204.964 51.5712 213.575 50.8935 219.396C48.4207 240.893 45.2062 255.581 47.7613 273.124C49.6479 286.119 52.1481 297.284 55.262 306.619C56.3272 309.83 60.8732 309.83 61.9384 306.619Z" fill="#5F5C5D"/>
<path d="M61.9382 306.619C61.7056 307.32 61.2579 307.93 60.6587 308.362C60.0594 308.794 59.3391 309.027 58.6 309.027C57.8608 309.027 57.1405 308.794 56.5412 308.362C55.942 307.93 55.4943 307.32 55.2618 306.619C52.1479 297.284 49.6477 286.119 47.7611 273.124C45.2059 255.581 48.4205 240.893 50.8932 219.396C51.571 213.576 54.6298 204.964 60.0699 193.561C77.6721 156.717 105.66 131.157 144.033 116.881C144.433 116.731 144.864 116.685 145.286 116.746C145.709 116.808 146.108 116.975 146.449 117.233C146.789 117.49 147.058 117.83 147.231 118.22C147.405 118.609 147.477 119.037 147.44 119.462L146.918 125.255C146.864 126.025 146.587 126.76 146.121 127.369C142.495 132.201 138.089 137.261 132.906 142.551C116.86 158.914 100.348 177.912 92.765 199.491C87.1784 215.433 81.2438 233.269 74.9613 253C71.9573 262.39 69.915 271.074 68.8344 279.054C67.717 287.108 65.4183 296.296 61.9382 306.619Z" fill="#706E6F"/>
<path d="M337.606 219.589C338.737 222.144 339.411 224.24 339.629 225.876C340.318 231.036 340.866 234.957 341.273 237.639C342.833 248.012 342.675 258.279 342.295 268.547C342.099 273.777 341.533 278.699 340.599 283.312C340.254 285.011 340.075 286.601 340.061 288.082C340.051 289.893 338.976 291.957 338.428 294.295C337.086 300.003 335.933 304.015 334.971 306.332C332.947 311.212 331.908 314.069 331.851 314.904C331.844 314.981 331.823 315.06 331.788 315.136L324.559 330.364C324.166 331.184 323.697 331.963 323.157 332.691C320.417 336.409 318.92 340.547 316.096 343.633C315.913 343.837 314.462 345.918 311.743 349.878C310.394 351.837 308.863 353.834 307.148 355.87C296.174 368.872 283.657 379.368 269.599 387.358C268.25 388.123 266.707 389.057 264.972 390.159C262.562 391.689 261.031 392.599 260.377 392.886C254.574 395.449 248.672 397.871 242.672 400.153L239.068 369.813C239.051 369.665 239.074 369.508 239.134 369.353C239.194 369.198 239.29 369.049 239.415 368.918C239.535 368.784 240.859 367.981 243.389 366.506C244.421 365.895 245.697 365.007 247.214 363.842C250.509 361.3 254.275 358.959 258.512 356.818C262.601 354.743 268.144 348.898 272.802 346.213C276.965 343.812 280.327 340.842 284.553 338.115C291.502 333.643 298.911 328.742 306.78 323.413C308.487 322.266 311.512 320.623 314.009 318.58C314.106 318.5 314.18 318.396 314.225 318.278C314.269 318.161 314.283 318.034 314.264 317.91C314.245 317.786 314.194 317.669 314.116 317.57C314.038 317.472 313.936 317.395 313.82 317.348C312.007 316.596 310.018 316.151 307.855 316.01C303.077 315.68 295.008 315.691 283.647 316.042C280.387 316.14 277.324 315.856 274.457 315.189C274.321 315.158 274.194 315.095 274.087 315.005C273.98 314.915 273.896 314.801 273.841 314.671C273.787 314.542 273.764 314.401 273.774 314.261C273.783 314.12 273.826 313.983 273.898 313.862C281.374 301.407 289.289 289.321 297.642 277.604C301.984 271.517 304.514 267.041 308.634 261.691C312.418 256.795 316.496 249.865 319.426 244.905C321.295 241.725 323.547 238.348 326.182 234.774C329.863 229.783 333.671 224.721 337.606 219.589Z" fill="#3B3B3B"/>
<path d="M469.017 253.62C469.017 253.838 468.969 253.971 468.874 254.02C438.563 271.396 410.573 287.281 384.906 301.673C384.857 301.701 384.801 301.716 384.745 301.717C384.688 301.718 384.632 301.704 384.582 301.677C384.533 301.65 384.492 301.611 384.463 301.564C384.435 301.517 384.42 301.464 384.42 301.41V267.226C384.421 267.099 384.392 266.973 384.335 266.857C384.279 266.742 384.196 266.639 384.093 266.557C383.99 266.474 383.869 266.414 383.739 266.381C383.608 266.347 383.472 266.341 383.338 266.363L360.39 269.985C360.235 270.011 360.075 270.003 359.924 269.961C359.772 269.919 359.632 269.844 359.514 269.743C359.397 269.642 359.304 269.516 359.243 269.376C359.183 269.236 359.156 269.084 359.165 268.932C359.584 261.996 359.794 256.923 359.794 253.715C359.786 250.507 359.569 245.438 359.143 238.508C359.134 238.358 359.161 238.207 359.221 238.067C359.281 237.928 359.372 237.803 359.489 237.702C359.605 237.601 359.744 237.527 359.894 237.484C360.044 237.441 360.202 237.431 360.357 237.455L383.316 241.036C383.45 241.057 383.586 241.051 383.716 241.018C383.847 240.984 383.968 240.924 384.071 240.842C384.174 240.759 384.257 240.657 384.313 240.541C384.37 240.426 384.399 240.3 384.398 240.172L384.331 205.989C384.331 205.934 384.346 205.881 384.374 205.834C384.403 205.787 384.444 205.748 384.493 205.721C384.543 205.694 384.599 205.681 384.656 205.681C384.713 205.682 384.768 205.697 384.817 205.725C410.506 220.069 438.525 235.9 468.873 253.22C468.969 253.276 469.017 253.409 469.017 253.62Z" fill="#5F5C5D"/>
</svg>
