<svg width="287" height="267" viewBox="0 0 287 267" fill="none" xmlns="http://www.w3.org/2000/svg">
<path d="M189.602 46.8154C188.885 48.3502 187.825 49.6327 186.423 50.6629C183.447 52.8494 180.501 55.0464 177.584 57.2539C175.771 58.6331 175.034 60.4265 175.374 62.634C175.407 62.8523 175.503 63.0581 175.651 63.2269C177.661 65.4723 179.846 67.3791 182.205 68.9475C182.381 69.0645 182.591 69.1188 182.802 69.1016C183.013 69.0845 183.213 68.9969 183.37 68.8529C186.423 66.0399 189.307 61.2527 190.981 58.8497C192.488 56.6842 194.498 55.3681 197.013 54.9013C197.234 54.861 197.46 54.9086 197.642 55.0338C198.855 55.8831 199.525 56.3772 199.65 56.516C202.395 59.5392 205.573 62.3586 209.182 64.974C209.24 65.0156 209.307 65.043 209.377 65.0539C209.447 65.0648 209.519 65.0589 209.586 65.0367C209.653 65.0145 209.714 64.9766 209.763 64.9262C209.812 64.8758 209.848 64.8143 209.868 64.7469C210.968 61.2569 211.86 57.3969 212.544 53.1668C213.098 49.7609 214.691 45.9513 215.572 41.7949C216.093 39.3435 216.79 36.6902 217.663 33.8351C217.793 33.4062 218.309 31.0726 219.211 26.8341C219.709 24.5004 218.613 22.9173 216.095 23.6363C209.34 25.56 205.801 26.38 197.774 28.31C192.498 29.5714 188.06 31.3501 182.671 32.2268C181.521 32.4118 180.226 32.9311 178.786 33.7847C178.591 33.9029 178.44 34.0851 178.358 34.3019C178.19 34.7602 178.186 35.2711 178.346 35.8345C178.374 35.9254 178.425 36.004 178.49 36.0616L189.325 45.5035C189.507 45.6637 189.632 45.8781 189.682 46.1146C189.732 46.351 189.704 46.5969 189.602 46.8154Z" fill="black" stroke="#D12226"/>
<path d="M78.8158 52.3784C78.2953 52.3826 77.7853 52.4709 77.2859 52.6433C58.6924 59.0851 43.7189 70.2468 32.3655 86.1285C26.4727 94.3657 22.244 103.07 19.6796 112.24C14.0973 132.209 15.1844 151.963 22.9408 171.503" fill="black"/>
<path d="M78.8158 52.3784C78.2953 52.3826 77.7853 52.4709 77.2859 52.6433C58.6924 59.0851 43.7189 70.2468 32.3655 86.1285C26.4727 94.3657 22.244 103.07 19.6796 112.24C14.0973 132.209 15.1844 151.963 22.9408 171.503" stroke="#DB4246"/>
<path d="M22.9408 171.503C25.6815 176.911 27.8095 181 29.3247 183.771C32.1578 188.968 35.9604 194.058 40.5752 198.467C47.6328 205.209 55.1373 211.561 63.5548 216.266C64.6251 216.867 67.796 218.335 73.0677 220.668C79.4453 223.494 85.0926 224.85 91.3191 226.036C98.0493 227.322 99.7051 222.825 101.713 217.735C102.916 214.689 105.592 210.987 106.473 208.483C108.475 202.798 111.052 197.098 114.204 191.384C114.262 191.277 114.347 191.188 114.449 191.124C114.552 191.06 114.669 191.023 114.79 191.017C114.91 191.012 115.031 191.037 115.139 191.091C115.247 191.145 115.339 191.227 115.407 191.327C115.822 191.937 116.198 192.609 116.534 193.345C119.065 198.879 120.943 203.952 122.168 208.565C123.157 212.298 124.133 214.191 125.726 217.906C125.906 218.33 126.288 219.653 126.871 221.873C126.917 222.053 126.989 222.223 127.085 222.377C127.379 222.844 127.854 223.313 128.508 223.784C128.983 224.125 129.692 224.131 130.636 223.803C132.256 223.239 133.772 222.525 135.182 221.658" fill="black"/>
<path d="M22.9408 171.503C25.6815 176.911 27.8095 181 29.3247 183.771C32.1578 188.968 35.9604 194.058 40.5752 198.467C47.6328 205.209 55.1373 211.561 63.5548 216.266C64.6251 216.867 67.796 218.335 73.0677 220.668C79.4453 223.494 85.0926 224.85 91.3191 226.036C98.0493 227.322 99.7051 222.825 101.713 217.735C102.916 214.689 105.592 210.987 106.473 208.483C108.475 202.798 111.052 197.098 114.204 191.384C114.262 191.277 114.347 191.188 114.449 191.124C114.552 191.06 114.669 191.023 114.79 191.017C114.91 191.012 115.031 191.037 115.139 191.091C115.247 191.145 115.339 191.227 115.407 191.327C115.822 191.937 116.198 192.609 116.534 193.345C119.065 198.879 120.943 203.952 122.168 208.565C123.157 212.298 124.133 214.191 125.726 217.906C125.906 218.33 126.288 219.653 126.871 221.873C126.917 222.053 126.989 222.223 127.085 222.377C127.379 222.844 127.854 223.313 128.508 223.784C128.983 224.125 129.692 224.131 130.636 223.803C132.256 223.239 133.772 222.525 135.182 221.658" stroke="#D12226"/>
<path d="M135.182 221.658C141.054 219.972 146.518 217.388 151.576 213.907C154.388 211.968 155.985 210.888 156.367 210.665C161.378 207.732 166.371 204.288 170.224 199.917C175.739 193.661 180.318 187.28 183.961 180.775C186.159 176.852 188.362 171.018 189.741 167.523C190.849 164.698 191.227 161.822 192.184 158.901C192.88 156.782 193.346 154.598 193.581 152.348C194.219 146.281 194.601 142.303 194.727 140.415C194.958 136.811 194.824 132.754 194.324 128.242C193.833 123.802 193.558 121.441 193.499 121.159C192.987 118.712 191.959 116.601 190.415 114.826" fill="black"/>
<path d="M135.182 221.658C141.054 219.972 146.518 217.388 151.576 213.907C154.388 211.968 155.985 210.888 156.367 210.665C161.378 207.732 166.371 204.288 170.224 199.917C175.739 193.661 180.318 187.28 183.961 180.775C186.159 176.852 188.362 171.018 189.741 167.523C190.849 164.698 191.227 161.822 192.184 158.901C192.88 156.782 193.346 154.598 193.581 152.348C194.219 146.281 194.601 142.303 194.727 140.415C194.958 136.811 194.824 132.754 194.324 128.242C193.833 123.802 193.558 121.441 193.499 121.159C192.987 118.712 191.959 116.601 190.415 114.826" stroke="#BF2226"/>
<path d="M190.415 114.826C190.352 112.505 190.215 110.989 190.005 110.279C187.474 101.667 183.544 93.6845 178.213 86.3303C173.479 79.8002 168.541 74.2624 163.399 69.717C163.24 69.5786 163.067 69.4561 162.883 69.3512C159.152 67.232 155.395 64.6418 151.614 61.5807C148.082 58.7172 145.072 57.4557 140.709 56.4087C140.608 56.385 140.504 56.3822 140.403 56.4007C140.302 56.4192 140.207 56.4584 140.124 56.516C137.039 58.6604 133.866 62.8421 131.713 66.1786C129.744 69.2145 128.54 70.9637 128.099 71.4263C126.471 73.1292 124.945 74.5946 123.522 75.8224C123.438 75.8942 123.337 75.9444 123.229 75.9688C123.121 75.9932 123.009 75.9911 122.902 75.9626C122.795 75.9341 122.696 75.88 122.615 75.8051C122.533 75.7302 122.471 75.6366 122.433 75.5323C121.711 73.5182 120.934 70.6168 120.103 66.8283C119.453 63.8807 118.078 61.9843 115.98 61.1392C115.89 61.1039 115.791 61.0959 115.696 61.116C115.601 61.1362 115.514 61.1837 115.445 61.2527L112.914 63.7819C112.857 63.8395 112.788 63.8827 112.711 63.9079C112.634 63.933 112.553 63.9394 112.473 63.9264C112.394 63.9134 112.318 63.8815 112.254 63.8333C112.189 63.7851 112.137 63.7221 112.101 63.6494C111.51 62.4511 111.172 61.7299 111.088 61.4861C109.992 58.2273 108.761 55.1536 107.392 52.2649C106.309 49.969 104.523 48.7686 102.035 48.6634C99.277 48.5457 96.6999 48.6592 94.3033 49.004C88.9309 49.7777 83.7684 50.9025 78.8157 52.3784" fill="black"/>
<path d="M190.415 114.826C190.352 112.505 190.215 110.989 190.005 110.279C187.474 101.667 183.544 93.6845 178.213 86.3303C173.479 79.8002 168.541 74.2624 163.399 69.717C163.24 69.5786 163.067 69.4561 162.883 69.3512C159.152 67.232 155.395 64.6418 151.614 61.5807C148.082 58.7172 145.072 57.4557 140.709 56.4087C140.608 56.385 140.504 56.3822 140.403 56.4007C140.302 56.4192 140.207 56.4584 140.124 56.516C137.039 58.6604 133.866 62.8421 131.713 66.1787C129.744 69.2145 128.54 70.9637 128.099 71.4263C126.471 73.1292 124.945 74.5946 123.522 75.8224C123.438 75.8942 123.337 75.9444 123.229 75.9688C123.121 75.9932 123.009 75.9911 122.902 75.9626C122.795 75.9341 122.696 75.88 122.615 75.8051C122.533 75.7302 122.471 75.6366 122.433 75.5323C121.711 73.5182 120.934 70.6168 120.103 66.8283C119.453 63.8807 118.078 61.9843 115.98 61.1392C115.89 61.1039 115.791 61.0959 115.696 61.116C115.601 61.1362 115.514 61.1837 115.445 61.2527L112.914 63.7819C112.857 63.8395 112.788 63.8827 112.711 63.9079C112.634 63.933 112.553 63.9394 112.473 63.9264C112.394 63.9134 112.318 63.8815 112.254 63.8333C112.189 63.7851 112.137 63.7221 112.101 63.6494C111.51 62.4511 111.172 61.7299 111.088 61.4861C109.992 58.2273 108.761 55.1536 107.392 52.2649C106.309 49.969 104.523 48.7686 102.035 48.6634C99.277 48.5457 96.6999 48.6592 94.3033 49.004C88.9309 49.7777 83.7684 50.9025 78.8157 52.3784" stroke="#D12226"/>
<path d="M190.415 114.826C188.066 117.343 186.524 120.604 184.578 122.742C184.302 123.044 184.059 123.374 183.854 123.726C180.824 128.868 177.943 133.326 175.21 137.097C171.767 141.847 169.343 146.079 165.93 150.797C162.776 155.161 160.44 160.478 156.638 164.326C156.197 164.767 155.605 165.715 154.862 167.17C154.401 168.074 153.796 169.016 153.049 169.996C153.005 170.053 152.973 170.118 152.955 170.187C152.938 170.257 152.934 170.33 152.945 170.401C152.956 170.473 152.982 170.541 153.02 170.603C153.059 170.664 153.109 170.717 153.169 170.759C153.899 171.268 154.747 171.55 155.712 171.604C160.774 171.911 167.515 171.903 175.934 171.579C176.388 171.562 176.921 171.594 177.533 171.674C177.617 171.684 177.696 171.719 177.761 171.773C177.826 171.827 177.874 171.899 177.899 171.98C177.925 172.062 177.927 172.149 177.906 172.232C177.885 172.315 177.841 172.39 177.779 172.449C176.822 173.358 174.763 174.903 173.334 175.691C171.34 176.793 168.132 178.929 163.708 182.099C161.5 183.685 157.515 186.304 151.752 189.958C148.938 191.743 147.37 193.749 144.613 195.471C142.241 196.955 139.358 198.847 135.962 201.147C134.691 202.009 133.683 202.817 132.94 203.569C132.798 203.716 132.709 203.91 132.689 204.118C132.393 207.019 133.167 210.104 133.57 213.018C133.866 215.093 134.905 218.587 135.182 221.658" fill="black"/>
<path d="M190.415 114.826C188.066 117.343 186.524 120.604 184.578 122.742C184.302 123.044 184.059 123.374 183.854 123.726C180.824 128.868 177.943 133.326 175.21 137.097C171.767 141.847 169.343 146.079 165.93 150.797C162.776 155.161 160.44 160.478 156.638 164.326C156.197 164.767 155.605 165.715 154.862 167.17C154.401 168.074 153.796 169.016 153.049 169.996C153.005 170.053 152.973 170.118 152.955 170.187C152.938 170.257 152.934 170.33 152.945 170.401C152.956 170.473 152.982 170.541 153.02 170.603C153.059 170.664 153.109 170.717 153.169 170.759C153.899 171.268 154.747 171.55 155.712 171.604C160.774 171.911 167.515 171.903 175.934 171.579C176.388 171.562 176.921 171.594 177.533 171.674C177.617 171.684 177.696 171.719 177.761 171.773C177.826 171.827 177.874 171.899 177.899 171.98C177.925 172.062 177.927 172.149 177.906 172.232C177.885 172.315 177.841 172.39 177.779 172.449C176.822 173.358 174.763 174.903 173.334 175.691C171.34 176.793 168.132 178.929 163.708 182.099C161.5 183.685 157.515 186.304 151.752 189.958C148.938 191.743 147.37 193.749 144.613 195.471C142.241 196.955 139.358 198.847 135.962 201.147C134.691 202.009 133.683 202.817 132.94 203.569C132.798 203.716 132.709 203.91 132.689 204.118C132.393 207.019 133.167 210.104 133.57 213.018C133.866 215.093 134.905 218.587 135.182 221.658" stroke="#C82325"/>
<path d="M22.9408 171.503L47.1417 93.653C47.3752 92.9092 47.7237 92.2089 48.1742 91.5779C49.1522 90.2113 50.1826 88.8763 51.2654 87.5728C52.3651 86.2483 53.6494 84.6231 55.1185 82.6973C57.8928 79.0601 60.7028 75.4482 63.5485 71.8615C67.4015 67.0007 71.2566 62.1799 75.1138 57.399C75.1348 57.3738 75.6846 56.762 76.7633 55.5636C77.607 54.6301 78.2911 53.5684 78.8157 52.3784" fill="black"/>
<path d="M22.9408 171.503L47.1417 93.653C47.3752 92.9092 47.7237 92.2089 48.1742 91.5779C49.1522 90.2113 50.1826 88.8763 51.2654 87.5728C52.3651 86.2483 53.6494 84.6231 55.1185 82.6973C57.8928 79.0601 60.7028 75.4482 63.5485 71.8615C67.4015 67.0007 71.2566 62.1799 75.1138 57.399C75.1348 57.3738 75.6846 56.762 76.7633 55.5636C77.607 54.6301 78.2911 53.5684 78.8157 52.3784" stroke="#E44345"/>
<path d="M208.049 57.8468C208.523 54.9959 209.222 52.3616 210.146 49.9438C211.436 46.5694 212.318 43.132 213.306 39.19C213.866 36.9446 214.962 35.5065 215.434 33.135C215.9 30.7719 216.624 28.5097 217.606 26.3484C217.646 26.2572 217.655 26.155 217.63 26.0584C217.605 25.9618 217.548 25.8765 217.468 25.8165C217.389 25.7565 217.291 25.7253 217.191 25.728C217.092 25.7307 216.996 25.7671 216.92 25.8312C212.229 29.8679 209.214 32.8953 204.989 35.9481C203.722 36.8647 201.674 38.5571 198.845 41.0254C197.174 42.4802 195.821 44.0465 194.784 45.7243C194.638 45.9613 194.59 46.2458 194.65 46.5169C194.71 46.788 194.873 47.0242 195.105 47.1749L197.976 49.023C198.222 49.1773 198.439 49.376 198.618 49.6095C200.377 51.8801 202.175 54.136 204.013 56.3772C204.811 57.3485 205.806 58.0444 206.998 58.4649C207.108 58.5034 207.225 58.5176 207.341 58.5064C207.457 58.4952 207.569 58.4588 207.669 58.3999C207.769 58.341 207.855 58.261 207.921 58.1655C207.986 58.0699 208.03 57.9611 208.049 57.8468Z" fill="black" stroke="#C82325"/>
<path d="M240.546 0.618158C238.072 1.19225 235.616 1.86598 233.149 2.47817C204.708 9.72106 176.267 16.9656 147.825 24.2075C146.83 24.4788 146.412 25.8526 147.11 26.6207C153.332 32.8865 159.585 39.1247 165.82 45.3798C164.849 46.0907 163.884 46.8206 162.91 47.5196C161.762 47.1817 160.836 46.3657 159.793 45.8051C142.549 35.4572 122.237 30.5242 102.185 31.2555C94.9973 31.5057 87.8334 32.4751 80.8516 34.2112C77.1928 35.1238 73.5465 36.1118 69.9743 37.3256C64.1738 39.3353 58.7441 42.2413 53.336 45.114C48.5132 47.6785 44.0193 50.8223 39.744 54.2143C32.3574 60.1374 25.7718 67.0594 20.1775 74.7013C17.7008 78.1157 15.4171 81.68 13.5257 85.4552C11.9494 88.5581 10.3214 91.6372 8.85505 94.7941C6.16164 100.851 4.23942 107.218 2.5525 113.619C1.16825 119.205 0.651689 124.962 0.310378 130.693C-0.174308 140.267 0.366599 149.923 2.29357 159.323C4.69229 170.89 9.27268 181.939 15.2483 192.1C24.1184 206.969 36.7132 219.585 51.5507 228.478C65.4432 236.836 81.2946 241.88 97.4499 243.129C110.667 244.162 124.111 242.916 136.795 238.979C147.563 235.64 157.853 230.72 167.147 224.322C168.993 225.672 170.839 227.022 172.685 228.372C167.129 233.938 161.573 239.504 156.017 245.069C155.806 245.383 155.685 245.718 155.754 246.098C155.763 246.42 155.984 246.759 156.211 246.97C156.842 247.413 157.657 247.422 158.373 247.663C182.845 253.886 207.315 260.111 231.786 266.333C232.808 266.582 233.826 265.512 233.514 264.502C227.179 239.529 220.841 214.557 214.508 189.583C214.216 188.603 212.862 188.203 212.107 188.908C206.624 194.386 201.154 199.879 195.676 205.363C194.332 203.538 192.988 201.712 191.645 199.886C195.238 195.108 198.205 189.887 200.849 184.532C204.374 177.325 207.146 169.742 209.048 161.945C209.654 159.399 209.915 156.787 210.322 154.209C210.866 154.016 211.495 154.012 212.069 153.888C213.761 153.618 215.454 153.349 217.146 153.08C217.152 160.824 217.135 168.57 217.155 176.313C217.198 177.403 218.555 178.104 219.473 177.521C241.544 164.338 263.624 151.168 285.689 137.976C286.594 137.41 286.492 135.906 285.535 135.445C263.487 122.294 241.439 109.14 219.389 95.9905C219.069 95.8192 218.695 95.7671 218.34 95.8427C218.971 95.2337 218.944 94.2757 219.215 93.489C226.896 63.1709 234.58 32.8534 242.261 2.53497C242.49 1.51802 241.583 0.491433 240.546 0.618158ZM213.425 80.7558C208.241 75.5695 203.071 70.3676 197.878 65.191C197.086 64.4626 195.712 64.7217 195.192 65.6505C191.974 70.0745 188.733 74.4828 185.531 78.9166C185.071 79.626 185.258 80.5413 185.734 81.1907C188.241 85.4034 190.887 89.5435 193.044 93.954C194.009 95.8694 194.938 97.915 195.746 99.8327C197.654 104.421 199.229 109.16 200.284 114.019C200.394 114.897 200.453 115.785 200.76 116.624C201.312 118.625 201.601 120.686 201.805 122.748C201.898 123.303 202.321 123.743 202.29 124.325C202.61 126.771 202.833 129.357 202.953 131.878C203.077 134.415 203.102 136.959 203.045 139.53C203.001 141.56 202.9 143.649 202.75 145.715C202.706 146.207 202.668 146.75 202.614 147.272C202.474 149.1 202.09 150.892 201.754 152.69C201.55 153.861 201.393 155.04 201.204 156.214C201.068 157.055 200.887 158.043 200.688 158.932C199.104 165.465 197.226 171.973 194.3 178.044C191.893 183.148 189.261 188.169 186.005 192.787C183.604 196.271 180.863 199.502 177.994 202.604C175.835 204.944 173.724 207.34 171.386 209.505C169.42 211.24 167.418 212.977 165.432 214.627C162.58 216.977 159.36 218.915 156.215 220.768C152.584 222.89 148.779 224.881 144.987 226.58C139.413 229.079 133.602 231.058 127.642 232.399C127.074 232.511 126.368 232.735 125.72 232.688C124.524 232.725 123.38 233.146 122.206 233.351C119.541 233.951 116.844 234.453 114.108 234.57C110.249 234.815 106.458 234.959 102.596 234.938C102.152 235.031 101.865 234.875 101.765 234.423C101.609 234.002 101.442 233.62 101.05 234.088C100.687 234.312 100.369 234.701 99.9014 234.551C95.9139 234.327 91.9414 233.846 88.013 233.126C87.284 232.986 86.396 232.817 85.6098 232.648C78.8272 231.218 72.2042 229.036 65.8929 226.166C65.4691 225.965 64.8771 225.699 64.4498 225.494C49.8262 218.562 37.0431 207.856 27.4911 194.788C20.3581 185.114 15.1603 174.047 12.0865 162.429C10.7182 157.243 9.67121 151.96 9.20762 146.612C9.17646 146.186 9.12336 145.633 9.09355 145.179C8.96283 143.398 8.88781 141.637 8.85711 139.885C8.8066 137.033 8.87703 134.238 9.04162 131.402C9.09952 130.504 9.16434 129.507 9.24344 128.601C9.52978 125.317 9.8969 122.036 10.4638 118.79C11.0562 116.05 11.7789 113.412 12.4887 110.709C13.6664 106.358 15.1794 102.055 16.9602 97.958C22.5168 85.1299 30.9879 73.6032 41.4611 64.3693C48.9362 57.7643 57.5162 52.2569 66.675 48.2132C68.3392 47.4799 69.9059 46.8365 71.6178 46.1894C74.249 45.1937 76.9844 44.2943 79.6207 43.558C81.2647 43.0918 83.0374 42.6492 84.7088 42.2752C87.9879 41.5431 91.3205 40.9866 94.6238 40.6097C96.1514 40.4364 97.5978 40.3058 99.1601 40.2019C101.641 40.0433 104.07 39.9752 106.57 40.0098C107.444 40.0351 108.286 40.0168 109.123 40.0988C109.598 40.5771 110.073 41.0555 110.547 41.5339C110.715 41.0469 110.884 40.5599 111.052 40.0729C116.206 39.8139 121.202 41.3991 126.307 41.7856C127.748 42.3083 129.23 42.7154 130.727 43.049C131.594 43.2918 132.51 43.4689 133.314 43.8715C134.281 44.775 135.641 44.9119 136.886 45.0974C137.249 45.1742 137.626 45.2398 137.948 45.434C138.077 46.2594 138.206 47.0848 138.335 47.9101C138.944 47.2746 139.553 46.6384 140.162 46.0032C141.278 46.4209 142.413 46.8639 143.461 47.3013C150.047 50.0171 156.314 53.495 162.137 57.6003C162.894 58.077 163.88 57.8258 164.495 57.2309C168.814 54.0311 173.149 50.8512 177.458 47.6391C178.33 46.9316 178.331 45.4699 177.473 44.7499C172.416 39.6858 167.36 34.6217 162.303 29.5575C185.141 23.7418 207.979 17.9261 230.818 12.1104C225.02 34.9922 219.223 57.874 213.425 80.7558ZM216.024 95.7934C216.419 96.2038 217.024 96.3731 217.577 96.2455C216.895 96.9033 217.169 97.9078 217.114 98.7492C217.114 106.009 217.114 113.269 217.114 120.53C214.883 120.185 212.644 119.869 210.417 119.507C210.169 119.218 210.248 118.746 210.126 118.388C207.811 106.163 203.746 94.1768 197.335 83.4785C196.712 82.41 196.011 81.3841 195.373 80.3296C195.346 79.888 195.822 79.607 196.007 79.2373C196.499 78.5646 196.99 77.8918 197.482 77.2191C203.662 83.4105 209.843 89.602 216.024 95.7934ZM270.748 136.766C255.808 145.685 240.868 154.603 225.928 163.522C225.923 157.213 225.938 150.902 225.921 144.593C225.872 143.618 224.817 142.902 223.889 143.179C219.826 143.828 215.764 144.477 211.702 145.125C211.908 139.595 211.832 134.05 211.385 128.533C215.573 129.154 219.757 129.818 223.948 130.413C225.029 130.502 225.976 129.461 225.853 128.393C225.853 122.259 225.853 116.124 225.853 109.99C240.818 118.915 255.783 127.84 270.748 136.766ZM210.461 209.056C214.262 224.376 218.178 239.667 222.167 254.939C205.279 250.541 188.368 246.231 171.418 242.076C175.825 237.648 180.26 233.245 184.649 228.801C185.379 227.965 185.099 226.555 184.149 226.009C180.843 223.59 177.537 221.17 174.232 218.751C178.504 215.243 182.425 211.302 185.929 207.024C186.158 207.082 186.376 207.609 186.602 207.839C188.897 210.959 191.16 214.104 193.475 217.207C194.19 218.051 195.62 217.989 196.3 217.129C200.614 212.793 204.928 208.457 209.242 204.121C209.648 205.766 210.055 207.411 210.461 209.056Z" fill="black"/>
<path d="M100.41 235.843C70.0205 234.298 42.7662 218.625 25.4339 194.089C17.1654 182.387 11.6734 169.094 8.95786 154.209C6.91173 143.02 7.30837 130.765 9.08377 119.317C9.25586 118.19 9.9463 115.356 11.1551 110.815C22.796 67.0869 64.3292 36.9194 109.357 38.8242C126.706 39.3286 126.607 40.3359 140.376 44.734C148.413 47.7111 155.863 51.6279 162.726 56.4844C162.929 56.6277 163.199 56.6251 163.393 56.4781L176.595 46.7208C176.915 46.479 176.951 46.0125 176.671 45.7306L160.44 29.4768C160.181 29.214 160.304 28.7685 160.661 28.6758L232.011 10.5047C232.257 10.4462 232.478 10.668 232.42 10.9146L214.357 82.2054C214.244 82.6529 213.687 82.805 213.363 82.4766L197.094 66.1787C196.872 65.9561 196.504 65.9861 196.32 66.2417L186.637 79.5185C186.523 79.6815 186.492 79.8878 186.555 80.0735C186.601 80.2123 187.691 82.033 189.823 85.5356C195.405 94.7063 199.273 103.957 201.426 113.287C201.535 113.763 201.613 114.322 201.659 114.965C201.676 115.167 201.711 115.363 201.766 115.552C202.395 117.671 202.811 119.921 203.012 122.3C203.029 122.54 203.124 122.816 203.296 123.127C203.387 123.285 203.447 123.459 203.472 123.638C204.362 130.214 204.563 137.263 204.076 144.786C203.896 147.582 203.64 149.737 203.308 151.251C202.704 154.026 202.565 156.574 201.778 159.797C200.448 165.234 199.046 169.855 197.573 173.66C196.532 176.356 194.914 179.829 192.719 184.08C189.453 190.4 185.493 196.152 180.839 201.337C177.334 205.243 174.726 208.037 173.013 209.719C172.371 210.345 170.421 212.048 167.164 214.828C165.242 216.468 163.16 217.99 160.919 219.394C150.059 226.193 123.733 240.831 100.41 235.843ZM189.602 46.8154C188.885 48.3502 187.825 49.6327 186.423 50.6628C183.447 52.8494 180.501 55.0464 177.584 57.2539C175.771 58.6331 175.034 60.4265 175.374 62.634C175.407 62.8523 175.503 63.0581 175.651 63.2269C177.661 65.4723 179.846 67.3791 182.205 68.9475C182.567 69.1883 183.048 69.1492 183.37 68.8529C186.423 66.0399 189.307 61.2527 190.981 58.8497C192.488 56.6842 194.498 55.3681 197.013 54.9013C197.234 54.861 197.46 54.9086 197.642 55.0338C198.855 55.8831 199.525 56.3772 199.65 56.516C202.395 59.5392 205.573 62.3586 209.182 64.974C209.432 65.1534 209.782 65.0375 209.869 64.7469C210.968 61.2569 211.86 57.3969 212.544 53.1668C213.098 49.7609 214.691 45.9513 215.573 41.7949C216.093 39.3435 216.79 36.6902 217.663 33.8351C217.793 33.4062 218.309 31.0726 219.211 26.8341C219.709 24.5004 218.613 22.9173 216.095 23.6363C209.34 25.56 205.801 26.38 197.774 28.31C192.498 29.5714 188.06 31.3501 182.671 32.2268C181.521 32.4118 180.226 32.9311 178.786 33.7847C178.591 33.9029 178.44 34.0851 178.358 34.3019C178.19 34.7602 178.186 35.2711 178.346 35.8345C178.375 35.9254 178.425 36.004 178.49 36.0616L189.325 45.5035C189.698 45.8326 189.811 46.3666 189.602 46.8154ZM78.8157 52.3784C78.2953 52.3826 77.7853 52.4709 77.2859 52.6433C58.6924 59.0851 43.7189 70.2468 32.3655 86.1285C26.4727 94.3657 22.244 103.07 19.6796 112.24C14.0973 132.209 15.1844 151.963 22.9408 171.503C25.6815 176.911 27.8095 181 29.3247 183.771C32.1578 188.968 35.9604 194.058 40.5752 198.467C47.6328 205.209 55.1373 211.561 63.5548 216.266C64.6251 216.867 67.796 218.335 73.0677 220.668C79.4453 223.494 85.0926 224.85 91.3191 226.036C102.282 228.132 127.854 223.313 128.508 223.784C128.983 224.125 129.692 224.131 130.636 223.803C132.256 223.239 133.772 222.525 135.182 221.658C141.054 219.972 146.518 217.388 151.576 213.907C154.388 211.968 155.985 210.888 156.367 210.665C161.378 207.732 166.371 204.288 170.224 199.917C175.739 193.661 180.318 187.28 183.961 180.775C186.159 176.852 188.362 171.018 189.741 167.523C190.849 164.698 191.227 161.822 192.184 158.901C192.88 156.782 193.346 154.598 193.581 152.348C194.219 146.281 194.601 142.303 194.727 140.415C194.958 136.811 194.824 132.754 194.324 128.242C193.833 123.802 193.558 121.441 193.5 121.159C192.987 118.712 191.959 116.601 190.415 114.826C190.352 112.505 190.215 110.99 190.005 110.279C187.474 101.667 183.544 93.6845 178.213 86.3303C173.479 79.8002 168.541 74.2624 163.399 69.717C163.24 69.5786 163.067 69.4561 162.883 69.3512C159.152 67.232 155.395 64.6418 151.614 61.5807C148.082 58.7172 145.072 57.4557 140.709 56.4087C140.504 56.3607 140.292 56.3997 140.124 56.516C128.471 50.745 112.959 49.633 102.035 48.6635C99.277 48.5457 96.6999 48.6592 94.3033 49.004C88.931 49.7777 83.7684 50.9025 78.8157 52.3784Z" fill="#C72127"/>
<path d="M189.602 46.8154C189.704 46.5969 189.732 46.351 189.682 46.1146C189.632 45.8781 189.507 45.6637 189.325 45.5035L178.49 36.0616C178.425 36.004 178.374 35.9254 178.346 35.8345C178.186 35.2711 178.19 34.7602 178.358 34.3019C178.44 34.0851 178.591 33.9029 178.786 33.7847C180.226 32.9311 181.521 32.4118 182.671 32.2268C188.06 31.3501 192.498 29.5714 197.774 28.31C205.801 26.38 209.34 25.56 216.095 23.6363C218.613 22.9173 219.709 24.5004 219.211 26.8341C218.309 31.0726 217.793 33.4062 217.663 33.8351C216.79 36.6902 216.093 39.3435 215.572 41.7949C214.691 45.9513 213.098 49.7609 212.544 53.1668C211.86 57.3969 210.968 61.2569 209.868 64.7469C209.848 64.8143 209.812 64.8758 209.763 64.9262C209.714 64.9766 209.653 65.0145 209.586 65.0367C209.519 65.0589 209.447 65.0648 209.377 65.0539C209.307 65.043 209.24 65.0156 209.182 64.974C205.573 62.3586 202.395 59.5392 199.65 56.516C199.525 56.3772 198.855 55.8831 197.642 55.0338C197.46 54.9086 197.234 54.861 197.013 54.9013C194.498 55.3681 192.488 56.6842 190.981 58.8497C189.307 61.2527 186.423 66.0399 183.37 68.8529C183.213 68.9969 183.013 69.0845 182.802 69.1016C182.591 69.1188 182.381 69.0645 182.205 68.9475C179.846 67.3791 177.661 65.4723 175.651 63.2269C175.503 63.0581 175.407 62.8523 175.374 62.634C175.034 60.4265 175.771 58.6331 177.584 57.2539C180.501 55.0464 183.447 52.8494 186.423 50.6629C187.825 49.6327 188.885 48.3502 189.602 46.8154ZM208.049 57.8468C208.523 54.9959 209.222 52.3616 210.146 49.9438C211.436 46.5695 212.318 43.132 213.306 39.19C213.866 36.9446 214.962 35.5066 215.434 33.135C215.9 30.7719 216.624 28.5097 217.606 26.3484C217.646 26.2572 217.655 26.155 217.63 26.0584C217.605 25.9618 217.548 25.8765 217.468 25.8165C217.389 25.7565 217.291 25.7253 217.191 25.728C217.092 25.7307 216.996 25.7671 216.92 25.8313C212.229 29.8679 209.214 32.8954 204.989 35.9481C203.722 36.8647 201.674 38.5572 198.845 41.0254C197.174 42.4803 195.821 44.0466 194.784 45.7243C194.638 45.9613 194.59 46.2458 194.65 46.5169C194.71 46.788 194.873 47.0242 195.105 47.1749L197.976 49.023C198.221 49.1773 198.439 49.376 198.618 49.6095C200.377 51.8801 202.175 54.136 204.013 56.3772C204.811 57.3485 205.806 58.0444 206.998 58.4649C207.108 58.5035 207.225 58.5176 207.341 58.5064C207.457 58.4952 207.569 58.4588 207.669 58.4C207.769 58.3411 207.855 58.261 207.921 58.1655C207.986 58.0699 208.03 57.9612 208.049 57.8468Z" fill="#DA2325"/>
<path d="M208.049 57.8468C208.03 57.9611 207.986 58.0699 207.921 58.1655C207.855 58.261 207.769 58.341 207.669 58.3999C207.569 58.4588 207.457 58.4952 207.341 58.5064C207.225 58.5176 207.108 58.5034 206.998 58.4649C205.806 58.0444 204.811 57.3485 204.013 56.3772C202.175 54.136 200.377 51.8801 198.618 49.6095C198.439 49.376 198.222 49.1773 197.976 49.023L195.105 47.1749C194.873 47.0242 194.71 46.788 194.65 46.5169C194.59 46.2458 194.638 45.9613 194.784 45.7243C195.821 44.0465 197.174 42.4802 198.845 41.0254C201.674 38.5571 203.722 36.8647 204.989 35.9481C209.214 32.8953 212.229 29.8679 216.92 25.8312C216.996 25.7671 217.092 25.7307 217.191 25.728C217.291 25.7253 217.389 25.7565 217.468 25.8165C217.548 25.8765 217.605 25.9618 217.63 26.0584C217.655 26.155 217.646 26.2572 217.606 26.3484C216.624 28.5097 215.9 30.7719 215.434 33.135C214.962 35.5065 213.866 36.9446 213.306 39.19C212.318 43.132 211.436 46.5694 210.146 49.9438C209.222 52.3616 208.523 54.9959 208.049 57.8468Z" fill="#B62224"/>
<path d="M190.415 114.826C188.066 117.343 186.524 120.604 184.578 122.742C184.302 123.044 184.059 123.374 183.854 123.726C180.824 128.868 177.943 133.326 175.21 137.097C171.766 141.847 169.343 146.079 165.93 150.797C162.776 155.161 160.44 160.478 156.638 164.326C156.197 164.767 155.605 165.715 154.862 167.17C154.401 168.074 153.796 169.016 153.049 169.996C152.863 170.235 152.918 170.583 153.169 170.759C153.899 171.268 154.747 171.549 155.712 171.604C160.774 171.911 167.515 171.903 175.934 171.579C176.388 171.562 176.921 171.594 177.533 171.674C177.907 171.721 178.054 172.186 177.779 172.449C176.822 173.358 174.763 174.903 173.334 175.691C171.34 176.793 168.132 178.929 163.708 182.099C161.5 183.685 157.515 186.304 151.752 189.958C148.938 191.743 147.37 193.749 144.613 195.471C142.241 196.955 139.358 198.847 135.962 201.147C134.691 202.009 133.683 202.817 132.94 203.569C132.798 203.716 132.709 203.91 132.689 204.118C132.393 207.019 133.167 210.104 133.57 213.017C133.866 215.093 134.905 218.587 135.182 221.658C133.772 222.525 132.256 223.239 130.636 223.803C121.148 226.556 109.874 228.783 92.9357 226.721C86.7092 225.535 79.4453 223.494 73.0677 220.668C67.796 218.334 64.6251 216.867 63.5548 216.266C55.1373 211.561 47.6328 205.209 40.5752 198.467C35.9604 194.058 32.1578 188.968 29.3247 183.771C27.8095 181 25.6815 176.911 22.9408 171.503L47.1417 93.653C47.3752 92.9092 47.7237 92.2089 48.1742 91.5779C49.1522 90.2113 50.1826 88.8763 51.2654 87.5728C52.3651 86.2483 53.6494 84.6231 55.1185 82.6973C57.8928 79.0601 60.7028 75.4482 63.5485 71.8615C67.4015 67.0007 71.2566 62.1799 75.1138 57.399C75.1348 57.3737 75.6846 56.7619 76.7633 55.5636C77.6069 54.6301 78.2911 53.5684 78.8157 52.3784C83.7684 50.9025 88.9309 49.7777 94.3033 49.004C96.6999 48.6592 99.277 48.5457 102.035 48.6634C118.108 49.3423 139.946 52.1209 151.614 61.5807C155.395 64.6418 159.152 67.232 162.883 69.3512C163.067 69.4561 163.24 69.5786 163.399 69.717C168.541 74.2624 173.479 79.8002 178.213 86.3303C183.544 93.6845 187.474 101.667 190.005 110.279C190.215 110.989 190.352 112.505 190.415 114.826Z" fill="#DA2325"/>
<path d="M78.8158 52.3784C78.2911 53.5684 77.607 54.6301 76.7633 55.5636C75.6847 56.762 75.1348 57.3738 75.1138 57.399C71.2566 62.1799 67.4015 67.0007 63.5485 71.8615C60.7028 75.4482 57.8928 79.0601 55.1185 82.6973C53.6495 84.6231 52.3651 86.2483 51.2655 87.5728C50.1826 88.8763 49.1522 90.2113 48.1742 91.5779C47.7237 92.2089 47.3753 92.9092 47.1417 93.653L22.9408 171.503C15.1844 151.963 14.0973 132.209 19.6796 112.24C22.244 103.07 26.4727 94.3657 32.3655 86.1285C43.7189 70.2468 58.6924 59.0851 77.2859 52.6433C77.7853 52.4709 78.2953 52.3826 78.8158 52.3784Z" fill="#EE6364"/>
<path d="M224.273 144.395L211.121 146.495C211.032 146.509 210.941 146.503 210.854 146.478C210.767 146.452 210.687 146.407 210.62 146.347C210.552 146.287 210.499 146.212 210.464 146.129C210.429 146.045 210.412 145.955 210.416 145.864C210.681 139.557 210.565 133.557 210.07 127.863C210.061 127.766 210.075 127.668 210.109 127.577C210.144 127.486 210.199 127.404 210.27 127.337C210.341 127.27 210.426 127.22 210.519 127.191C210.612 127.162 210.71 127.155 210.807 127.17L223.933 129.15C224.015 129.163 224.099 129.158 224.178 129.135C224.258 129.112 224.331 129.073 224.394 129.019C224.457 128.965 224.507 128.898 224.542 128.823C224.577 128.747 224.594 128.665 224.594 128.582V108.134C224.595 108.098 224.605 108.062 224.623 108.03C224.642 107.999 224.669 107.973 224.701 107.955C224.733 107.937 224.769 107.928 224.805 107.928C224.842 107.929 224.878 107.939 224.909 107.958L272.738 136.485C272.786 136.515 272.826 136.556 272.854 136.605C272.882 136.654 272.896 136.71 272.896 136.766C272.896 136.823 272.882 136.878 272.854 136.927C272.826 136.976 272.786 137.018 272.738 137.047L225.098 165.486C225.055 165.512 225.006 165.526 224.955 165.526C224.905 165.526 224.856 165.513 224.812 165.488C224.769 165.463 224.733 165.427 224.708 165.384C224.683 165.34 224.67 165.29 224.67 165.24V144.735C224.67 144.685 224.658 144.636 224.637 144.59C224.617 144.545 224.586 144.504 224.548 144.472C224.511 144.439 224.467 144.416 224.419 144.402C224.372 144.389 224.322 144.387 224.273 144.395Z" fill="#5D5D5D"/>
<path d="M135.182 221.658C134.905 218.587 133.866 215.093 133.57 213.018C133.167 210.104 132.393 207.019 132.689 204.118C132.709 203.91 132.798 203.716 132.94 203.569C133.683 202.817 134.691 202.009 135.962 201.147C139.358 198.847 142.241 196.955 144.613 195.471C147.37 193.749 148.938 191.743 151.752 189.958C157.515 186.304 161.5 183.685 163.708 182.099C168.132 178.929 171.34 176.793 173.334 175.691C174.763 174.903 176.822 173.358 177.779 172.449C177.841 172.39 177.885 172.315 177.906 172.232C177.927 172.149 177.925 172.062 177.899 171.98C177.874 171.899 177.826 171.827 177.761 171.773C177.696 171.719 177.617 171.684 177.533 171.674C176.921 171.594 176.388 171.562 175.934 171.579C167.515 171.903 160.774 171.911 155.712 171.604C154.747 171.55 153.899 171.268 153.169 170.759C153.109 170.717 153.059 170.664 153.02 170.603C152.982 170.541 152.956 170.473 152.945 170.401C152.934 170.33 152.938 170.257 152.955 170.187C152.973 170.118 153.005 170.053 153.049 169.996C153.796 169.016 154.401 168.074 154.862 167.17C155.605 165.715 156.197 164.767 156.638 164.326C160.44 160.478 162.776 155.161 165.93 150.797C169.343 146.079 171.767 141.847 175.21 137.097C177.943 133.326 180.824 128.868 183.854 123.726C184.059 123.374 184.302 123.044 184.578 122.742C186.524 120.604 188.066 117.343 190.415 114.826C191.959 116.601 192.987 118.712 193.5 121.159C193.558 121.441 193.833 123.802 194.324 128.242C194.824 132.754 194.958 136.811 194.727 140.415C194.601 142.303 194.219 146.281 193.581 152.348C193.346 154.598 192.88 156.782 192.184 158.901C191.227 161.822 190.849 164.698 189.741 167.523C188.362 171.018 186.159 176.852 183.961 180.775C180.318 187.28 175.739 193.661 170.224 199.917C166.371 204.288 161.378 207.732 156.367 210.665C155.985 210.888 154.388 211.968 151.576 213.907C146.518 217.388 141.054 219.972 135.182 221.658Z" fill="#B62224"/>
<path d="M223.612 256.386C223.49 256.508 223.184 256.506 222.693 256.38C203.701 251.426 186.106 246.967 169.909 243.002C169.813 242.979 169.725 242.931 169.653 242.863C169.582 242.795 169.53 242.709 169.503 242.613C169.476 242.518 169.475 242.417 169.5 242.322C169.525 242.226 169.575 242.139 169.645 242.069L183.628 228.06C183.69 227.999 183.738 227.925 183.768 227.843C183.799 227.761 183.811 227.674 183.804 227.586C183.798 227.499 183.772 227.413 183.73 227.336C183.688 227.259 183.629 227.192 183.558 227.139L172.906 219.344C172.818 219.281 172.746 219.198 172.695 219.102C172.644 219.006 172.617 218.9 172.614 218.791C172.612 218.682 172.635 218.574 172.681 218.475C172.727 218.376 172.796 218.289 172.881 218.221C175.013 216.531 177.219 214.544 179.498 212.261C181.773 209.973 183.752 207.761 185.435 205.625C185.502 205.54 185.589 205.471 185.687 205.424C185.786 205.377 185.894 205.353 186.002 205.355C186.111 205.357 186.217 205.384 186.313 205.434C186.409 205.484 186.492 205.556 186.555 205.644L194.356 216.304C194.408 216.374 194.475 216.433 194.552 216.475C194.629 216.518 194.714 216.543 194.802 216.55C194.889 216.556 194.976 216.544 195.058 216.514C195.14 216.483 195.214 216.435 195.275 216.373L209.233 202.346C209.302 202.276 209.389 202.225 209.484 202.2C209.579 202.174 209.679 202.175 209.774 202.201C209.869 202.228 209.955 202.279 210.024 202.35C210.093 202.421 210.141 202.508 210.164 202.604C214.152 218.826 218.632 236.447 223.606 255.465C223.732 255.957 223.734 256.264 223.612 256.386Z" fill="#5D5D5D"/>
</svg>
