<svg width="299" height="260" viewBox="0 0 299 260" fill="none" xmlns="http://www.w3.org/2000/svg">
<path d="M79.0834 46.3391C79.4551 44.51 76.9731 44.4343 75.9903 45.1722C75.0538 45.8744 73.9933 46.4063 72.809 46.768C70.2388 47.5437 68.3363 48.6349 65.5078 49.8648C65.1646 50.0115 64.839 50.1977 64.5376 50.4198L61.728 52.4697C61.6567 52.5201 61.583 52.5644 61.5075 52.6022C59.5589 53.5609 58.0743 54.4186 57.0537 55.1755C53.7527 57.6164 50.2501 59.9564 47.3712 62.7631C44.8955 65.1788 42.193 66.9511 40.2086 69.3542C36.9244 73.3319 34.3415 76.7967 32.4601 79.7485C30.0452 83.5413 27.5884 87.847 25.0895 92.6657C23.754 95.2349 22.807 97.3079 22.2484 98.8847C20.3648 104.164 19.6278 107.324 18.3427 113.044C17.7505 115.698 17.3809 118.279 17.2339 120.79C16.8728 127.08 16.921 133.436 17.3788 139.857C17.5174 141.778 17.7022 143.185 17.9332 144.076C18.9159 147.873 18.8151 151.09 20.264 154.742C21.3287 157.422 21.3287 160.601 22.8028 162.752C23.2186 163.364 23.8359 163.301 24.2769 162.752" stroke="#F19352" stroke-width="2"/>
<path d="M24.2769 162.752C24.365 165.926 24.9656 168.472 26.0785 170.39C28.989 175.419 30.7276 178.364 31.2946 179.226C32.9577 181.749 34.2344 183.463 35.1248 184.367C36.8803 186.145 38.7575 186.681 40.7566 185.975C45.5779 184.272 49.574 182.966 52.7448 182.058C54.5842 181.528 57.9188 180.284 62.7485 178.324C66.5325 176.785 70.6902 175.352 75.2217 174.023C75.294 174.001 75.3706 173.997 75.4448 174.012C75.5189 174.027 75.5883 174.06 75.6468 174.109C75.7054 174.157 75.7513 174.22 75.7804 174.291C75.8095 174.362 75.821 174.438 75.8139 174.515C75.7005 175.793 75.3792 176.96 74.8501 178.015C72.5885 182.544 71.1585 186.581 68.8402 190.983C66.6858 195.064 65.2873 198.413 63.2714 202.159C62.3391 203.896 61.6755 205.645 61.2807 207.407C61.2299 207.632 61.2594 207.867 61.3641 208.072C61.4689 208.278 61.6423 208.439 61.854 208.53C66.6417 210.561 70.3144 212.415 75.121 214.105C80.7024 216.069 86.5946 217.661 92.7976 218.88C96.3821 219.586 99.8406 219.378 104.698 219.498C115.21 219.75 125.451 218.19 135.421 214.818" stroke="#F28130" stroke-width="2"/>
<path d="M135.421 214.818C139.007 213.451 142.535 212.001 146.004 210.466C146.395 210.294 147.31 209.749 148.751 208.832C149.788 208.172 150.71 207.613 151.516 207.155C159.92 202.37 167.402 196.083 173.962 188.296C174.986 187.077 175.902 185.88 176.708 184.707C178.334 182.336 179.201 181.089 179.31 180.967C180.998 179.119 181.893 176.64 183.531 174.414C183.854 173.978 184.134 173.511 184.369 173.02L188.69 163.9C188.711 163.854 188.724 163.807 188.728 163.761C188.762 163.261 189.383 161.549 190.593 158.627C191.168 157.239 191.857 154.836 192.659 151.418C192.987 150.017 193.629 148.781 193.635 147.696C193.644 146.809 193.751 145.857 193.957 144.839C194.515 142.077 194.853 139.129 194.971 135.996C195.198 129.847 195.292 123.697 194.36 117.485C194.116 115.878 193.789 113.53 193.377 110.44C193.247 109.46 192.844 108.205 192.168 106.674" stroke="#E77A35" stroke-width="2"/>
<path d="M192.168 106.674C191.487 103.945 190.488 100.895 189.169 97.5223C188.867 96.7486 188.266 96.3344 187.367 96.2798C184.919 96.1326 182.599 96.3113 180.406 96.8159C178.508 97.249 177.032 97.5475 175.978 97.7115C168.935 98.7901 164.613 99.7488 161.533 99.6415C161.408 99.6381 161.286 99.6021 161.179 99.537C161.072 99.4719 160.984 99.38 160.924 99.2704C160.863 99.1608 160.832 99.0373 160.834 98.9121C160.836 98.787 160.871 98.6644 160.934 98.5567C162.144 96.5068 164.128 94.8228 165.438 92.6657C166.925 90.2185 169.243 87.5569 170.554 84.5862C170.593 84.4958 170.612 84.3976 170.608 84.2989C170.605 84.2003 170.579 84.1037 170.533 84.0164C170.487 83.9291 170.422 83.8533 170.343 83.7947C170.263 83.7361 170.172 83.6962 170.075 83.6779L163.07 82.3849C162.985 82.3694 162.904 82.3347 162.834 82.2836C162.765 82.2325 162.707 82.1662 162.667 82.0898C162.626 82.0134 162.603 81.9287 162.6 81.8422C162.597 81.7557 162.613 81.6695 162.648 81.5902C164.697 76.864 166.982 72.3648 169.502 68.0927C169.598 67.9305 169.635 67.7399 169.606 67.5536C169.577 67.3672 169.485 67.1966 169.344 67.071C166.274 64.3126 163.16 61.5816 160.002 58.8779C157.129 56.4222 154.952 54.8139 153.469 54.0528C146.155 50.3 137.348 45.8282 128.913 43.6522C124.163 42.4244 120.965 41.678 119.319 41.4131C110.017 39.9162 100.269 40.0781 90.0762 41.8988C85.8303 42.6556 82.0128 43.4062 79.0834 46.3391" stroke="#F28130" stroke-width="2"/>
<path d="M192.168 106.674C189.816 109.748 187.539 112.78 185.339 115.769C183.764 117.909 182.418 119.932 181.301 121.837C179.549 124.807 177.112 128.958 174.85 131.89C172.387 135.095 170.875 137.775 168.279 141.421C163.286 148.439 158.555 155.677 154.086 163.137C154.043 163.209 154.018 163.291 154.012 163.375C154.006 163.46 154.02 163.544 154.052 163.621C154.085 163.699 154.135 163.767 154.199 163.821C154.263 163.875 154.339 163.913 154.42 163.931C156.134 164.331 157.965 164.501 159.914 164.442C166.705 164.232 171.528 164.226 174.384 164.423C175.677 164.507 176.866 164.774 177.949 165.224C178.019 165.253 178.08 165.299 178.126 165.358C178.173 165.417 178.203 165.487 178.215 165.561C178.226 165.635 178.218 165.711 178.192 165.782C178.165 165.852 178.121 165.914 178.063 165.962C176.57 167.186 174.762 168.17 173.741 168.857C169.038 172.049 164.609 174.984 160.455 177.662C157.929 179.296 155.92 181.074 153.431 182.512C150.647 184.121 147.333 187.621 144.889 188.864C142.357 190.146 140.106 191.549 138.136 193.071C137.229 193.769 136.466 194.301 135.849 194.666C134.337 195.549 133.546 196.031 133.474 196.111C133.399 196.19 133.342 196.279 133.306 196.371C133.27 196.464 133.256 196.558 133.266 196.647L135.421 214.818" stroke="#E57324" stroke-width="2"/>
<path d="M230.192 151.14C230.192 151.315 230.238 151.486 230.324 151.638C230.41 151.79 230.534 151.917 230.683 152.007C230.833 152.097 231.003 152.147 231.177 152.152C231.352 152.157 231.524 152.117 231.679 152.036C239.452 147.905 244.593 144.65 251.63 140.784C255.246 138.799 259.168 136.39 263.397 133.556C264.613 132.748 266.629 131.821 267.946 131.354C268.039 131.32 268.122 131.263 268.187 131.187C268.252 131.111 268.295 131.019 268.314 130.921C268.332 130.823 268.325 130.722 268.292 130.627C268.26 130.533 268.203 130.449 268.128 130.383C266.358 128.831 265.249 127.879 263.227 126.712C258.502 123.979 255.212 122.018 253.356 120.828C247.988 117.371 243.679 115.176 237.342 111.379C235.242 110.118 233.081 108.957 230.86 107.898C230.776 107.857 230.683 107.838 230.59 107.843C230.497 107.849 230.406 107.878 230.328 107.927C230.249 107.977 230.184 108.047 230.139 108.129C230.095 108.211 230.072 108.303 230.072 108.396V125.236C230.072 125.361 230.046 125.485 229.995 125.598C229.943 125.712 229.868 125.813 229.775 125.896C229.681 125.978 229.571 126.04 229.452 126.076C229.332 126.112 229.207 126.123 229.083 126.107L209.353 123.578C209.234 123.563 209.114 123.571 208.999 123.603C208.884 123.635 208.777 123.69 208.683 123.764C208.589 123.838 208.511 123.93 208.453 124.034C208.395 124.138 208.358 124.253 208.345 124.372C207.946 128.098 207.956 131.964 208.376 135.971C208.389 136.09 208.437 136.203 208.515 136.295C208.592 136.387 208.695 136.454 208.811 136.488C209.596 136.703 210.279 136.787 210.859 136.741C213.311 136.539 216.677 136.11 220.957 135.454C223.773 135.019 226.608 134.066 229.512 134.098C229.693 134.1 229.866 134.173 229.993 134.302C230.121 134.43 230.192 134.604 230.192 134.785V151.14Z" stroke="#F28130" stroke-width="2"/>
<path d="M261.892 129.323C257.444 128.869 251.138 129.128 246.533 128.529C244.169 128.222 241.764 127.959 239.32 127.74C235.112 127.362 233.569 128.989 233.745 133.114C233.9 136.667 233.949 140.803 233.89 145.52C233.888 145.66 233.923 145.798 233.991 145.921C234.059 146.043 234.158 146.145 234.278 146.217C234.398 146.289 234.534 146.329 234.674 146.331C234.814 146.334 234.952 146.3 235.074 146.233C237.539 144.862 240.584 143.075 244.209 140.872C245.8 139.905 251.753 136.938 262.068 131.972C262.66 131.687 263.017 131.407 263.139 131.134C263.221 130.949 263.252 130.747 263.23 130.545C263.208 130.342 263.133 130.145 263.011 129.968C262.89 129.791 262.725 129.641 262.53 129.529C262.336 129.417 262.117 129.346 261.892 129.323Z" stroke="#E57324" stroke-width="2"/>
<path d="M232.377 0.979659C231.1 1.21382 229.852 1.61366 228.586 1.91002C204.832 7.98139 181.079 14.0533 157.325 20.1243C156.548 20.4113 156.199 21.4416 156.62 22.1503C157.118 22.8647 157.842 23.4022 158.43 24.0449C163.41 28.9859 168.385 33.9304 173.325 38.9106C171.341 40.3601 169.357 41.8096 167.373 43.2591C163.224 40.1879 158.763 37.559 154.132 35.2877C148.287 32.3295 142.247 29.7112 135.94 27.9077C130.066 26.1858 124.011 25.1252 117.917 24.593C114.819 24.3227 111.735 23.882 108.627 23.7405C104.22 23.6814 99.8128 23.9696 95.4309 24.4247C89.0646 25.108 82.7194 26.1874 76.5939 28.0855C72.1335 29.4562 67.806 31.2252 63.5187 33.0598C58.2358 35.3347 53.0884 37.965 48.3298 41.2112C42.5508 45.1115 37.1806 49.5983 32.1332 54.4032C30.9602 55.5106 29.8812 56.711 28.8971 57.9887C27.0175 60.1575 24.8441 62.0824 23.25 64.4897C21.1889 67.4315 19.0508 70.32 17.0436 73.2989C13.0201 79.4245 9.87855 86.0936 7.27907 92.936C6.11955 96.3495 5.08673 99.8052 4.05452 103.259C3.17393 106.203 2.54768 109.223 2.24488 112.283C1.76072 116.414 1.21555 120.538 0.770303 124.673C0.451186 129.261 0.743612 133.865 1.07356 138.443C1.49763 142.99 2.05676 147.531 2.92315 152.016C4.52908 160.239 7.29098 168.22 10.9875 175.733C16.1394 186.349 22.8691 196.237 31.1693 204.64C34.7347 208.24 38.5301 211.621 42.5776 214.669C44.2904 215.894 46.1426 216.924 47.7409 218.304C50.2497 220.198 53.0537 221.643 55.6987 223.33C58.8134 225.156 62.1971 226.389 65.4083 227.995C69.4311 229.875 73.687 231.19 77.9484 232.404C90.0823 235.782 102.812 237.009 115.364 235.958C120.363 235.534 125.344 234.813 130.237 233.7C132.647 233.125 134.972 232.25 137.364 231.605C140.633 230.684 143.852 229.585 146.973 228.243C154.18 225.222 160.999 221.333 167.459 216.946C167.93 216.679 168.292 217.281 168.65 217.489C170.234 218.759 171.823 220.023 173.418 221.28C167.929 226.786 162.417 232.272 156.943 237.791C156.254 238.574 156.737 239.961 157.762 240.151C164.108 241.651 170.42 243.269 176.714 245.024C178.873 245.646 181.096 246.281 183.331 246.698C184.108 246.852 184.883 247.009 185.659 247.168C186.109 247.273 186.751 247.404 187.272 247.537C189.275 248.057 191.223 248.772 193.236 249.261C197.568 250.348 201.926 251.337 206.251 252.455C211.333 253.738 216.434 254.951 221.475 256.39C223.564 257.002 225.736 257.239 227.849 257.734C229.475 258.402 231.166 259.006 232.928 259.153C233.869 259.085 234.543 258.039 234.21 257.154C227.893 232.275 221.575 207.396 215.258 182.517C214.984 181.493 213.563 181.084 212.796 181.82C207.296 187.319 201.803 192.826 196.305 198.327C194.952 196.453 193.55 194.581 192.227 192.706C199.656 182.61 205.238 171.158 208.592 159.074C209.152 157.086 209.645 155.079 210.091 153.062C211.361 152.867 212.631 152.672 213.901 152.478C213.909 161.424 213.886 170.372 213.912 179.316C213.987 180.313 215.176 180.984 216.068 180.535C216.715 180.197 217.09 179.488 217.741 179.133C220.703 177.681 223.466 175.866 226.277 174.147C233.587 169.813 240.892 165.47 248.225 161.175C250.946 159.505 253.552 157.638 256.414 156.207C262.881 152.674 269.008 148.559 275.452 144.983C283.016 140.636 290.411 136.005 297.932 131.586C298.911 130.987 298.987 129.409 298.043 128.744C294.861 126.8 291.633 124.923 288.433 123.006C264.306 108.653 240.179 94.3006 216.052 79.947C215.132 79.4255 213.855 80.2015 213.907 81.2627C213.907 89.9906 213.907 98.7184 213.907 107.446C212.605 107.274 211.299 107.118 210 106.935C209.689 106.689 209.81 106.186 209.676 105.84C208.538 99.9648 206.59 94.2721 204.158 88.8135C202.666 85.4224 201.252 81.9847 199.39 78.774C197.441 75.3309 195.32 71.9842 193.09 68.718C192.83 68.3302 192.431 68.0099 192.27 67.5703C192.619 66.7609 193.278 66.1259 193.762 65.394C194.609 64.2571 195.482 63.0949 196.341 61.9455C201.855 67.4558 207.35 72.9888 212.876 78.4848C213.672 79.1868 215.086 78.6801 215.25 77.6279C221.572 52.7807 227.907 27.9366 234.22 3.08741C234.445 1.99338 233.49 0.903139 232.377 0.979659ZM209.913 63.1676C205.435 58.6982 200.979 54.2032 196.486 49.7499C195.733 49.105 194.476 49.3748 194.007 50.2377C191.541 53.6936 189.076 57.1494 186.611 60.6052C183.616 57.1056 180.448 53.7481 176.994 50.696C176.243 50.0228 175.485 49.3562 174.721 48.6979C178.262 46.1572 181.82 43.637 185.351 41.0836C186.134 40.4499 186.085 39.1392 185.298 38.5266C180.92 34.1385 176.543 29.7504 172.165 25.3623C189.061 21.0478 205.957 16.7334 222.852 12.4189C218.539 29.3351 214.226 46.2513 209.913 63.1676ZM106.054 32.554C109.836 32.5693 113.592 32.7484 117.375 33.174C122.341 33.7236 127.303 34.6677 132.163 35.9972C139.345 37.9637 146.417 40.8283 152.988 44.4487C162.066 49.4335 170.321 55.8807 177.491 63.3511C177.288 63.7991 177.085 64.2471 176.881 64.6951C177.963 64.9835 179.146 65.114 180.019 65.8879C182.056 67.5336 183.409 69.8289 184.852 71.9758C185.972 73.7434 187.368 75.3207 188.403 77.1459C190.256 80.2211 191.445 83.6363 193.187 86.7713C193.689 87.7092 194.238 88.6204 194.785 89.5323C195.271 89.449 195.282 90.0123 195.478 90.3237C197.749 95.3167 199.572 100.515 200.85 105.852C201.527 108.513 202.114 111.201 202.744 113.893C203.024 114.665 203.835 115.073 204.622 115.077C210.112 115.782 215.603 116.486 221.093 117.191C221.613 117.197 222.117 116.926 222.369 116.465C222.703 115.832 222.49 115.062 222.551 114.369C222.551 107.528 222.551 100.687 222.551 93.8464C242.832 105.91 263.113 117.973 283.394 130.037C263.109 142.111 242.824 154.185 222.538 166.259C222.533 158.945 222.548 151.629 222.531 144.315C222.489 143.22 221.317 142.405 220.271 142.694C214.831 143.533 209.385 144.344 203.949 145.2C202.989 145.404 202.391 146.36 202.371 147.303C201.782 151.538 200.562 155.651 199.272 159.716C198.214 162.967 196.992 166.165 195.619 169.295C192.681 175.97 188.941 182.429 184.538 188.302C179.001 195.703 172.407 202.299 165.088 207.932C162.723 209.657 160.318 211.187 157.847 212.753C147.93 219.078 136.85 223.607 125.293 225.829C115.408 227.743 105.229 228.09 95.2278 226.968C94.0793 226.837 92.8481 226.675 91.7818 226.511C80.1381 224.768 68.8644 220.74 58.6674 214.863C56.8065 213.786 54.9563 212.682 53.1825 211.468C52.6147 210.944 52.0473 210.419 51.4797 209.895C51.3621 210.266 51.2606 210.718 50.8823 210.288C47.6151 208.091 45.0614 204.997 41.7497 202.858C40.9527 201.939 40.2043 200.952 39.1747 200.278C38.9598 200.105 38.6994 199.897 38.4387 199.673C36.9035 198.369 35.5961 196.825 34.3937 195.217C26.4116 186.468 20.1107 176.202 15.8714 165.142C13.7512 159.644 12.1329 153.954 11.0355 148.164C10.9021 147.444 10.7431 146.565 10.6175 145.781C10.4373 144.684 10.2788 143.58 10.1434 142.554C9.72221 139.264 9.46373 135.953 9.37444 132.637C9.35464 131.763 9.3399 130.739 9.34122 129.807C9.34942 128.142 9.39417 126.438 9.48479 124.829C9.54003 123.772 9.60993 122.782 9.69778 121.759C10.1496 116.453 11.0432 111.186 12.3495 106.025C12.5312 105.337 12.7484 104.489 12.9616 103.745C13.8955 100.398 15.0131 97.1035 16.2979 93.8759C16.6101 93.0957 16.9904 92.1782 17.3452 91.3522C17.5757 90.8204 17.8713 90.1455 18.1214 89.6035C23.2641 78.2647 30.5979 67.9255 39.6348 59.365C47.4766 51.9029 56.5173 45.6802 66.3866 41.223C67.5492 40.6986 68.6171 40.2396 69.8014 39.756C72.1028 38.8143 74.4443 37.9727 76.8097 37.2069C77.4807 36.9968 78.3071 36.7312 79.0446 36.5201C80.5728 36.0666 82.1452 35.6433 83.6405 35.2759C85.2136 34.8865 86.8316 34.5286 88.3677 34.2266C89.2067 34.054 89.9828 33.9174 90.8522 33.7588C91.8254 33.5977 92.934 33.4018 93.9669 33.2675C95.7652 33.0212 97.574 32.857 99.3849 32.7388C100.263 32.6854 101.289 32.6351 102.226 32.6072C103.457 32.5668 104.78 32.5507 106.054 32.554ZM222.868 247.775C206 243.47 189.131 239.164 172.262 234.859C176.617 230.49 180.992 226.137 185.335 221.758C186.028 220.988 185.749 219.683 184.866 219.182C181.474 216.578 178.082 213.974 174.69 211.369C176.859 209.782 178.7 207.809 180.648 205.97C182.718 203.954 184.751 201.899 186.717 199.781C189.197 203.166 191.65 206.574 194.148 209.945C194.885 210.843 196.392 210.791 197.111 209.894C201.399 205.599 205.687 201.303 209.975 197.008C214.273 213.93 218.57 230.853 222.868 247.775Z" fill="black"/>
<path d="M224.189 11.0816C224.222 11.1152 224.247 11.1489 224.264 11.1825C224.344 11.4012 224.352 11.6345 224.289 11.8826C220.253 27.6886 215.739 45.3951 210.745 65.0022C210.729 65.0654 210.697 65.1232 210.651 65.1696C210.605 65.216 210.548 65.2493 210.485 65.266C210.422 65.2827 210.355 65.2823 210.293 65.2647C210.23 65.2472 210.173 65.2132 210.128 65.1662L195.746 50.773C195.705 50.7317 195.657 50.6997 195.603 50.6792C195.549 50.6588 195.491 50.6504 195.433 50.6546C195.376 50.6588 195.32 50.6755 195.269 50.7036C195.219 50.7317 195.175 50.7704 195.141 50.8172L187.159 62.0062C187.106 62.0824 187.035 62.1452 186.954 62.1899C186.872 62.2346 186.781 62.2601 186.688 62.2644C186.595 62.2686 186.503 62.2516 186.417 62.2145C186.332 62.1774 186.256 62.1213 186.196 62.0504C183.84 59.3004 181.784 57.0467 180.028 55.289C178.273 53.5272 176.022 51.469 173.275 49.1142C173.204 49.0537 173.148 48.9779 173.111 48.8924C173.074 48.8069 173.057 48.714 173.061 48.6209C173.066 48.5279 173.091 48.437 173.136 48.3552C173.18 48.2735 173.243 48.203 173.319 48.1492L184.495 40.158C184.541 40.124 184.58 40.0802 184.608 40.0297C184.636 39.9792 184.653 39.9231 184.657 39.8655C184.661 39.8078 184.653 39.7499 184.632 39.6959C184.612 39.6418 184.58 39.5929 184.539 39.5525L170.169 25.1467C170.122 25.1015 170.088 25.0445 170.071 24.9817C170.053 24.9189 170.053 24.8525 170.07 24.7894C170.086 24.7264 170.12 24.669 170.166 24.6231C170.212 24.5773 170.27 24.5446 170.333 24.5286C189.917 19.5333 207.602 15.0173 223.388 10.9807C223.636 10.9176 223.869 10.9281 224.088 11.0122C224.121 11.0248 224.155 11.048 224.189 11.0816Z" fill="#5D5D5D"/>
<path d="M200.754 100.682C201.598 103.474 202.648 107.702 203.904 113.366C203.948 113.58 204.125 113.742 204.345 113.77L221.108 115.921C221.206 115.932 221.291 115.855 221.291 115.757V91.8773C221.289 91.7702 221.408 91.7036 221.505 91.7575L285.351 129.733C285.579 129.871 285.579 130.202 285.351 130.339L221.795 168.17C221.566 168.309 221.274 168.141 221.278 167.873V144.454C221.278 144.119 220.98 143.862 220.648 143.912L204.313 146.41C203.985 146.462 203.729 146.723 203.683 147.053C203.414 149.013 203.068 150.842 202.644 152.54C196.962 175.297 184.94 193.912 166.579 208.385C165.008 209.621 162.188 211.517 158.118 214.074C143.041 223.56 126.551 228.484 108.647 228.845C88.4299 229.257 69.7726 223.865 52.6755 212.667C47.8217 210.998 38.315 203.078 33.5436 196.155C25.2911 187.102 18.9621 176.796 14.5566 165.237C3.3622 135.845 6.83958 103.035 23.7603 76.6012C29.6777 67.3632 37.0798 59.2332 45.9664 52.2111C59.2544 41.7159 74.6884 35.0596 92.2685 32.2424C97.2704 31.4393 103.081 31.1449 109.699 31.3594C136.12 32.2172 160.027 43.3368 178.428 62.5045C192.055 74.2655 200.458 96.4488 200.754 100.682ZM79.0834 46.3391C79.4551 44.51 76.9731 44.4343 75.9903 45.1722C75.0538 45.8744 73.9933 46.4063 72.809 46.768C70.2388 47.5438 68.3363 48.6349 65.5078 49.8648C65.1646 50.0115 64.8391 50.1977 64.5376 50.4199L61.728 52.4697C61.6567 52.5201 61.583 52.5644 61.5075 52.6022C59.5589 53.5609 58.0743 54.4186 57.0537 55.1755C53.7527 57.6164 50.2501 59.9564 47.3712 62.7631C44.8955 65.1788 42.193 66.9511 40.2086 69.3542C36.9244 73.332 34.3416 76.7967 32.4601 79.7485C30.0452 83.5413 27.5884 87.847 25.0895 92.6658C23.754 95.2349 22.807 97.3079 22.2484 98.8847C20.3648 104.164 19.6278 107.324 18.3427 113.044C17.7505 115.698 17.3809 118.279 17.2339 120.79C16.8728 127.08 16.921 133.436 17.3788 139.857C17.5174 141.778 17.7022 143.185 17.9332 144.076C18.9159 147.873 18.8151 151.09 20.264 154.742C21.3287 157.422 21.3287 160.601 22.8028 162.752C23.2186 163.364 23.8359 163.301 24.2769 162.752C24.3651 165.926 24.9656 168.472 26.0786 170.39C28.989 175.419 30.7277 178.364 31.2946 179.226C32.9577 181.749 34.2345 183.463 35.1248 184.367C36.8803 186.145 38.7576 186.681 40.7566 185.975C85.2946 170.801 70.0417 170.827 61.2808 207.407C61.1758 207.871 62.1209 208.035 62.5579 208.221C67.3456 210.252 70.3144 212.415 75.121 214.105C80.7024 216.069 86.5947 217.661 92.7977 218.88C96.3821 219.586 99.8406 219.378 104.698 219.498C115.21 219.75 125.451 218.19 135.421 214.818C139.007 213.451 142.535 212.001 146.004 210.466C146.395 210.294 147.31 209.749 148.751 208.832C149.788 208.172 150.71 207.613 151.516 207.155C159.92 202.37 167.402 196.083 173.962 188.296C174.986 187.077 175.902 185.88 176.708 184.707C178.334 182.336 179.201 181.089 179.31 180.967C180.998 179.119 181.893 176.64 183.531 174.414C183.854 173.978 184.134 173.511 184.369 173.02L188.69 163.9C188.711 163.854 188.724 163.807 188.728 163.761C188.762 163.261 189.383 161.549 190.593 158.627C191.168 157.239 191.857 154.836 192.659 151.418C192.987 150.017 193.629 148.781 193.635 147.696C193.644 146.809 193.751 145.857 193.957 144.839C194.515 142.077 194.853 139.129 194.971 135.996C195.198 129.847 195.292 123.697 194.36 117.485C194.116 115.878 193.789 113.53 193.377 110.44C193.247 109.46 192.844 108.205 192.168 106.674C191.487 103.945 190.488 100.895 189.169 97.5223C188.867 96.7486 188.266 96.3345 187.367 96.2798C184.919 96.1326 182.599 96.3113 180.406 96.8159C178.508 97.249 177.032 97.5476 175.978 97.7115C168.935 98.7901 164.613 99.7488 161.533 99.6416C160.985 99.6265 160.655 99.0285 160.934 98.5567C162.144 96.5069 164.128 94.8228 165.438 92.6658C166.925 90.2185 169.243 87.5569 170.554 84.5862C170.723 84.1997 170.489 83.756 170.075 83.6779L163.07 82.3849C162.706 82.3184 162.499 81.9294 162.648 81.5902C164.697 76.864 166.982 72.3648 169.502 68.0927C169.7 67.7582 169.634 67.3301 169.344 67.071C166.274 64.3126 163.16 61.5816 160.002 58.8779C157.129 56.4223 154.952 54.8139 153.469 54.0528C146.155 50.3 137.348 45.8282 128.913 43.6522C124.163 42.4244 120.965 41.678 119.319 41.4131C110.017 39.9162 100.269 40.0781 90.0762 41.8988C85.8303 42.6556 82.0127 43.4062 79.0834 46.3391ZM230.192 151.14C230.194 151.903 231.004 152.391 231.679 152.036C239.452 147.905 244.593 144.65 251.63 140.784C255.246 138.799 259.168 136.39 263.397 133.556C264.613 132.748 266.629 131.821 267.946 131.354C268.356 131.206 268.456 130.671 268.128 130.383C266.358 128.831 265.249 127.879 263.227 126.712C258.502 123.979 255.212 122.018 253.356 120.828C247.988 117.371 243.679 115.176 237.342 111.379C235.242 110.118 233.081 108.957 230.86 107.898C230.494 107.72 230.069 107.989 230.072 108.396V125.236C230.073 125.766 229.608 126.175 229.083 126.107L209.353 123.578C208.854 123.515 208.401 123.872 208.345 124.372C207.946 128.098 207.957 131.964 208.376 135.971C208.403 136.215 208.574 136.419 208.811 136.488C209.597 136.703 210.279 136.787 210.859 136.741C213.311 136.539 216.677 136.11 220.957 135.454C223.773 135.019 226.608 134.066 229.512 134.098C229.888 134.101 230.192 134.408 230.192 134.785V151.14Z" fill="#F48840"/>
<path d="M192.168 106.674C189.816 109.748 187.539 112.78 185.339 115.769C183.764 117.909 182.418 119.932 181.301 121.837C179.549 124.807 177.112 128.958 174.85 131.89C172.387 135.095 170.875 137.775 168.279 141.421C163.286 148.439 158.555 155.677 154.086 163.137C153.901 163.449 154.07 163.852 154.42 163.931C156.134 164.331 157.965 164.501 159.914 164.442C166.705 164.232 171.528 164.226 174.384 164.423C175.677 164.507 176.866 164.774 177.949 165.224C178.253 165.348 178.315 165.752 178.063 165.962C176.57 167.186 174.762 168.17 173.741 168.857C169.038 172.049 164.609 174.984 160.455 177.662C157.929 179.296 155.92 181.074 153.431 182.512C150.647 184.121 147.333 187.621 144.889 188.864C142.357 190.146 140.106 191.549 138.136 193.071C137.229 193.769 136.466 194.301 135.849 194.666C134.337 195.549 133.546 196.031 133.474 196.111C133.323 196.27 133.246 196.467 133.266 196.647L135.421 214.818C125.451 218.19 115.21 219.75 104.698 219.498C99.8406 219.378 96.3821 219.586 92.7976 218.88C86.5946 217.66 80.7024 216.069 75.1209 214.105C40.4326 200.34 39.2961 191.296 35.1248 184.367C34.2344 183.463 32.9577 181.749 31.2946 179.226C30.7276 178.364 28.989 175.419 26.0785 170.39C24.9656 168.472 24.365 165.926 24.2769 162.752C24.7367 161.2 25.0643 159.491 25.5746 158.053C27.855 151.632 29.8163 145.31 31.4584 139.087C32.1325 136.558 33.0963 134.426 33.9215 131.487C35.2277 126.849 36.6703 122.209 38.2494 117.567C38.8751 115.729 39.4085 113.988 39.8495 112.344C40.7146 109.115 41.2081 107.357 41.3299 107.071C42.363 104.633 43.2408 101.801 43.9631 98.5756C44.3453 96.8769 44.8976 95.1361 45.6199 93.3532C46.6404 90.8366 47.3649 86.6045 49.4312 83.8104C51.8796 80.497 53.9144 77.9825 55.5355 76.2669C56.155 75.6131 56.6982 74.8915 57.1545 74.1161C59.7373 69.7011 63.8321 65.5005 66.9063 61.6467C70.4004 57.2653 72.2021 55.0094 72.3113 54.8791C72.4499 54.7235 73.5355 53.2665 75.5682 50.5081C76.6517 49.0449 77.8235 47.6552 79.0834 46.3391C82.0127 43.4062 85.8303 42.6556 90.0762 41.8988C100.269 40.0781 110.017 39.9162 119.319 41.4131C120.965 41.678 124.163 42.4244 128.913 43.6522C137.348 45.8282 146.155 50.3 153.469 54.0528C154.952 54.8139 157.129 56.4222 160.002 58.8778C163.16 61.5816 166.274 64.3126 169.344 67.071C169.634 67.3301 169.7 67.7582 169.502 68.0927C182.513 80.5753 187.844 89.9128 192.168 106.674Z" fill="#F0791F"/>
<path d="M79.0834 46.3391C77.8235 47.6552 76.6518 49.0449 75.5682 50.5081C73.5356 53.2665 72.4499 54.7235 72.3114 54.8791C72.2022 55.0094 70.4005 57.2653 66.9063 61.6467C63.8321 65.5005 59.7373 69.7011 57.1545 74.1161C56.6982 74.8915 56.1551 75.6131 55.5355 76.2669C53.9144 77.9825 51.8796 80.497 49.4312 83.8104C47.3649 86.6045 46.6405 90.8366 45.6199 93.3532C44.8976 95.1361 44.3453 96.8769 43.9631 98.5756C43.2408 101.801 42.363 104.633 41.3299 107.071C41.2081 107.357 40.7146 109.115 39.8495 112.344C39.4085 113.988 38.8752 115.729 38.2494 117.567C36.6703 122.209 35.2277 126.849 33.9216 131.487C33.0963 134.426 32.1325 136.558 31.4584 139.087C29.8163 145.31 27.8551 151.632 25.5746 158.053C25.0643 159.491 24.7368 161.2 24.2769 162.752C23.8359 163.301 23.2186 163.364 22.8028 162.752C21.3287 160.601 21.3287 157.422 20.264 154.742C18.8151 151.09 18.9159 147.873 17.9332 144.076C17.7022 143.185 17.5174 141.778 17.3788 139.857C16.921 133.436 16.8728 127.08 17.2339 120.79C17.3809 118.279 17.7505 115.698 18.3427 113.044C19.6278 107.324 20.3648 104.164 22.2484 98.8847C22.807 97.3079 23.754 95.2349 25.0895 92.6657C27.5884 87.847 30.0452 83.5413 32.4601 79.7485C34.3415 76.7967 36.9244 73.3319 40.2086 69.3542C42.193 66.9511 44.8955 65.1788 47.3712 62.7631C50.2501 59.9564 53.7527 57.6164 57.0537 55.1755C58.0743 54.4186 59.5589 53.5609 61.5075 52.6022C61.583 52.5644 61.6567 52.5201 61.728 52.4697L64.5376 50.4198C64.839 50.1977 65.1646 50.0115 65.5078 49.8648C68.3363 48.6349 70.2388 47.5437 72.809 46.768C73.9933 46.4063 75.0538 45.8744 75.9903 45.1722C76.9731 44.4343 79.4551 44.51 79.0834 46.3391Z" fill="#EE9D63"/>
<path d="M192.168 106.674C192.844 108.205 193.247 109.46 193.377 110.44C193.789 113.53 194.116 115.878 194.36 117.485C195.292 123.697 195.198 129.847 194.971 135.996C194.853 139.129 194.515 142.077 193.957 144.839C193.751 145.857 193.644 146.809 193.635 147.696C193.629 148.781 192.987 150.017 192.659 151.418C191.857 154.836 191.168 157.239 190.593 158.627C189.383 161.549 188.762 163.261 188.728 163.761C188.724 163.807 188.711 163.854 188.69 163.9L184.369 173.02C184.134 173.511 183.853 173.978 183.531 174.414C181.893 176.64 180.998 179.119 179.31 180.967C179.201 181.089 178.334 182.336 176.708 184.707C175.902 185.88 174.986 187.077 173.962 188.296C167.402 196.083 159.92 202.37 151.516 207.155C150.71 207.613 149.788 208.172 148.751 208.832C147.31 209.749 146.395 210.294 146.004 210.466C142.535 212.001 139.007 213.451 135.421 214.818L133.266 196.647C133.256 196.558 133.27 196.464 133.306 196.371C133.342 196.279 133.399 196.19 133.474 196.111C133.546 196.031 134.337 195.549 135.849 194.666C136.466 194.301 137.229 193.769 138.136 193.071C140.106 191.549 142.357 190.146 144.889 188.864C147.333 187.621 150.647 184.121 153.431 182.512C155.92 181.074 157.929 179.296 160.455 177.662C164.609 174.984 169.038 172.049 173.741 168.857C174.762 168.17 176.57 167.186 178.063 165.962C178.121 165.914 178.165 165.852 178.192 165.782C178.218 165.711 178.226 165.635 178.215 165.561C178.203 165.487 178.173 165.417 178.126 165.358C178.08 165.299 178.019 165.253 177.949 165.224C176.866 164.774 175.677 164.507 174.384 164.423C171.528 164.226 166.705 164.232 159.914 164.442C157.965 164.501 156.134 164.331 154.42 163.931C154.339 163.913 154.263 163.875 154.199 163.821C154.135 163.767 154.085 163.699 154.052 163.621C154.02 163.544 154.006 163.46 154.012 163.375C154.018 163.291 154.043 163.209 154.086 163.137C158.555 155.677 163.286 148.439 168.279 141.421C170.875 137.775 172.387 135.095 174.85 131.89C177.112 128.958 179.549 124.807 181.301 121.837C182.418 119.932 183.764 117.909 185.339 115.769C187.539 112.78 189.816 109.748 192.168 106.674Z" fill="#DA6C29"/>
<path d="M230.192 151.14V134.785C230.192 134.604 230.121 134.43 229.993 134.302C229.866 134.173 229.693 134.1 229.512 134.098C226.608 134.066 223.773 135.019 220.957 135.454C216.677 136.11 213.311 136.539 210.859 136.741C210.279 136.787 209.596 136.703 208.811 136.488C208.695 136.454 208.592 136.387 208.515 136.295C208.437 136.203 208.389 136.09 208.376 135.971C207.956 131.964 207.946 128.098 208.345 124.372C208.358 124.253 208.395 124.139 208.453 124.034C208.511 123.93 208.589 123.838 208.683 123.764C208.777 123.69 208.884 123.635 208.999 123.603C209.114 123.571 209.234 123.563 209.353 123.578L229.083 126.107C229.207 126.123 229.332 126.112 229.452 126.076C229.571 126.04 229.681 125.978 229.775 125.896C229.868 125.813 229.943 125.712 229.995 125.598C230.046 125.485 230.072 125.361 230.072 125.236V108.396C230.072 108.303 230.095 108.211 230.139 108.129C230.184 108.047 230.249 107.977 230.328 107.927C230.406 107.878 230.497 107.849 230.59 107.843C230.683 107.838 230.776 107.857 230.86 107.898C233.081 108.957 235.242 110.118 237.342 111.379C243.679 115.176 247.988 117.371 253.356 120.828C255.212 122.018 258.502 123.979 263.227 126.712C265.249 127.879 266.358 128.831 268.128 130.383C268.203 130.449 268.26 130.533 268.292 130.627C268.325 130.722 268.332 130.823 268.314 130.921C268.295 131.019 268.252 131.111 268.187 131.187C268.122 131.263 268.039 131.32 267.946 131.354C266.629 131.821 264.613 132.748 263.397 133.556C259.168 136.39 255.246 138.799 251.63 140.784C244.593 144.65 239.452 147.905 231.679 152.036C231.524 152.117 231.352 152.157 231.177 152.152C231.003 152.147 230.833 152.097 230.683 152.007C230.534 151.917 230.41 151.79 230.324 151.638C230.238 151.486 230.192 151.315 230.192 151.14ZM261.892 129.323C257.444 128.869 251.138 129.128 246.533 128.529C244.169 128.222 241.764 127.959 239.32 127.74C235.112 127.362 233.569 128.989 233.745 133.114C233.9 136.667 233.949 140.803 233.89 145.52C233.888 145.66 233.923 145.798 233.991 145.921C234.059 146.043 234.158 146.145 234.278 146.217C234.397 146.289 234.534 146.329 234.674 146.331C234.814 146.334 234.952 146.3 235.074 146.233C237.539 144.862 240.584 143.075 244.209 140.872C245.8 139.905 251.753 136.938 262.068 131.972C262.66 131.687 263.017 131.407 263.139 131.134C263.221 130.949 263.252 130.747 263.23 130.545C263.208 130.342 263.133 130.145 263.011 129.968C262.89 129.791 262.725 129.641 262.53 129.529C262.336 129.417 262.117 129.346 261.892 129.323Z" fill="#F0791F"/>
<path d="M261.892 129.323C262.117 129.346 262.336 129.417 262.53 129.529C262.725 129.641 262.89 129.791 263.011 129.968C263.133 130.145 263.208 130.342 263.23 130.545C263.252 130.747 263.221 130.949 263.139 131.134C263.017 131.407 262.66 131.687 262.068 131.972C251.753 136.938 245.8 139.905 244.209 140.872C240.584 143.075 237.539 144.862 235.074 146.233C234.952 146.3 234.814 146.334 234.674 146.331C234.534 146.329 234.398 146.289 234.278 146.217C234.158 146.145 234.059 146.043 233.991 145.921C233.923 145.798 233.888 145.66 233.89 145.52C233.949 140.803 233.9 136.667 233.745 133.114C233.569 128.989 235.112 127.362 239.32 127.74C241.764 127.959 244.169 128.222 246.533 128.529C251.138 129.128 257.444 128.869 261.892 129.323Z" fill="#DA6C29"/>
<path d="M170.264 235.651C170.218 235.638 170.176 235.614 170.142 235.581C170.108 235.547 170.083 235.506 170.07 235.46C170.058 235.415 170.057 235.367 170.069 235.322C170.081 235.277 170.105 235.236 170.138 235.203L184.344 220.98C184.386 220.937 184.419 220.886 184.44 220.829C184.461 220.772 184.47 220.712 184.466 220.651C184.461 220.59 184.444 220.531 184.416 220.477C184.387 220.422 184.347 220.375 184.299 220.337L173.168 211.791C173.098 211.738 173.043 211.669 173.005 211.59C172.967 211.511 172.949 211.424 172.951 211.336C172.954 211.248 172.977 211.162 173.019 211.084C173.061 211.006 173.121 210.939 173.193 210.889C174.344 210.094 175.367 209.274 176.261 208.429C180.276 204.644 183.569 201.352 186.139 198.552C186.224 198.461 186.327 198.39 186.442 198.343C186.558 198.297 186.682 198.277 186.806 198.284C186.929 198.291 187.05 198.326 187.159 198.385C187.268 198.445 187.363 198.527 187.437 198.627L195.04 209.053C195.098 209.134 195.173 209.201 195.26 209.25C195.346 209.298 195.443 209.328 195.542 209.335C195.641 209.343 195.741 209.329 195.835 209.295C195.929 209.26 196.015 209.206 196.086 209.135L210.392 194.805C210.418 194.78 210.45 194.761 210.486 194.752C210.521 194.743 210.558 194.743 210.593 194.753C210.628 194.762 210.66 194.781 210.685 194.807C210.711 194.833 210.729 194.865 210.739 194.9L224.434 248.827C224.453 248.897 224.453 248.972 224.434 249.043C224.414 249.113 224.377 249.178 224.325 249.23C224.273 249.282 224.208 249.32 224.136 249.34C224.065 249.36 223.99 249.361 223.918 249.344L170.264 235.651Z" fill="#5D5D5D"/>
</svg>
