<svg width="512" height="512" viewBox="0 0 512 512" fill="none" xmlns="http://www.w3.org/2000/svg">
<path d="M330.045 108.938C328.878 111.427 327.155 113.507 324.876 115.177C320.037 118.723 315.247 122.286 310.504 125.867C307.556 128.103 306.358 131.012 306.911 134.592C306.964 134.946 307.12 135.279 307.361 135.553C310.63 139.195 314.182 142.287 318.017 144.831C318.303 145.02 318.645 145.108 318.988 145.081C319.332 145.053 319.656 144.911 319.911 144.677C324.876 140.115 329.564 132.352 332.287 128.454C334.737 124.943 338.005 122.808 342.093 122.051C342.453 121.986 342.821 122.063 343.117 122.266C345.089 123.643 346.178 124.445 346.382 124.67C350.845 129.573 356.011 134.145 361.88 138.387C361.974 138.454 362.083 138.498 362.197 138.516C362.311 138.534 362.428 138.524 362.537 138.488C362.646 138.452 362.745 138.391 362.825 138.309C362.904 138.227 362.963 138.128 362.996 138.018C364.784 132.358 366.234 126.098 367.346 119.238C368.247 113.715 370.837 107.537 372.27 100.796C373.116 96.8202 374.249 92.5173 375.669 87.887C375.88 87.1915 376.72 83.4068 378.187 76.5331C378.995 72.7484 377.214 70.181 373.12 71.3471C362.136 74.4669 356.383 75.7966 343.332 78.9266C334.754 80.9724 327.537 83.8569 318.775 85.2787C316.905 85.5787 314.8 86.4209 312.459 87.8052C312.141 87.997 311.895 88.2924 311.763 88.644C311.49 89.3873 311.483 90.2158 311.742 91.1296C311.789 91.277 311.871 91.4044 311.978 91.4978L329.595 106.81C329.89 107.07 330.093 107.418 330.174 107.801C330.255 108.185 330.21 108.583 330.045 108.938Z" fill="black" stroke="#D12226"/>
<path d="M149.915 117.96C149.069 117.966 148.24 118.11 147.428 118.389C117.196 128.836 92.8505 146.938 74.3909 172.694C64.8096 186.053 57.9342 200.168 53.7646 215.041C44.6883 247.425 46.4558 279.462 59.067 311.151" fill="black"/>
<path d="M149.915 117.96C149.069 117.966 148.24 118.11 147.428 118.389C117.196 128.836 92.8505 146.938 74.3909 172.694C64.8096 186.053 57.9342 200.168 53.7646 215.041C44.6883 247.425 46.4558 279.462 59.067 311.151" stroke="#DB4246"/>
<path d="M59.0674 311.151C63.5236 319.92 66.9835 326.552 69.4471 331.046C74.0535 339.474 80.2363 347.729 87.7395 354.879C99.2145 365.813 111.416 376.114 125.102 383.744C126.843 384.719 131.998 387.099 140.57 390.884C150.939 395.467 160.121 397.666 170.245 399.589C181.188 401.675 183.88 394.382 187.145 386.128C189.1 381.187 193.451 375.183 194.884 371.122C198.139 361.902 202.329 352.659 207.454 343.392C207.549 343.22 207.686 343.074 207.852 342.97C208.019 342.866 208.21 342.807 208.406 342.797C208.602 342.788 208.798 342.83 208.973 342.918C209.149 343.005 209.299 343.137 209.409 343.3C210.085 344.289 210.696 345.38 211.242 346.573C215.357 355.547 218.411 363.774 220.403 371.255C222.01 377.31 223.597 380.379 226.187 386.404C226.48 387.093 227.101 389.237 228.05 392.838C228.125 393.129 228.242 393.405 228.398 393.656C228.876 394.413 229.647 395.173 230.711 395.937C231.482 396.489 232.636 396.5 234.171 395.968C236.805 395.054 239.269 393.895 241.562 392.49" fill="black"/>
<path d="M59.0674 311.151C63.5236 319.92 66.9835 326.552 69.4471 331.046C74.0535 339.474 80.2363 347.729 87.7395 354.879C99.2145 365.813 111.416 376.114 125.102 383.744C126.843 384.719 131.998 387.099 140.57 390.884C150.939 395.467 160.121 397.666 170.245 399.589C181.188 401.675 183.88 394.382 187.145 386.128C189.1 381.187 193.451 375.183 194.884 371.122C198.139 361.902 202.329 352.659 207.454 343.392C207.549 343.22 207.686 343.074 207.852 342.97C208.019 342.866 208.21 342.807 208.406 342.797C208.602 342.788 208.798 342.83 208.973 342.918C209.149 343.005 209.299 343.137 209.409 343.3C210.085 344.289 210.696 345.38 211.242 346.573C215.357 355.547 218.411 363.774 220.403 371.255C222.01 377.31 223.597 380.379 226.187 386.404C226.48 387.093 227.101 389.237 228.05 392.838C228.125 393.129 228.242 393.405 228.398 393.656C228.876 394.413 229.647 395.173 230.711 395.937C231.482 396.489 232.636 396.5 234.171 395.968C236.805 395.054 239.269 393.895 241.562 392.49" stroke="#D12226"/>
<path d="M241.562 392.49C251.109 389.755 259.994 385.565 268.218 379.919C272.79 376.775 275.387 375.023 276.008 374.661C284.156 369.905 292.273 364.32 298.538 357.231C307.505 347.084 314.95 336.736 320.874 326.187C324.446 319.825 328.029 310.363 330.271 304.696C332.072 300.114 332.686 295.449 334.242 290.714C335.375 287.277 336.133 283.734 336.515 280.086C337.552 270.246 338.173 263.795 338.378 260.733C338.753 254.889 338.535 248.308 337.723 240.991C336.924 233.79 336.477 229.961 336.382 229.504C335.549 225.536 333.877 222.113 331.366 219.235" fill="black"/>
<path d="M241.562 392.49C251.109 389.755 259.994 385.565 268.218 379.919C272.79 376.775 275.387 375.023 276.008 374.661C284.156 369.905 292.273 364.32 298.538 357.231C307.505 347.084 314.95 336.736 320.874 326.187C324.446 319.825 328.029 310.363 330.271 304.696C332.072 300.114 332.686 295.449 334.242 290.714C335.375 287.277 336.133 283.734 336.515 280.086C337.552 270.246 338.173 263.795 338.378 260.733C338.753 254.889 338.535 248.308 337.723 240.991C336.924 233.79 336.477 229.961 336.382 229.504C335.549 225.536 333.877 222.113 331.366 219.235" stroke="#BF2226"/>
<path d="M331.366 219.235C331.264 215.471 331.042 213.012 330.701 211.86C326.586 197.894 320.195 184.948 311.528 173.021C303.83 162.431 295.801 153.45 287.442 146.078C287.183 145.854 286.902 145.655 286.602 145.485C280.535 142.048 274.428 137.848 268.279 132.883C262.536 128.239 257.643 126.194 250.55 124.496C250.385 124.457 250.215 124.453 250.051 124.483C249.887 124.513 249.732 124.576 249.598 124.67C244.582 128.147 239.423 134.929 235.922 140.34C232.721 145.264 230.763 148.1 230.046 148.85C227.398 151.612 224.918 153.989 222.604 155.98C222.467 156.096 222.303 156.178 222.128 156.217C221.952 156.257 221.77 156.253 221.596 156.207C221.422 156.161 221.261 156.073 221.129 155.952C220.996 155.83 220.895 155.679 220.833 155.509C219.66 152.243 218.397 147.538 217.046 141.394C215.988 136.613 213.753 133.538 210.341 132.167C210.195 132.11 210.035 132.097 209.88 132.13C209.726 132.162 209.583 132.24 209.471 132.351L205.356 136.453C205.264 136.547 205.151 136.617 205.026 136.658C204.902 136.698 204.769 136.709 204.64 136.688C204.511 136.667 204.388 136.615 204.283 136.537C204.178 136.458 204.093 136.356 204.035 136.238C203.073 134.295 202.524 133.125 202.387 132.73C200.606 127.445 198.603 122.46 196.379 117.775C194.618 114.052 191.714 112.105 187.667 111.935C183.184 111.744 178.994 111.928 175.097 112.487C166.362 113.742 157.968 115.566 149.916 117.96" fill="black"/>
<path d="M331.366 219.235C331.264 215.471 331.042 213.012 330.701 211.86C326.586 197.894 320.195 184.948 311.528 173.021C303.83 162.431 295.801 153.45 287.442 146.078C287.183 145.854 286.902 145.655 286.602 145.485C280.535 142.048 274.428 137.848 268.279 132.883C262.536 128.239 257.643 126.194 250.55 124.496C250.385 124.457 250.215 124.453 250.051 124.483C249.887 124.513 249.732 124.576 249.598 124.67C244.582 128.147 239.423 134.929 235.922 140.34C232.721 145.264 230.763 148.1 230.046 148.85C227.398 151.612 224.918 153.989 222.604 155.98C222.467 156.096 222.303 156.178 222.128 156.217C221.952 156.257 221.77 156.253 221.596 156.207C221.422 156.161 221.261 156.073 221.129 155.952C220.996 155.83 220.895 155.679 220.833 155.509C219.66 152.243 218.397 147.538 217.046 141.394C215.988 136.613 213.753 133.538 210.341 132.167C210.195 132.11 210.035 132.097 209.88 132.13C209.726 132.162 209.583 132.24 209.471 132.351L205.356 136.453C205.264 136.547 205.151 136.617 205.026 136.658C204.902 136.698 204.769 136.709 204.64 136.688C204.511 136.667 204.388 136.615 204.283 136.537C204.178 136.458 204.093 136.356 204.035 136.238C203.073 134.295 202.524 133.125 202.387 132.73C200.606 127.445 198.603 122.46 196.379 117.775C194.618 114.052 191.714 112.105 187.667 111.935C183.184 111.744 178.994 111.928 175.097 112.487C166.362 113.742 157.968 115.566 149.916 117.96" stroke="#D12226"/>
<path d="M331.365 219.235C327.547 223.316 325.039 228.604 321.876 232.072C321.427 232.562 321.033 233.096 320.699 233.668C315.772 242.007 311.087 249.236 306.645 255.353C301.045 263.055 297.104 269.918 291.556 277.57C286.428 284.648 282.63 293.271 276.447 299.51C275.731 300.226 274.768 301.764 273.56 304.123C272.81 305.59 271.827 307.117 270.612 308.706C270.541 308.798 270.489 308.904 270.46 309.017C270.431 309.13 270.425 309.248 270.443 309.363C270.462 309.479 270.503 309.59 270.566 309.69C270.628 309.79 270.71 309.876 270.807 309.944C271.994 310.769 273.373 311.226 274.942 311.314C283.172 311.812 294.132 311.798 307.822 311.273C308.559 311.246 309.425 311.297 310.422 311.427C310.558 311.444 310.686 311.5 310.792 311.588C310.897 311.676 310.975 311.793 311.017 311.925C311.058 312.056 311.062 312.197 311.028 312.332C310.993 312.467 310.921 312.589 310.821 312.685C309.265 314.158 305.918 316.664 303.594 317.943C300.353 319.729 295.135 323.193 287.943 328.335C284.353 330.906 277.873 335.154 268.504 341.08C263.928 343.975 261.379 347.228 256.896 350.02C253.04 352.427 248.352 355.496 242.831 359.226C240.763 360.624 239.125 361.933 237.917 363.154C237.685 363.392 237.541 363.706 237.508 364.044C237.027 368.749 238.286 373.751 238.941 378.477C239.422 381.842 241.111 387.509 241.562 392.49" fill="black"/>
<path d="M331.365 219.235C327.547 223.316 325.039 228.604 321.876 232.072C321.427 232.562 321.033 233.096 320.699 233.668C315.772 242.007 311.087 249.236 306.645 255.353C301.045 263.055 297.104 269.918 291.556 277.57C286.428 284.648 282.63 293.271 276.447 299.51C275.731 300.226 274.768 301.764 273.56 304.123C272.81 305.59 271.827 307.117 270.612 308.706C270.541 308.798 270.489 308.904 270.46 309.017C270.431 309.13 270.425 309.248 270.443 309.363C270.462 309.479 270.503 309.59 270.566 309.69C270.628 309.79 270.71 309.876 270.807 309.944C271.994 310.769 273.373 311.226 274.942 311.314C283.172 311.812 294.132 311.798 307.822 311.273C308.559 311.246 309.425 311.297 310.422 311.427C310.558 311.444 310.686 311.5 310.792 311.588C310.897 311.676 310.975 311.793 311.017 311.925C311.058 312.056 311.062 312.197 311.028 312.332C310.993 312.467 310.921 312.589 310.821 312.685C309.265 314.158 305.918 316.664 303.594 317.943C300.353 319.729 295.135 323.193 287.943 328.335C284.353 330.906 277.873 335.154 268.504 341.08C263.928 343.975 261.379 347.228 256.896 350.02C253.04 352.427 248.352 355.496 242.831 359.226C240.763 360.624 239.125 361.933 237.917 363.154C237.685 363.392 237.541 363.706 237.508 364.044C237.027 368.749 238.286 373.751 238.941 378.477C239.422 381.842 241.111 387.509 241.562 392.49" stroke="#C82325"/>
<path d="M59.0674 311.151L98.4161 184.897C98.7958 183.691 99.3624 182.555 100.095 181.531C101.685 179.315 103.36 177.15 105.121 175.036C106.909 172.888 108.997 170.253 111.386 167.129C115.896 161.231 120.465 155.373 125.092 149.556C131.357 141.673 137.625 133.855 143.896 126.102C143.931 126.061 144.825 125.069 146.578 123.125C147.95 121.611 149.062 119.889 149.915 117.96" fill="black"/>
<path d="M59.0674 311.151L98.4161 184.897C98.7958 183.691 99.3624 182.555 100.095 181.531C101.685 179.315 103.36 177.15 105.121 175.036C106.909 172.888 108.997 170.253 111.386 167.129C115.896 161.231 120.465 155.373 125.092 149.556C131.357 141.673 137.625 133.855 143.896 126.102C143.931 126.061 144.825 125.069 146.578 123.125C147.95 121.611 149.062 119.889 149.915 117.96" stroke="#E44345"/>
<path d="M360.038 126.828C360.809 122.204 361.946 117.932 363.447 114.011C365.545 108.539 366.978 102.964 368.586 96.5711C369.497 92.9297 371.278 90.5975 372.045 86.7515C372.803 82.9191 373.98 79.2504 375.577 75.7453C375.643 75.5974 375.656 75.4316 375.616 75.2749C375.575 75.1183 375.482 74.98 375.353 74.8827C375.223 74.7854 375.065 74.7348 374.903 74.7391C374.741 74.7435 374.585 74.8025 374.461 74.9066C366.835 81.453 361.932 86.3628 355.063 91.3135C353.002 92.8001 349.672 95.5448 345.073 99.5477C342.356 101.907 340.156 104.447 338.47 107.168C338.233 107.553 338.154 108.014 338.252 108.454C338.349 108.893 338.615 109.276 338.992 109.521L343.66 112.518C344.059 112.768 344.413 113.09 344.704 113.469C347.563 117.151 350.488 120.81 353.477 124.445C354.773 126.02 356.391 127.148 358.329 127.83C358.508 127.893 358.698 127.916 358.887 127.898C359.075 127.879 359.257 127.82 359.42 127.725C359.583 127.629 359.723 127.5 359.829 127.345C359.936 127.19 360.007 127.013 360.038 126.828Z" fill="black" stroke="#C82325"/>
<path d="M412.876 34.0173C408.853 34.9483 404.86 36.0409 400.849 37.0337C354.605 48.7799 308.363 60.5288 262.119 72.2733C260.501 72.7133 259.821 74.9413 260.955 76.187C271.072 86.3485 281.24 96.4654 291.377 106.61C289.799 107.763 288.229 108.946 286.646 110.08C284.779 109.532 283.273 108.208 281.577 107.299C253.54 90.5176 220.514 82.5175 187.911 83.7035C176.225 84.1093 164.577 85.6813 153.225 88.4969C147.277 89.9769 141.348 91.5791 135.54 93.5477C126.109 96.807 117.28 101.52 108.487 106.179C100.646 110.338 93.3391 115.436 86.3878 120.937C74.3778 130.543 63.6701 141.768 54.5744 154.162C50.5475 159.699 46.8343 165.48 43.7591 171.602C41.1962 176.634 38.5491 181.628 36.165 186.747C31.7857 196.57 28.6603 206.896 25.9175 217.277C23.6669 226.336 22.827 235.672 22.272 244.967C21.484 260.493 22.3634 276.153 25.4965 291.398C29.3967 310.156 36.844 328.075 46.5599 344.554C60.9818 368.667 81.4599 389.127 105.585 403.549C128.173 417.105 153.946 425.285 180.213 427.31C201.703 428.985 223.562 426.965 244.184 420.58C261.693 415.165 278.423 407.185 293.534 396.81C296.535 398.999 299.537 401.189 302.539 403.378C293.505 412.404 284.472 421.43 275.438 430.457C275.095 430.965 274.898 431.508 275.01 432.126C275.024 432.647 275.385 433.197 275.754 433.539C276.78 434.257 278.105 434.272 279.269 434.663C319.057 444.755 358.845 454.85 398.633 464.941C400.293 465.345 401.949 463.609 401.442 461.972C391.142 421.472 380.836 380.973 370.539 340.471C370.065 338.882 367.863 338.234 366.636 339.377C357.721 348.262 348.826 357.17 339.92 366.063C337.735 363.102 335.55 360.142 333.366 357.181C339.208 349.433 344.033 340.964 348.332 332.28C354.063 320.592 358.57 308.294 361.662 295.649C362.647 291.521 363.072 287.285 363.733 283.104C364.618 282.791 365.64 282.785 366.574 282.583C369.325 282.146 372.077 281.709 374.829 281.272C374.838 293.831 374.811 306.393 374.843 318.951C374.914 320.719 377.119 321.855 378.612 320.91C414.498 299.53 450.398 278.171 486.274 256.777C487.745 255.86 487.579 253.42 486.024 252.673C450.175 231.345 414.327 210.013 378.476 188.688C377.956 188.41 377.347 188.325 376.771 188.448C377.796 187.46 377.752 185.907 378.192 184.631C390.682 135.462 403.175 86.2949 415.663 37.1259C416.037 35.4766 414.562 33.8117 412.876 34.0173ZM368.779 163.981C360.35 155.57 351.944 147.134 343.5 138.738C342.213 137.557 339.98 137.977 339.133 139.484C333.902 146.658 328.631 153.807 323.425 160.998C322.677 162.148 322.981 163.633 323.755 164.686C327.832 171.518 332.133 178.232 335.64 185.385C337.21 188.491 338.72 191.809 340.034 194.919C343.136 202.359 345.698 210.046 347.413 217.926C347.591 219.349 347.688 220.789 348.187 222.149C349.083 225.396 349.553 228.738 349.886 232.082C350.037 232.982 350.725 233.696 350.675 234.64C351.195 238.605 351.557 242.799 351.751 246.888C351.954 251.003 351.994 255.128 351.902 259.298C351.83 262.589 351.666 265.979 351.421 269.329C351.35 270.127 351.289 271.007 351.2 271.854C350.974 274.818 350.35 277.725 349.802 280.64C349.471 282.539 349.216 284.451 348.908 286.355C348.687 287.719 348.392 289.322 348.069 290.764C345.494 301.358 342.44 311.913 337.683 321.758C333.77 330.036 329.489 338.178 324.196 345.669C320.292 351.318 315.836 356.557 311.17 361.588C307.66 365.383 304.229 369.269 300.427 372.78C297.23 375.595 293.974 378.411 290.746 381.087C286.109 384.898 280.873 388.042 275.76 391.046C269.855 394.488 263.67 397.717 257.505 400.471C248.442 404.525 238.993 407.734 229.302 409.909C228.378 410.09 227.232 410.454 226.178 410.377C224.233 410.437 222.373 411.121 220.465 411.453C216.131 412.426 211.745 413.24 207.298 413.43C201.023 413.827 194.859 414.06 188.58 414.027C187.858 414.178 187.391 413.924 187.229 413.19C186.975 412.508 186.703 411.889 186.066 412.648C185.476 413.011 184.959 413.642 184.199 413.398C177.715 413.035 171.257 412.255 164.869 411.088C163.684 410.86 162.24 410.586 160.962 410.312C149.934 407.994 139.165 404.454 128.904 399.8C128.215 399.474 127.252 399.043 126.557 398.71C102.781 387.468 81.9964 370.106 66.4657 348.913C54.868 333.224 46.4167 315.276 41.419 296.434C39.1943 288.025 37.492 279.457 36.7382 270.784C36.6875 270.093 36.6012 269.195 36.5527 268.459C36.3402 265.571 36.2182 262.715 36.1683 259.874C36.0862 255.248 36.2007 250.715 36.4683 246.117C36.5625 244.66 36.6678 243.043 36.7965 241.573C37.262 236.249 37.8589 230.928 38.7807 225.662C39.7438 221.22 40.9188 216.941 42.073 212.558C43.9878 205.502 46.4478 198.522 49.3432 191.878C58.3778 171.074 72.1511 152.381 89.1798 137.406C101.334 126.694 115.284 117.763 130.175 111.205C132.881 110.015 135.429 108.972 138.212 107.923C142.49 106.308 146.938 104.849 151.224 103.655C153.897 102.899 156.779 102.181 159.497 101.575C164.828 100.387 170.247 99.4849 175.618 98.8737C178.102 98.5926 180.453 98.3808 182.993 98.2123C187.027 97.9551 190.976 97.8447 195.041 97.9008C196.462 97.9418 197.832 97.9122 199.193 98.0451C199.965 98.8209 200.737 99.5967 201.508 100.373C201.781 99.5827 202.055 98.7929 202.328 98.0031C210.708 97.583 218.831 100.154 227.132 100.781C229.476 101.628 231.884 102.289 234.318 102.83C235.729 103.223 237.218 103.511 238.524 104.163C240.097 105.629 242.308 105.851 244.333 106.152C244.923 106.276 245.535 106.383 246.059 106.698C246.268 108.036 246.478 109.375 246.688 110.713C247.679 109.682 248.668 108.651 249.659 107.621C251.474 108.298 253.32 109.016 255.023 109.726C265.731 114.13 275.921 119.771 285.389 126.428C286.619 127.201 288.222 126.794 289.222 125.829C296.245 120.64 303.294 115.483 310.3 110.274C311.716 109.126 311.718 106.756 310.323 105.588C302.102 97.3753 293.88 89.1625 285.659 80.9498C322.792 71.5181 359.924 62.0865 397.057 52.6548C387.631 89.7635 378.205 126.872 368.779 163.981ZM373.004 188.368C373.646 189.034 374.631 189.308 375.529 189.101C374.42 190.168 374.866 191.797 374.777 193.162C374.777 204.936 374.777 216.71 374.777 228.484C371.149 227.926 367.509 227.412 363.887 226.826C363.484 226.357 363.613 225.591 363.415 225.012C359.651 205.185 353.041 185.746 342.617 168.396C341.605 166.663 340.465 165 339.428 163.29C339.383 162.573 340.158 162.118 340.459 161.518C341.258 160.427 342.057 159.336 342.857 158.245C352.906 168.286 362.955 178.327 373.004 188.368ZM461.981 254.815C437.69 269.279 413.399 283.743 389.108 298.208C389.1 287.975 389.124 277.741 389.096 267.509C389.016 265.928 387.301 264.767 385.792 265.216C379.187 266.268 372.582 267.32 365.976 268.372C366.313 259.403 366.189 250.411 365.463 241.464C372.272 242.471 379.074 243.547 385.888 244.512C387.646 244.656 389.185 242.969 388.986 241.237C388.986 231.288 388.986 221.339 388.986 211.391C413.318 225.866 437.649 240.34 461.981 254.815ZM363.959 372.053C370.139 396.898 376.507 421.695 382.992 446.463C355.534 439.33 328.038 432.341 300.479 425.602C307.645 418.421 314.855 411.28 321.992 404.074C323.178 402.718 322.723 400.431 321.178 399.545C315.803 395.622 310.429 391.699 305.054 387.775C311.999 382.085 318.376 375.695 324.072 368.757C324.444 368.851 324.8 369.706 325.166 370.079C328.898 375.138 332.578 380.239 336.342 385.271C337.504 386.639 339.83 386.539 340.934 385.145C347.949 378.113 354.963 371.081 361.978 364.049C362.638 366.717 363.299 369.385 363.959 372.053Z" fill="white"/>
<path d="M185.026 415.495C135.615 412.989 91.3013 387.57 63.1204 347.78C49.6766 328.802 40.7471 307.243 36.3318 283.103C33.005 264.958 33.6498 245.083 36.5365 226.518C36.8163 224.69 37.9389 220.094 39.9043 212.729C58.8314 141.813 126.361 92.8889 199.572 95.978C227.781 96.796 227.62 98.4296 250.006 105.562C263.075 110.39 275.188 116.742 286.346 124.619C286.676 124.851 287.115 124.847 287.431 124.608L308.896 108.784C309.416 108.392 309.474 107.636 309.019 107.179L282.63 80.8189C282.208 80.3927 282.407 79.6701 282.988 79.5199L398.997 50.0507C399.398 49.9559 399.758 50.3156 399.663 50.7156L370.294 166.332C370.111 167.057 369.204 167.304 368.677 166.771L342.226 140.34C341.865 139.979 341.266 140.028 340.967 140.443L325.224 161.974C325.037 162.239 324.988 162.573 325.09 162.874C325.165 163.099 326.936 166.052 330.403 171.732C339.479 186.605 345.768 201.607 349.269 216.739C349.446 217.51 349.573 218.417 349.648 219.46C349.675 219.786 349.733 220.105 349.822 220.411C350.845 223.848 351.521 227.496 351.848 231.356C351.876 231.745 352.029 232.191 352.309 232.696C352.458 232.953 352.555 233.234 352.596 233.524C354.042 244.19 354.37 255.622 353.578 267.822C353.285 272.356 352.869 275.851 352.33 278.306C351.347 282.807 351.122 286.939 349.842 292.166C347.679 300.983 345.399 308.478 343.004 314.649C341.312 319.02 338.681 324.653 335.112 331.547C329.803 341.796 323.364 351.125 315.796 359.533C310.098 365.868 305.856 370.399 303.072 373.127C302.028 374.143 298.858 376.905 293.562 381.412C290.437 384.072 287.052 386.54 283.408 388.818C265.75 399.844 222.947 423.583 185.026 415.495ZM330.045 108.938C328.878 111.427 327.155 113.507 324.875 115.177C320.037 118.723 315.246 122.286 310.504 125.867C307.555 128.103 306.358 131.012 306.911 134.592C306.964 134.946 307.12 135.279 307.361 135.553C310.63 139.195 314.182 142.287 318.017 144.831C318.606 145.221 319.387 145.158 319.911 144.677C324.875 140.115 329.564 132.352 332.287 128.454C334.737 124.943 338.005 122.808 342.093 122.051C342.453 121.986 342.821 122.063 343.117 122.266C345.089 123.643 346.177 124.445 346.382 124.67C350.845 129.573 356.011 134.145 361.88 138.387C362.285 138.677 362.855 138.49 362.996 138.018C364.784 132.358 366.234 126.098 367.346 119.238C368.247 113.715 370.837 107.537 372.27 100.796C373.116 96.8202 374.249 92.5172 375.668 87.887C375.88 87.1915 376.719 83.4068 378.187 76.5331C378.995 72.7484 377.214 70.181 373.12 71.3471C362.136 74.4669 356.383 75.7966 343.332 78.9266C334.754 80.9724 327.537 83.8569 318.775 85.2787C316.905 85.5787 314.799 86.4209 312.459 87.8052C312.14 87.997 311.895 88.2924 311.763 88.644C311.49 89.3872 311.483 90.2158 311.742 91.1295C311.789 91.277 311.871 91.4044 311.978 91.4978L329.594 106.81C330.201 107.344 330.384 108.21 330.045 108.938ZM149.915 117.96C149.069 117.967 148.24 118.11 147.427 118.389C117.196 128.836 92.8504 146.938 74.3907 172.694C64.8094 186.053 57.934 200.168 53.7644 215.041C44.6881 247.425 46.4556 279.462 59.0668 311.151C63.5231 319.92 66.983 326.552 69.4465 331.046C74.0529 339.474 80.2357 347.729 87.739 354.879C99.214 365.813 111.416 376.114 125.102 383.744C126.842 384.72 131.998 387.099 140.569 390.884C150.939 395.467 160.121 397.666 170.244 399.589C188.069 402.988 229.646 395.173 230.711 395.937C231.482 396.489 232.635 396.5 234.171 395.968C236.805 395.054 239.268 393.895 241.561 392.49C251.109 389.756 259.994 385.565 268.217 379.919C272.789 376.775 275.386 375.023 276.007 374.661C284.155 369.905 292.273 364.32 298.537 357.231C307.504 347.084 314.95 336.736 320.873 326.187C324.446 319.825 328.028 310.363 330.27 304.696C332.072 300.114 332.686 295.45 334.242 290.714C335.375 287.277 336.132 283.734 336.514 280.086C337.552 270.246 338.173 263.795 338.377 260.733C338.753 254.889 338.534 248.308 337.722 240.991C336.924 233.79 336.477 229.961 336.381 229.505C335.549 225.536 333.877 222.113 331.365 219.235C331.263 215.471 331.041 213.012 330.7 211.86C326.585 197.894 320.194 184.948 311.527 173.021C303.829 162.431 295.801 153.45 287.441 146.079C287.182 145.854 286.901 145.655 286.602 145.485C280.535 142.048 274.427 137.848 268.278 132.883C262.536 128.24 257.643 126.194 250.549 124.496C250.216 124.418 249.87 124.481 249.597 124.67C230.651 115.311 205.429 113.507 187.667 111.935C183.183 111.744 178.993 111.928 175.096 112.487C166.361 113.742 157.968 115.566 149.915 117.96Z" fill="#C72127"/>
<path d="M330.045 108.938C330.21 108.583 330.255 108.185 330.174 107.801C330.093 107.418 329.89 107.07 329.595 106.81L311.978 91.4978C311.871 91.4044 311.789 91.277 311.742 91.1296C311.483 90.2158 311.49 89.3873 311.763 88.644C311.895 88.2924 312.141 87.997 312.459 87.8052C314.8 86.4209 316.905 85.5787 318.775 85.2787C327.537 83.8569 334.754 80.9724 343.332 78.9266C356.383 75.7966 362.136 74.4669 373.12 71.3471C377.214 70.181 378.995 72.7484 378.187 76.5331C376.72 83.4068 375.88 87.1915 375.669 87.887C374.249 92.5173 373.116 96.8202 372.27 100.796C370.837 107.537 368.247 113.715 367.346 119.238C366.234 126.098 364.784 132.358 362.996 138.018C362.963 138.128 362.904 138.227 362.825 138.309C362.745 138.391 362.646 138.452 362.537 138.488C362.428 138.524 362.311 138.534 362.197 138.516C362.083 138.498 361.974 138.454 361.88 138.387C356.011 134.145 350.845 129.573 346.382 124.67C346.178 124.445 345.089 123.643 343.117 122.266C342.821 122.063 342.453 121.986 342.093 122.051C338.005 122.808 334.737 124.943 332.287 128.454C329.564 132.352 324.876 140.115 319.911 144.677C319.656 144.911 319.332 145.053 318.988 145.081C318.645 145.108 318.303 145.02 318.017 144.831C314.182 142.287 310.63 139.195 307.361 135.553C307.12 135.279 306.964 134.946 306.911 134.592C306.358 131.012 307.556 128.103 310.504 125.867C315.247 122.286 320.037 118.723 324.876 115.177C327.155 113.507 328.878 111.427 330.045 108.938ZM360.038 126.828C360.809 122.205 361.945 117.932 363.446 114.011C365.545 108.539 366.978 102.964 368.585 96.5713C369.496 92.9298 371.277 90.5977 372.045 86.7516C372.802 82.9192 373.98 79.2505 375.576 75.7455C375.642 75.5975 375.656 75.4317 375.615 75.275C375.574 75.1184 375.482 74.9801 375.352 74.8828C375.223 74.7855 375.064 74.7349 374.902 74.7392C374.74 74.7436 374.585 74.8026 374.461 74.9067C366.835 81.4531 361.931 86.3629 355.063 91.3137C353.002 92.8003 349.672 95.545 345.072 99.5478C342.356 101.907 340.155 104.447 338.47 107.168C338.232 107.553 338.154 108.014 338.251 108.454C338.349 108.893 338.615 109.276 338.992 109.521L343.659 112.518C344.059 112.768 344.412 113.09 344.703 113.469C347.563 117.152 350.487 120.81 353.476 124.445C354.773 126.02 356.39 127.149 358.328 127.83C358.507 127.893 358.698 127.916 358.886 127.898C359.075 127.88 359.257 127.821 359.42 127.725C359.582 127.63 359.722 127.5 359.829 127.345C359.936 127.19 360.007 127.013 360.038 126.828Z" fill="#DA2325"/>
<path d="M360.038 126.828C360.007 127.013 359.936 127.19 359.829 127.345C359.723 127.5 359.583 127.629 359.42 127.725C359.257 127.82 359.075 127.879 358.887 127.898C358.698 127.916 358.508 127.893 358.329 127.83C356.391 127.148 354.773 126.02 353.477 124.445C350.488 120.81 347.563 117.151 344.704 113.469C344.413 113.09 344.059 112.768 343.66 112.518L338.992 109.521C338.615 109.276 338.349 108.893 338.252 108.454C338.154 108.014 338.233 107.553 338.47 107.168C340.156 104.447 342.356 101.907 345.073 99.5477C349.672 95.5448 353.002 92.8001 355.063 91.3135C361.932 86.3628 366.835 81.453 374.461 74.9066C374.585 74.8025 374.741 74.7435 374.903 74.7391C375.065 74.7348 375.223 74.7854 375.353 74.8827C375.482 74.98 375.575 75.1183 375.616 75.2749C375.656 75.4316 375.643 75.5974 375.577 75.7453C373.98 79.2504 372.803 82.9191 372.045 86.7515C371.278 90.5975 369.497 92.9297 368.586 96.5711C366.978 102.964 365.545 108.539 363.447 114.011C361.946 117.932 360.809 122.204 360.038 126.828Z" fill="#B62224"/>
<path d="M331.366 219.235C327.548 223.316 325.04 228.604 321.877 232.072C321.428 232.561 321.033 233.096 320.699 233.668C315.772 242.007 311.088 249.236 306.645 255.353C301.046 263.055 297.105 269.918 291.556 277.57C286.428 284.648 282.63 293.271 276.448 299.51C275.731 300.226 274.769 301.764 273.561 304.123C272.81 305.59 271.827 307.117 270.613 308.706C270.311 309.094 270.399 309.658 270.807 309.944C271.995 310.769 273.373 311.226 274.943 311.314C283.173 311.812 294.133 311.798 307.822 311.273C308.559 311.246 309.426 311.297 310.422 311.427C311.029 311.504 311.268 312.257 310.821 312.685C309.265 314.158 305.918 316.664 303.594 317.943C300.353 319.729 295.136 323.193 287.943 328.335C284.353 330.906 277.874 335.154 268.504 341.08C263.928 343.975 261.38 347.228 256.896 350.02C253.04 352.427 248.352 355.496 242.831 359.226C240.763 360.624 239.126 361.933 237.918 363.154C237.686 363.392 237.541 363.706 237.508 364.044C237.027 368.749 238.286 373.751 238.941 378.476C239.422 381.842 241.111 387.508 241.562 392.49C239.269 393.895 236.805 395.054 234.171 395.968C218.744 400.433 200.413 404.044 172.873 400.7C162.749 398.777 150.939 395.466 140.57 390.884C131.998 387.099 126.843 384.719 125.102 383.744C111.416 376.114 99.2145 365.813 87.7395 354.879C80.2363 347.729 74.0535 339.474 69.4471 331.046C66.9835 326.552 63.5236 319.92 59.0674 311.151L98.4161 184.897C98.7958 183.691 99.3624 182.555 100.095 181.531C101.685 179.315 103.36 177.15 105.121 175.036C106.909 172.888 108.997 170.253 111.386 167.129C115.896 161.231 120.465 155.373 125.092 149.556C131.357 141.673 137.625 133.855 143.896 126.102C143.931 126.061 144.825 125.069 146.578 123.125C147.95 121.611 149.062 119.889 149.915 117.96C157.968 115.566 166.362 113.742 175.097 112.487C178.994 111.928 183.184 111.744 187.667 111.935C213.802 113.036 249.308 117.542 268.279 132.883C274.428 137.848 280.535 142.048 286.602 145.485C286.902 145.655 287.183 145.854 287.441 146.078C295.801 153.45 303.83 162.431 311.528 173.021C320.194 184.948 326.585 197.894 330.7 211.86C331.042 213.012 331.263 215.471 331.366 219.235Z" fill="#DA2325"/>
<path d="M149.915 117.96C149.062 119.889 147.95 121.611 146.578 123.125C144.824 125.069 143.93 126.061 143.896 126.102C137.625 133.855 131.356 141.673 125.092 149.556C120.465 155.373 115.896 161.231 111.385 167.129C108.997 170.253 106.909 172.888 105.121 175.036C103.36 177.15 101.685 179.315 100.095 181.531C99.3621 182.555 98.7954 183.691 98.4157 184.897L59.067 311.151C46.4558 279.462 44.6883 247.425 53.7646 215.041C57.9342 200.168 64.8096 186.053 74.3909 172.694C92.8505 146.938 117.196 128.836 147.428 118.389C148.24 118.11 149.069 117.966 149.915 117.96Z" fill="#EE6364"/>
<path d="M386.418 267.187L365.034 270.594C364.889 270.616 364.74 270.607 364.599 270.565C364.458 270.524 364.328 270.451 364.218 270.354C364.109 270.256 364.022 270.135 363.965 269.999C363.908 269.864 363.881 269.717 363.888 269.571C364.317 259.342 364.13 249.611 363.325 240.378C363.31 240.22 363.332 240.061 363.388 239.913C363.445 239.765 363.534 239.632 363.649 239.524C363.765 239.415 363.903 239.335 364.054 239.288C364.206 239.241 364.366 239.229 364.522 239.252L385.865 242.464C385.998 242.485 386.134 242.477 386.263 242.44C386.393 242.403 386.512 242.339 386.615 242.251C386.717 242.164 386.799 242.055 386.855 241.933C386.911 241.811 386.94 241.678 386.94 241.544V208.382C386.94 208.323 386.957 208.264 386.987 208.213C387.017 208.162 387.061 208.119 387.113 208.09C387.165 208.061 387.223 208.047 387.283 208.047C387.342 208.048 387.401 208.065 387.452 208.096L465.218 254.36C465.296 254.408 465.361 254.475 465.406 254.554C465.451 254.634 465.475 254.724 465.475 254.816C465.475 254.907 465.451 254.997 465.406 255.077C465.361 255.157 465.296 255.223 465.218 255.271L387.759 301.392C387.689 301.434 387.609 301.456 387.527 301.457C387.445 301.458 387.365 301.437 387.294 301.396C387.223 301.355 387.165 301.297 387.124 301.226C387.083 301.155 387.062 301.075 387.063 300.993V267.74C387.062 267.658 387.044 267.578 387.01 267.504C386.976 267.43 386.927 267.365 386.865 267.312C386.804 267.26 386.732 267.221 386.655 267.2C386.578 267.178 386.497 267.174 386.418 267.187Z" fill="#5D5D5D"/>
<path d="M241.562 392.49C241.111 387.509 239.422 381.842 238.941 378.477C238.286 373.751 237.027 368.749 237.508 364.044C237.541 363.706 237.685 363.392 237.917 363.154C239.125 361.933 240.763 360.624 242.831 359.226C248.352 355.496 253.04 352.427 256.896 350.02C261.379 347.228 263.928 343.975 268.504 341.08C277.873 335.154 284.353 330.906 287.943 328.335C295.135 323.193 300.353 319.729 303.594 317.943C305.918 316.664 309.265 314.158 310.821 312.685C310.921 312.589 310.993 312.467 311.028 312.332C311.062 312.197 311.058 312.056 311.017 311.925C310.975 311.793 310.897 311.676 310.792 311.588C310.686 311.5 310.558 311.444 310.422 311.427C309.425 311.297 308.559 311.246 307.822 311.273C294.132 311.798 283.172 311.812 274.942 311.314C273.373 311.226 271.994 310.769 270.807 309.944C270.71 309.876 270.628 309.79 270.566 309.69C270.503 309.59 270.462 309.479 270.443 309.363C270.425 309.248 270.431 309.13 270.46 309.017C270.489 308.904 270.541 308.798 270.612 308.706C271.827 307.117 272.81 305.59 273.56 304.123C274.768 301.764 275.731 300.226 276.447 299.51C282.63 293.271 286.428 284.648 291.556 277.57C297.104 269.918 301.045 263.055 306.645 255.353C311.087 249.236 315.772 242.007 320.699 233.668C321.033 233.096 321.427 232.562 321.876 232.072C325.039 228.604 327.547 223.316 331.365 219.235C333.877 222.113 335.549 225.536 336.381 229.504C336.477 229.961 336.924 233.79 337.722 240.991C338.534 248.308 338.753 254.889 338.377 260.733C338.173 263.795 337.552 270.246 336.514 280.086C336.132 283.734 335.375 287.277 334.242 290.714C332.686 295.449 332.072 300.114 330.27 304.696C328.028 310.363 324.446 319.825 320.873 326.187C314.95 336.736 307.504 347.084 298.537 357.231C292.273 364.32 284.155 369.905 276.007 374.661C275.386 375.023 272.789 376.775 268.217 379.919C259.994 385.565 251.109 389.755 241.562 392.49Z" fill="#B62224"/>
<path d="M385.342 448.81C385.144 449.007 384.646 449.004 383.847 448.799C352.968 440.766 324.36 433.535 298.025 427.104C297.869 427.067 297.725 426.99 297.609 426.879C297.493 426.768 297.409 426.628 297.365 426.474C297.321 426.319 297.319 426.156 297.36 426.001C297.4 425.845 297.482 425.704 297.595 425.59L320.331 402.872C320.431 402.773 320.509 402.653 320.559 402.52C320.608 402.387 320.628 402.245 320.618 402.103C320.607 401.961 320.566 401.823 320.497 401.698C320.428 401.573 320.333 401.464 320.218 401.379L302.898 388.736C302.755 388.634 302.637 388.5 302.555 388.345C302.472 388.189 302.427 388.016 302.424 387.84C302.42 387.663 302.457 387.488 302.532 387.327C302.607 387.167 302.718 387.026 302.857 386.915C306.324 384.174 309.91 380.952 313.615 377.249C317.314 373.539 320.532 369.952 323.268 366.488C323.378 366.349 323.519 366.237 323.679 366.161C323.839 366.085 324.015 366.047 324.191 366.05C324.368 366.053 324.541 366.097 324.697 366.178C324.853 366.26 324.988 366.376 325.09 366.519L337.773 383.806C337.859 383.92 337.968 384.015 338.093 384.084C338.218 384.153 338.356 384.194 338.498 384.205C338.64 384.216 338.782 384.196 338.915 384.146C339.048 384.097 339.168 384.019 339.268 383.918L361.962 361.169C362.075 361.056 362.216 360.974 362.37 360.933C362.525 360.892 362.688 360.893 362.842 360.935C362.997 360.978 363.137 361.061 363.248 361.176C363.36 361.291 363.439 361.433 363.477 361.589C369.96 387.897 377.245 416.473 385.332 447.316C385.536 448.114 385.54 448.612 385.342 448.81Z" fill="#5D5D5D"/>
</svg>
