<svg width="291" height="252" viewBox="0 0 291 252" fill="none" xmlns="http://www.w3.org/2000/svg">
<path d="M24.3872 156.649C26.4675 150.475 27.8416 144.98 28.5094 140.164C29.1554 135.391 30.3762 130.197 32.1718 124.581C35.9272 112.781 39.4746 102.113 42.814 92.579C47.3468 79.673 57.2171 68.3105 66.8083 58.5242C69.9068 55.3607 72.54 52.334 74.7078 49.4441C74.9864 49.0801 75.152 48.6404 75.1841 48.1797L75.4961 44.7151C75.518 44.461 75.4751 44.2054 75.3714 43.9723C75.2678 43.7392 75.1068 43.5362 74.9035 43.3821C74.7002 43.228 74.4612 43.1279 74.2087 43.0911C73.9562 43.0543 73.6985 43.082 73.4597 43.1717C50.522 51.71 33.7922 66.9969 23.2704 89.0323C20.0187 95.8521 18.1902 101.002 17.7851 104.483C16.307 117.34 14.3855 126.125 15.9129 136.617C17.0406 144.389 18.5351 151.067 20.3964 156.649C20.5354 157.069 20.803 157.433 21.1612 157.692C21.5194 157.951 21.95 158.09 22.3918 158.09C22.8336 158.09 23.2642 157.951 23.6224 157.692C23.9806 157.433 24.2482 157.069 24.3872 156.649Z" fill="black" stroke="#686566" stroke-width="2.60702"/>
<path d="M225.811 0.792385C201.653 6.89427 177.513 13.0913 153.363 19.2327C151.831 19.6586 151.642 21.8483 152.945 22.6697C157.936 27.6697 162.928 32.6697 167.919 37.6697C166.184 38.9991 164.582 40.5811 162.765 41.7555C161.124 40.9474 159.665 39.6984 158.057 38.7834C143.454 29.5596 126.538 23.9122 109.255 23.0632C96.3961 22.4031 83.3458 23.86 71.155 28.1081C60.2346 31.7931 49.922 37.2794 40.8546 44.4031C24.3044 57.2171 11.5699 75.0091 5.28492 95.0101C-2.83618 120.494 -0.540722 149.157 11.7993 172.919C21.2884 191.374 36.48 206.807 54.6396 216.822C67.2357 223.623 81.2191 228.035 95.5432 228.937C112.328 230.244 129.451 227.417 144.803 220.461C151.034 217.689 156.942 214.233 162.585 210.421C163.561 210.517 164.185 211.622 165.017 212.107C165.983 212.899 166.95 213.69 167.916 214.481C162.743 219.692 157.497 224.839 152.369 230.09C151.421 231.348 152.608 233.091 154.077 233.106C177.982 239.184 201.877 245.317 225.789 251.359C227.105 251.54 227.975 250.009 227.393 248.88C221.256 224.751 215.192 200.599 209.01 176.485C208.471 175.138 206.592 175.331 205.918 176.468C200.784 181.602 195.651 186.735 190.517 191.869C189.321 190.086 187.893 188.406 186.835 186.561C188.64 183.825 190.609 181.141 192.272 178.291C196.616 171.179 199.871 163.449 202.194 155.454C202.88 153.24 203.585 151.013 204.195 148.786C205.219 148.343 206.348 148.155 207.46 148.138C207.484 156.571 207.413 165.01 207.496 173.438C207.729 174.949 209.721 175.322 210.735 174.311C237.135 158.605 263.507 142.853 289.974 127.261C290.696 126.848 290.824 125.645 290.206 125.123C286.694 122.831 282.967 120.816 279.372 118.631C256.218 104.961 233.146 91.1503 210.023 77.4302C208.691 76.7178 207.131 78.1256 207.46 79.5423C207.454 87.696 207.473 95.8754 207.45 104.013C206.354 103.954 205.054 103.871 204.163 103.272C201.811 95.1812 199.404 87.0311 195.445 79.5503C192.98 74.673 189.956 70.0878 186.838 65.622C187.672 64.0048 188.973 62.5772 189.982 61.0317C190.518 59.5289 191.326 61.3059 192.027 61.7918C196.94 66.6571 201.764 71.6241 206.732 76.4264C207.914 77.1054 209.249 76.0353 209.267 74.7667C215.362 50.6941 221.513 26.6327 227.572 2.55301C227.72 1.57703 226.782 0.659259 225.811 0.792385ZM203.717 61.1803C199.571 57.0987 195.545 52.8843 191.326 48.8846C189.799 47.8822 187.755 48.6989 186.955 50.2413C183.232 55.1508 179.513 60.0632 175.788 64.971C179.998 70.7792 183.961 76.8381 187.428 83.0585C187.42 84.637 185.87 85.6574 185.091 86.9075C184.642 87.5831 183.015 89.0892 184.712 88.2523C186.348 87.8628 187.912 86.7914 189.632 86.971C191.072 87.5709 191.122 89.4402 191.791 90.6591C194.064 96.5391 195.743 102.625 197.237 108.74C197.981 110.7 200.106 111.652 202.104 111.586C205.977 111.882 209.853 112.357 213.725 112.544C215.178 112.365 215.306 110.689 215.171 109.524C215.171 103.166 215.171 96.8084 215.171 90.4506C235.567 102.226 255.962 114.001 276.357 125.776C256.132 137.9 235.907 150.025 215.681 162.15C215.649 155.345 215.746 148.534 215.633 141.734C215.318 140.112 213.494 139.5 212.041 139.904C207.414 140.381 202.752 140.673 198.145 141.262C196.613 141.727 196.472 143.494 196.511 144.835C195.875 152.986 192.257 160.494 188.635 167.689C185.362 174.03 181.391 179.99 177.086 185.667C176.195 187.33 177.983 188.696 178.754 189.996C181.886 194.323 184.9 198.744 188.105 203.013C189.417 204.231 191.485 203.702 192.455 202.327C196.235 198.548 200.014 194.769 203.794 190.99C207.936 207.34 212.078 223.689 216.22 240.038C199.897 235.786 183.484 231.728 167.166 227.544C171.049 223.719 175.15 220.091 178.972 216.204C180.263 214.522 179.496 212.026 177.728 211.014C173.431 207.536 169.211 203.948 164.866 200.537C163.188 199.605 161.713 201.262 160.4 202.071C154.342 206.163 148.351 210.496 141.536 213.265C134.313 216.316 126.843 218.979 119.064 220.164C116.97 220.454 114.477 220.719 112.21 220.801C104.361 220.9 96.5067 220.832 88.6584 220.796C83.8279 219.764 79.06 218.38 74.4111 216.709C67.413 214.052 60.716 210.661 54.0918 207.198C52.8229 206.45 51.7879 205.311 51.2957 203.911C44.5658 200.838 38.5844 195.766 35.3276 189.033C34.9843 187.975 33.6722 189.074 32.8585 188.772C30.846 188.559 30.0764 186.355 28.9205 184.996C21.9849 175.152 16.4873 164.467 12.1877 153.225C10.588 149.075 9.91677 144.663 9.45184 140.263C8.37911 132.763 7.27389 125.116 8.51316 117.561C9.10515 112.831 9.51258 108.056 10.8522 103.459C12.4716 97.2282 14.4517 91.3935 17.2047 85.544C20.7104 77.9738 25.7846 71.2512 31.1167 64.9534C36.4663 58.7516 42.3141 52.9026 48.9233 48.1545C60.2793 40.0682 73.6068 35.4939 86.6911 31.056C91.3881 30.4352 96.1457 30.2629 100.88 30.0436C104.511 29.951 108.256 29.9294 111.934 30.2622C117.055 30.8156 121.967 32.1751 126.94 33.5566C134.376 35.7658 141.683 38.5545 148.492 42.2872C153.156 45.167 157.661 48.3065 162.287 51.2387C164.064 52.0411 165.483 50.2998 166.838 49.4535C171.068 46.39 175.394 43.448 179.563 40.3092C180.689 39.0881 180.157 37.1824 178.88 36.2972C174.998 32.4156 171.115 28.5341 167.233 24.6526C183.55 20.5166 199.868 16.3807 216.185 12.2447C212.029 28.5566 207.873 44.8684 203.717 61.1803Z" fill="black"/>
<path d="M177.353 64.9937C188.49 77.4544 188.619 80.613 192.035 87.8501C194.564 94.0568 196.639 100.701 198.259 107.784C198.562 109.124 199.698 110.114 201.068 110.23L213.385 111.314C213.667 111.343 213.912 111.121 213.911 110.838V89.3772C213.911 88.8888 214.437 88.581 214.863 88.8189L277.321 124.877C278.008 125.275 278.008 126.268 277.321 126.667L215.175 163.923C214.843 164.133 214.412 163.889 214.42 163.496V142.249C214.421 141.556 213.83 141.009 213.139 141.067L198.801 142.397C198.264 142.455 197.855 142.899 197.849 143.431C197.728 147.876 196.639 152.665 194.581 157.799C190.519 167.913 185.083 177.355 178.272 186.123C178.048 186.413 178.042 186.819 178.256 187.125L188.734 201.82C189.261 202.568 190.335 202.662 190.984 202.017L203.58 189.423C203.975 189.042 204.634 189.223 204.779 189.752L217.803 241.146C217.879 241.442 217.604 241.708 217.31 241.622C212.175 240.254 195.342 235.968 166.809 228.765C166.174 228.601 165.867 228.191 165.889 227.534C165.901 227.151 166.081 226.79 166.431 226.45C170.537 222.597 174.292 219.034 177.698 215.761C178.637 214.849 178.575 213.328 177.566 212.51L164.46 201.771C164.084 201.461 163.546 201.441 163.147 201.722C155.077 207.305 149.647 210.791 146.855 212.181C141.413 214.896 135.375 217.261 128.74 219.275C122.499 221.168 116.116 222.115 109.591 222.115C96.901 222.104 90.0142 222.093 88.9303 222.082C88.0325 222.082 84.7916 221.267 79.2078 219.636C70.717 217.173 62.3904 212.855 54.5073 208.881C38.1969 196.967 35.2299 194.953 29.6754 188.192C22.6792 178.789 16.7176 167.968 11.7906 155.73C10.0716 151.461 9.01509 147.482 8.62093 143.793C7.94758 137.323 5.96038 128.259 6.97861 119.721C7.82167 112.682 8.32531 108.764 8.48955 107.964C11.4786 94.2046 16.1592 82.853 22.5314 73.9097C28.8269 65.0867 35.6316 57.5281 42.9454 51.2338C55.5255 40.3967 70.5035 35.2737 85.6949 30.0358C86.3061 29.8284 86.9341 29.6907 87.5672 29.6253C100.782 28.454 110.182 28.4212 115.766 29.5268C127.503 31.8584 138.276 35.5474 148.087 40.5938C149.236 41.1849 154.065 44.3101 162.572 49.9695C162.999 50.256 163.555 50.2495 163.968 49.9531L178.404 39.6578C179.033 39.2075 179.111 38.3061 178.568 37.7695L165.988 25.1919C165.459 24.6498 165.714 23.7387 166.448 23.5499L216.785 10.7917C217.3 10.6655 217.765 11.1306 217.639 11.6455L204.681 62.4979C204.547 63.0048 203.92 63.18 203.564 62.8098L190.935 50.183C190.227 49.4817 189.064 49.5586 188.455 50.3472L177.353 64.9937ZM24.3872 156.649C26.4675 150.475 27.8415 144.98 28.5094 140.164C29.1554 135.391 30.3762 130.197 32.1718 124.581C35.9272 112.781 39.4746 102.114 42.814 92.579C47.3468 79.673 57.2171 68.3105 66.8082 58.5243C69.9068 55.3607 72.5399 52.334 74.7078 49.4441C74.9864 49.0801 75.152 48.6404 75.1841 48.1797L75.4961 44.7151C75.5911 43.6086 74.4996 42.7813 73.4596 43.1717C50.5219 51.71 33.7922 66.9969 23.2704 89.0323C20.0186 95.8521 18.1902 101.002 17.7851 104.483C16.307 117.34 14.3855 126.125 15.9128 136.617C17.0405 144.389 18.5351 151.067 20.3963 156.649C21.0331 158.57 23.7505 158.57 24.3872 156.649Z" fill="#5F5C5D"/>
<path d="M24.3872 156.649C24.2482 157.069 23.9806 157.433 23.6224 157.692C23.2642 157.951 22.8336 158.09 22.3918 158.09C21.95 158.09 21.5194 157.951 21.1612 157.692C20.803 157.433 20.5354 157.069 20.3964 156.649C18.5351 151.067 17.0406 144.389 15.9129 136.617C14.3855 126.125 16.307 117.34 17.7851 104.483C18.1902 101.002 20.0187 95.8521 23.2704 89.0323C33.7922 66.9969 50.522 51.71 73.4597 43.1717C73.6985 43.082 73.9562 43.0543 74.2087 43.0911C74.4612 43.1279 74.7002 43.228 74.9035 43.3821C75.1068 43.5362 75.2678 43.7392 75.3714 43.9723C75.4751 44.2054 75.518 44.461 75.4961 44.7151L75.1841 48.1797C75.152 48.6404 74.9864 49.0801 74.7078 49.4441C72.54 52.334 69.9068 55.3607 66.8083 58.5242C57.2171 68.3105 47.3468 79.673 42.814 92.579C39.4746 102.113 35.9272 112.781 32.1718 124.581C30.3762 130.197 29.1554 135.391 28.5094 140.164C27.8416 144.98 26.4675 150.475 24.3872 156.649Z" fill="#706E6F"/>
<path d="M189.168 104.599C189.845 106.127 190.248 107.38 190.378 108.359C190.79 111.445 191.117 113.79 191.361 115.394C192.293 121.598 192.199 127.739 191.972 133.88C191.854 137.008 191.516 139.951 190.958 142.71C190.752 143.726 190.645 144.677 190.636 145.563C190.63 146.646 189.987 147.881 189.66 149.279C188.858 152.693 188.169 155.092 187.594 156.478C186.384 159.396 185.762 161.105 185.729 161.605C185.725 161.651 185.712 161.698 185.691 161.743L181.37 170.851C181.135 171.341 180.854 171.807 180.532 172.243C178.894 174.466 177.999 176.941 176.311 178.787C176.202 178.909 175.334 180.153 173.709 182.522C172.903 183.693 171.987 184.888 170.963 186.105C164.403 193.882 156.921 200.159 148.517 204.937C147.711 205.395 146.789 205.954 145.752 206.613C144.311 207.528 143.396 208.072 143.005 208.244C139.536 209.777 136.008 211.225 132.422 212.59L130.267 194.444C130.257 194.356 130.271 194.262 130.307 194.169C130.343 194.077 130.4 193.988 130.475 193.909C130.546 193.829 131.338 193.348 132.85 192.467C133.467 192.101 134.23 191.57 135.137 190.873C137.106 189.353 139.357 187.953 141.89 186.672C144.334 185.431 147.648 181.936 150.432 180.33C152.921 178.894 154.93 177.118 157.456 175.486C161.61 172.812 166.038 169.881 170.742 166.694C171.763 166.007 173.571 165.025 175.064 163.803C175.121 163.755 175.166 163.693 175.192 163.623C175.219 163.553 175.227 163.477 175.216 163.402C175.204 163.328 175.174 163.258 175.127 163.199C175.081 163.14 175.02 163.094 174.95 163.066C173.867 162.617 172.678 162.35 171.385 162.266C168.529 162.069 163.705 162.075 156.914 162.285C154.966 162.344 153.135 162.174 151.421 161.775C151.34 161.757 151.264 161.719 151.2 161.665C151.136 161.611 151.086 161.543 151.053 161.466C151.021 161.388 151.007 161.304 151.013 161.22C151.019 161.136 151.044 161.054 151.087 160.981C155.556 153.533 160.287 146.304 165.28 139.296C167.876 135.656 169.388 132.979 171.851 129.779C174.112 126.851 176.55 122.706 178.302 119.74C179.419 117.838 180.765 115.818 182.34 113.681C184.54 110.695 186.817 107.668 189.168 104.599Z" fill="#3B3B3B"/>
</svg>
