<svg width="512" height="512" viewBox="0 0 512 512" fill="none" xmlns="http://www.w3.org/2000/svg">
<path d="M146.148 120.093C146.223 118.439 145.488 117.694 143.941 117.857C140.213 118.265 134.665 121.91 131.733 123.176C122.61 127.137 114.171 132.578 104.925 138.785C99.2143 142.613 95.8429 146.901 91.1332 151.25C88.3476 153.829 85.2486 157.297 81.8363 161.652C74.0992 171.528 67.5743 181.644 62.2618 192.003C59.7895 196.821 58.492 201.956 56.5203 206.101C55.1853 208.898 54.0888 212.267 53.2306 216.208C51.6981 223.218 50.479 228.683 49.5731 232.603C48.8887 235.543 48.9806 239.576 51.7492 241.362C58.24 245.541 65.1599 249.128 72.5088 252.122C73.9459 252.707 75.2093 252.354 76.2991 251.06" fill="black"/>
<path d="M146.148 120.093C146.223 118.439 145.488 117.694 143.941 117.857C140.213 118.265 134.665 121.91 131.733 123.176C122.61 127.137 114.171 132.578 104.925 138.785C99.2143 142.613 95.8429 146.901 91.1332 151.25C88.3476 153.829 85.2486 157.297 81.8363 161.652C74.0992 171.528 67.5743 181.644 62.2618 192.003C59.7895 196.821 58.492 201.956 56.5203 206.101C55.1853 208.898 54.0888 212.267 53.2306 216.208C51.6981 223.218 50.479 228.683 49.5731 232.603C48.8887 235.543 48.9806 239.576 51.7492 241.362C58.24 245.541 65.1599 249.128 72.5088 252.122C73.9459 252.707 75.2093 252.354 76.2991 251.06" stroke="#FAEE81"/>
<path d="M59.4832 304.074C59.4083 310.24 60.6478 315.597 63.2019 320.143C65.9672 325.07 70.384 331.948 76.4525 340.775C79.2995 344.913 82.6402 348.85 86.4747 352.586C93.4423 359.365 97.1474 362.945 97.5901 363.326C117.601 380.47 140.649 391.478 166.734 396.351C170.443 397.045 173.14 397.096 176.123 397.729C178.16 398.165 180.513 398.451 183.183 398.587C195.36 399.189 207.62 398.771 219.297 396.341C220.578 396.076 222.287 395.783 224.426 395.463C226.851 395.096 232.201 393.615 240.476 391.022" fill="black"/>
<path d="M59.4832 304.074C59.4083 310.24 60.6478 315.597 63.2019 320.143C65.9672 325.07 70.384 331.948 76.4525 340.775C79.2995 344.913 82.6402 348.85 86.4747 352.586C93.4423 359.365 97.1474 362.945 97.5901 363.326C117.601 380.47 140.649 391.478 166.734 396.351C170.443 397.045 173.14 397.096 176.123 397.729C178.16 398.165 180.513 398.451 183.183 398.587C195.36 399.189 207.62 398.771 219.297 396.341C220.578 396.076 222.287 395.783 224.426 395.463C226.851 395.096 232.201 393.615 240.476 391.022" stroke="#F9E645"/>
<path d="M240.476 391.022C256.012 385.503 270.083 377.809 282.69 367.94C286 365.354 289.841 361.955 294.214 357.742C299.506 352.637 303.024 348.898 304.767 346.522C311.606 337.171 315.896 330.998 317.64 328.004C320.8 322.573 324.206 315.665 327.856 307.28C327.923 307.131 327.935 306.962 327.89 306.802C327.846 306.642 327.747 306.501 327.611 306.402L294.286 282.473C294.215 282.423 294.159 282.356 294.121 282.279C294.083 282.202 294.065 282.117 294.068 282.031C294.071 281.945 294.095 281.861 294.138 281.787C294.182 281.712 294.243 281.65 294.316 281.605C294.977 281.197 295.624 280.952 296.257 280.87C304.008 279.863 313.411 278.406 324.465 276.501C324.556 276.485 324.642 276.447 324.716 276.39C324.789 276.333 324.847 276.258 324.884 276.174C324.922 276.089 324.938 275.996 324.93 275.903C324.923 275.81 324.893 275.721 324.843 275.643C323.181 273.132 321.165 270.729 318.795 268.436C318.536 268.185 318.307 267.907 318.11 267.609L316.486 265.2C316.435 265.125 316.399 265.041 316.382 264.952C316.364 264.863 316.364 264.772 316.382 264.682C316.4 264.593 316.436 264.508 316.487 264.432C316.538 264.356 316.603 264.291 316.68 264.24C319.612 262.29 323.474 261.749 326.436 260.646C332.117 258.537 335.791 257.23 337.46 256.726C337.602 256.683 337.726 256.595 337.814 256.475C337.903 256.356 337.95 256.211 337.95 256.063C338.018 243.622 336.711 231.174 334.027 218.719C333.632 216.882 332.992 214.976 332.106 213.002" fill="black"/>
<path d="M240.476 391.022C256.012 385.503 270.083 377.809 282.69 367.94C286 365.354 289.841 361.955 294.214 357.742C299.506 352.637 303.024 348.898 304.767 346.522C311.606 337.171 315.896 330.998 317.64 328.004C320.8 322.573 324.206 315.665 327.856 307.28C327.923 307.131 327.935 306.962 327.89 306.802C327.846 306.642 327.747 306.501 327.611 306.402L294.286 282.473C294.215 282.423 294.159 282.356 294.121 282.279C294.083 282.202 294.065 282.117 294.068 282.031C294.071 281.945 294.095 281.861 294.138 281.787C294.182 281.712 294.243 281.65 294.316 281.605C294.977 281.197 295.624 280.952 296.257 280.87C304.008 279.863 313.411 278.406 324.465 276.501C324.556 276.485 324.642 276.447 324.716 276.39C324.789 276.333 324.847 276.258 324.884 276.174C324.922 276.089 324.938 275.996 324.93 275.903C324.923 275.81 324.893 275.721 324.843 275.643C323.181 273.132 321.165 270.729 318.795 268.436C318.536 268.185 318.307 267.907 318.11 267.609L316.486 265.2C316.435 265.125 316.399 265.041 316.382 264.952C316.364 264.863 316.364 264.772 316.382 264.682C316.4 264.593 316.436 264.508 316.487 264.432C316.538 264.356 316.603 264.291 316.68 264.24C319.612 262.29 323.474 261.749 326.436 260.646C332.117 258.537 335.791 257.23 337.46 256.726C337.602 256.683 337.726 256.595 337.814 256.475C337.903 256.356 337.95 256.211 337.95 256.063C338.018 243.622 336.711 231.174 334.027 218.719C333.632 216.882 332.992 214.976 332.106 213.002" stroke="#F0D350"/>
<path d="M332.105 213.002C329.408 204.005 325.921 195.185 321.644 186.541C319.141 181.488 316.066 177.313 313.501 172.525C313.175 171.9 312.781 171.315 312.326 170.779C306.963 164.368 303.142 158.988 297.86 153.751C292.813 148.759 290.433 145.533 285.733 142.633C285.377 142.419 285.076 142.121 284.855 141.766C284.412 141.051 283.796 140.537 283.006 140.224C282.642 140.083 282.315 139.871 282.045 139.601C279.968 137.485 277.502 135.481 274.649 133.589C266.387 128.11 257.598 123.482 248.28 119.705C243.632 117.816 240.24 117.101 236.276 115.458C230.677 113.14 223.986 112.191 217.815 110.925C214.369 110.217 211.246 109.765 208.447 109.567C196.752 108.73 185.48 108.992 174.631 110.353C169.127 111.041 160.672 113.083 149.263 116.479C149.017 116.552 148.799 116.702 148.64 116.907L146.147 120.093" fill="black"/>
<path d="M332.105 213.002C329.408 204.005 325.921 195.185 321.644 186.541C319.141 181.488 316.066 177.313 313.501 172.525C313.175 171.9 312.781 171.315 312.326 170.779C306.963 164.368 303.142 158.988 297.86 153.751C292.813 148.759 290.433 145.533 285.733 142.633C285.377 142.419 285.076 142.121 284.855 141.766C284.412 141.051 283.796 140.537 283.006 140.224C282.642 140.083 282.315 139.871 282.045 139.601C279.968 137.485 277.502 135.481 274.649 133.589C266.387 128.11 257.598 123.482 248.28 119.705C243.632 117.816 240.24 117.101 236.276 115.458C230.677 113.14 223.986 112.191 217.815 110.925C214.369 110.217 211.246 109.765 208.447 109.567C196.752 108.73 185.48 108.992 174.631 110.353C169.127 111.041 160.672 113.083 149.263 116.479C149.017 116.552 148.799 116.702 148.64 116.907L146.147 120.093" stroke="#F9E645"/>
<path d="M332.104 213.002C331.519 214.302 330.841 215.456 330.071 216.463C328.716 218.246 328.011 219.182 327.957 219.27C320.396 230.663 314.175 240.045 309.291 247.416C307.003 250.877 303.754 254.276 301.711 258.105C300.655 260.085 299.191 262.212 297.318 264.485C295.928 266.159 294.43 268.245 292.823 270.743C289.349 276.147 287.605 278.855 287.592 278.869C285.865 281.983 282.504 285.137 281.278 288.547C281.203 288.751 280.495 289.605 279.153 291.109C278.739 291.578 278.369 292.087 278.05 292.63C275.782 296.51 273.19 300.222 270.275 303.768C270.166 303.898 269.649 305.061 268.722 307.26C268.695 307.321 268.684 307.389 268.689 307.456C268.695 307.523 268.717 307.587 268.753 307.644C268.789 307.7 268.839 307.747 268.898 307.78C268.957 307.812 269.023 307.83 269.09 307.831L310.742 308.434C310.8 308.435 310.856 308.453 310.903 308.487C310.95 308.52 310.985 308.567 311.005 308.621C311.025 308.675 311.028 308.734 311.014 308.79C311 308.845 310.969 308.896 310.926 308.934L305.808 313.303C305.517 313.553 305.185 313.747 304.827 313.875C300.046 315.61 296.848 318.683 292.976 321.286C285.048 326.602 269.025 337.511 244.908 354.016C240.321 357.16 235.1 358.487 236.5 365.694C238.107 373.984 239.432 382.427 240.474 391.022" fill="black"/>
<path d="M332.104 213.002C331.519 214.302 330.841 215.456 330.071 216.463C328.716 218.246 328.011 219.182 327.957 219.27C320.396 230.663 314.175 240.045 309.291 247.416C307.003 250.877 303.754 254.276 301.711 258.105C300.655 260.085 299.191 262.212 297.318 264.485C295.928 266.159 294.43 268.245 292.823 270.743C289.349 276.147 287.605 278.855 287.592 278.869C285.865 281.983 282.504 285.137 281.278 288.547C281.203 288.751 280.495 289.605 279.153 291.109C278.739 291.578 278.369 292.087 278.05 292.63C275.782 296.51 273.19 300.222 270.275 303.768C270.166 303.898 269.649 305.061 268.722 307.26C268.695 307.321 268.684 307.389 268.689 307.456C268.695 307.523 268.717 307.587 268.753 307.644C268.789 307.7 268.839 307.747 268.898 307.78C268.957 307.812 269.023 307.83 269.09 307.831L310.742 308.434C310.8 308.435 310.856 308.453 310.903 308.487C310.95 308.52 310.985 308.567 311.005 308.621C311.025 308.675 311.028 308.734 311.014 308.79C311 308.845 310.969 308.896 310.926 308.934L305.808 313.303C305.517 313.553 305.185 313.747 304.827 313.875C300.046 315.61 296.848 318.683 292.976 321.286C285.048 326.602 269.025 337.511 244.908 354.016C240.321 357.16 235.1 358.487 236.5 365.694C238.107 373.984 239.432 382.427 240.474 391.022" stroke="#F1CA31"/>
<path d="M76.2993 251.06C78.1587 246.262 79.354 240.75 80.9988 236.431C83.4916 229.928 85.3101 222.088 87.006 216.616C92.0189 200.466 95.2472 190.104 96.6911 185.531C97.8558 181.842 100.059 177.922 103.301 173.77C115.459 158.205 128.777 141.398 143.257 123.349C144.177 122.206 145.14 121.12 146.148 120.093" fill="black"/>
<path d="M76.2993 251.06C78.1587 246.262 79.354 240.75 80.9988 236.431C83.4916 229.928 85.3101 222.088 87.006 216.616C92.0189 200.466 95.2472 190.104 96.6911 185.531C97.8558 181.842 100.059 177.922 103.301 173.77C115.459 158.205 128.777 141.398 143.257 123.349C144.177 122.206 145.14 121.12 146.148 120.093" stroke="#FBE562"/>
<path d="M377.731 440.351C377.858 440.396 377.994 440.409 378.126 440.388C378.259 440.367 378.384 440.312 378.49 440.23C378.596 440.147 378.68 440.039 378.733 439.916C378.786 439.792 378.807 439.658 378.794 439.524L378.007 432.051C378 431.97 377.983 431.894 377.956 431.827C375.841 426.426 374.942 420.229 373.318 415.329C372.03 411.44 371.612 406.315 369.578 401.762C369.054 400.591 368.642 399.145 368.342 397.423C367.954 395.211 366.96 390.634 365.359 383.692C364.389 379.486 362.713 375.464 362.182 371.37C362.158 371.189 362.083 371.018 361.966 370.877C361.849 370.737 361.694 370.632 361.52 370.576C361.346 370.519 361.159 370.513 360.982 370.558C360.804 370.603 360.643 370.697 360.517 370.829C353.747 377.969 348.472 383.243 344.692 386.653C343.54 387.687 342.274 389.069 340.891 390.798C340.162 391.716 339.389 391.978 338.572 391.584C338.122 391.359 337.578 390.713 336.937 389.644C333.362 383.662 330.913 379.895 329.592 378.343C326.248 374.43 324.058 371.527 323.023 369.635C322.894 369.391 322.736 369.161 322.553 368.951L318.752 364.316C318.657 364.202 318.54 364.11 318.407 364.044C318.274 363.978 318.128 363.941 317.979 363.934C317.831 363.927 317.682 363.951 317.542 364.005C317.403 364.058 317.275 364.14 317.169 364.245L303.295 378.108C303.122 378.282 302.989 378.491 302.907 378.722C302.824 378.952 302.793 379.198 302.817 379.442C302.84 379.686 302.917 379.921 303.042 380.132C303.167 380.343 303.337 380.523 303.54 380.66C309.786 384.88 317.816 390.655 327.63 397.985C328.604 398.713 329.302 399.846 329.725 401.384C329.812 401.696 329.814 402.025 329.731 402.338C329.649 402.65 329.484 402.934 329.255 403.16C325.393 407.006 322.008 410.426 319.1 413.42C318.602 413.937 317.645 414.628 316.229 415.493C316.202 415.513 316.174 415.533 316.147 415.554L310.099 421.536C309.971 421.664 309.882 421.826 309.844 422.002C309.805 422.179 309.819 422.363 309.882 422.532C309.946 422.701 310.057 422.849 310.203 422.956C310.348 423.064 310.521 423.127 310.702 423.139C312.466 423.261 314.277 423.7 316.137 424.456C316.619 424.653 317.123 424.79 317.639 424.864C323.033 425.609 329.387 428.386 334.598 429.376C339.202 430.254 343.455 431.292 347.358 432.49C351.904 433.889 355.603 434.328 360.251 435.532C363.878 436.461 366.442 437.635 369.967 438.248C372.344 438.663 374.932 439.364 377.731 440.351Z" fill="black" stroke="#F9E645"/>
<path d="M373.237 435.247C373.369 435.284 373.51 435.279 373.64 435.234C373.771 435.189 373.883 435.104 373.963 434.993C374.043 434.882 374.086 434.75 374.085 434.614C374.085 434.478 374.042 434.346 373.962 434.236C370.434 429.274 366.487 424.725 362.121 420.587C361.435 419.942 360.809 419.231 360.252 418.463C357.453 414.645 354.735 412.001 351.742 408.265C349.017 404.876 346.504 402.051 344.202 399.792C342.772 398.383 341.498 398.362 340.381 399.73C337.704 403.018 333.914 405.845 330.972 408.704C328.438 411.161 325.046 414.591 320.796 418.994C320.743 419.051 320.704 419.121 320.685 419.197C320.666 419.274 320.667 419.353 320.687 419.429C320.708 419.505 320.747 419.574 320.802 419.63C320.857 419.686 320.925 419.727 321.001 419.75L373.237 435.247Z" fill="black" stroke="#F1CA31"/>
<path d="M397.221 46.0048C394.853 46.1278 392.64 47.0885 390.353 47.6294C377.692 51.0681 364.945 54.1831 352.241 57.4589C326.88 63.9191 301.525 70.3974 276.167 76.8703C275.239 77.1805 274.501 78.1274 274.625 79.1238C274.64 80.4399 275.961 81.1349 276.722 82.0426C285.145 90.4594 293.568 98.8763 301.991 107.293C298.955 109.536 295.922 111.784 292.883 114.022C281.101 105.789 268.248 99.1338 254.831 93.9958C243.873 89.7452 232.507 86.4028 220.831 84.8704C210.479 83.4051 200.019 82.5636 189.56 82.7334C183.845 82.9718 178.174 83.8987 172.494 84.3432C159.285 85.6585 146.27 88.7848 133.887 93.5582C115.424 100.575 97.9085 110.394 82.9413 123.337C79.3691 126.511 75.7448 129.634 72.3098 132.956C58.2008 147.455 46.2275 164.131 37.7347 182.52C30.9352 197.126 26.4222 212.752 24.0305 228.671C20.8399 249.393 21.3735 270.706 25.8861 291.193C29.2574 306.538 34.6864 321.428 41.9135 335.378C47.1902 345.525 53.6343 355.042 60.9148 363.857C68.4402 373.082 76.8138 381.65 86.1975 388.999C102.444 401.954 121.063 411.937 140.882 418.212C169.262 427.284 199.972 428.823 229.159 422.91C249.374 418.839 268.747 410.866 286.156 399.849C287.768 401.009 289.379 402.169 290.991 403.329C280.903 413.424 270.783 423.492 260.714 433.604C259.492 434.95 260.211 437.375 261.978 437.827C311.99 450.529 362.001 463.237 412.013 475.942C413.689 476.335 415.367 474.658 414.974 472.983C402.285 423.02 389.593 373.057 376.9 323.094C376.439 321.327 374.02 320.571 372.644 321.778C365.242 329.101 357.904 336.498 350.526 343.849C347.879 346.495 345.231 349.141 342.583 351.786C341.397 350.14 340.121 348.535 338.988 346.863C344.591 338.015 349.45 328.677 353.314 318.937C358.02 307.172 361.334 294.865 363.337 282.359C366.974 281.759 370.611 281.16 374.248 280.56C374.26 293.101 374.224 305.645 374.266 318.183C374.371 319.943 376.59 321.042 378.061 320.069C413.815 298.776 449.568 277.481 485.323 256.189C486.826 255.277 486.824 252.844 485.321 251.934C449.511 230.661 413.702 209.389 377.894 188.114C376.408 187.286 374.341 188.405 374.254 190.106C374.217 202.683 374.249 215.265 374.238 227.844C370.58 227.269 366.922 226.694 363.264 226.119C359.559 205.105 352.22 184.696 341.307 166.335C338.678 161.878 335.827 157.554 332.828 153.338C334.939 150.386 337.065 147.444 339.181 144.495C348.061 153.354 356.915 162.242 365.81 171.083C367.169 172.318 369.604 171.617 370.115 169.859C380.37 129.603 390.601 89.3384 400.849 49.0794C401.209 47.544 399.871 45.9755 398.305 46.0282C397.944 45.9996 397.582 45.9947 397.221 46.0048ZM361.376 146.567C354.112 139.332 346.887 132.054 339.599 124.847C338.371 123.787 336.31 124.222 335.54 125.632C331.641 131.05 327.742 136.468 323.843 141.885C318.663 135.807 312.864 130.282 306.744 125.16C306.072 124.487 305.263 123.77 304.749 123.049C305.996 121.676 307.675 120.797 309.119 119.651C312.902 116.922 316.615 114.085 320.391 111.351C321.447 110.946 322.49 110.094 322.46 108.864C322.552 107.373 321.095 106.556 320.233 105.565C313.499 98.8331 306.764 92.1007 300.03 85.3683C327.435 78.4189 354.84 71.4695 382.246 64.5201C375.289 91.869 368.332 119.218 361.376 146.567ZM193.942 96.883C216.195 96.8951 238.599 101.749 258.938 110.958C267.868 114.992 276.422 119.856 284.456 125.463C285.98 126.537 287.701 127.774 289.199 128.917C292.033 131.048 294.96 133.436 297.647 135.772C311.382 147.719 323.094 162.232 331.862 178.257C334.92 183.832 337.65 189.587 340.041 195.479C340.383 196.371 340.856 197.515 341.226 198.515C343.339 204.062 345.121 209.733 346.588 215.484C346.797 216.374 347.102 217.535 347.326 218.538C347.686 220.08 348.012 221.629 348.332 223.18C348.503 224.119 348.754 225.325 348.932 226.376C350.942 237.67 351.729 249.182 351.321 260.643C350.348 268.744 349.304 276.877 348.43 285.006C347.68 288.048 347.106 291.128 346.588 294.215C345.513 298.645 344.394 303.079 342.861 307.377C342.651 308.127 342.066 308.648 341.9 309.419C340.447 313.325 338.839 317.173 337.1 320.961C336.661 321.873 336.128 323.049 335.629 324.051C331.916 331.728 327.531 339.068 322.695 346.088C322.049 347.258 322.474 348.696 323.359 349.617C328.764 356.885 334.125 364.189 339.558 371.435C340.558 372.517 342.422 372.309 343.279 371.147C351.599 362.834 359.919 354.521 368.238 346.207C377.654 383.29 387.07 420.372 396.487 457.455C359.394 448.032 322.301 438.608 285.208 429.185C293.653 420.736 302.121 412.307 310.552 403.845C311.757 402.56 311.341 400.287 309.808 399.447C302.655 394.327 295.533 389.159 288.36 384.069C286.847 383.116 284.835 383.477 283.522 384.614C276.268 389.592 268.6 393.969 260.621 397.68C251.695 401.825 242.21 405.192 232.59 407.582C229.547 408.343 226.586 408.98 223.491 409.567C222.178 409.805 220.64 410.081 219.309 410.289C214.256 411.094 209.165 411.651 204.058 411.97C202.363 412.076 200.463 412.159 198.687 412.215C196.678 412.266 194.465 412.297 192.376 412.27C182.124 412.163 171.716 411.119 161.6 409.055C159.927 408.717 158.227 408.344 156.66 407.965C149.573 406.289 142.608 404.102 135.824 401.456C134.819 401.046 133.552 400.556 132.457 400.087C111.273 391.251 92.1163 377.646 76.7372 360.621C76.1415 359.938 75.3345 359.057 74.673 358.281C59.5242 340.865 48.3211 320.067 42.0332 297.868C41.1664 294.846 40.3719 291.754 39.6904 288.765C38.9753 285.461 38.0624 282.152 37.8147 278.788C37.4914 275.283 37.0929 271.788 36.5642 268.308C36.1979 265.623 35.9334 262.76 35.9601 259.965C35.9092 256.295 35.8497 252.625 35.6623 248.959C37.6683 248.968 39.6743 248.978 41.6804 248.987C39.9734 247.754 38.2631 246.521 36.5582 245.288C36.1983 243.441 36.6682 241.556 36.7825 239.701C37.4308 233.53 38.4096 227.352 39.7335 221.226C40.6284 217.103 41.6447 213.155 42.8555 209.085C46.9157 195.497 52.846 182.47 60.4409 170.489C61.4351 168.933 62.5585 167.207 63.6538 165.618C66.2718 161.8 68.9879 158.189 71.9223 154.614C72.7646 153.588 73.6564 152.531 74.5348 151.517C82.4918 142.319 91.518 134.049 101.368 126.913C109.559 120.98 118.456 115.751 127.693 111.48C131.277 109.822 134.827 108.333 138.534 106.938C142.242 105.543 146.175 104.231 150.046 103.106C153.967 101.967 157.876 100.994 161.914 100.154C167.711 98.945 173.864 98.0309 179.76 97.5098C182.716 97.2422 185.714 97.0619 188.73 96.9627C190.385 96.9116 192.223 96.8834 193.942 96.883ZM403.959 220.142C423.087 231.407 442.166 242.726 461.231 254.115C437.025 268.636 412.772 283.078 388.439 297.385C388.43 287.28 388.458 277.173 388.425 267.07C388.355 265.303 386.437 264.012 384.759 264.502C378.216 265.583 371.674 266.664 365.131 267.746C365.485 261.272 365.841 254.783 365.495 248.301C365.389 245.757 365.258 243.215 365.113 240.673C371.86 241.76 378.6 242.905 385.351 243.957C387.08 244.133 388.624 242.474 388.417 240.765C388.399 230.84 388.381 220.915 388.363 210.99C393.562 214.04 398.761 217.091 403.959 220.142Z" fill="white"/>
<path d="M320.203 109.149C320.258 109.121 320.306 109.081 320.343 109.032C320.38 108.982 320.404 108.925 320.414 108.864C320.424 108.803 320.419 108.74 320.4 108.682C320.381 108.623 320.349 108.57 320.305 108.526L296.695 84.9234C296.629 84.8589 296.58 84.7778 296.556 84.6885C296.531 84.5993 296.531 84.5051 296.555 84.4156C296.579 84.3262 296.626 84.2447 296.692 84.1796C296.758 84.1146 296.84 84.0683 296.93 84.0455L384.372 61.8721C384.444 61.8539 384.519 61.8548 384.591 61.8745C384.662 61.8942 384.727 61.9322 384.78 61.9847C384.832 62.0371 384.87 62.1023 384.89 62.1738C384.91 62.2454 384.911 62.3208 384.893 62.3927L362.835 149.106C362.798 149.25 362.723 149.383 362.618 149.489C362.513 149.595 362.382 149.672 362.238 149.711C362.094 149.751 361.942 149.751 361.797 149.713C361.653 149.675 361.521 149.599 361.415 149.494L338.388 126.493C338.32 126.425 338.238 126.372 338.147 126.339C338.056 126.305 337.959 126.292 337.863 126.3C337.767 126.307 337.673 126.336 337.589 126.384C337.505 126.431 337.433 126.497 337.376 126.575L324.718 144.165C324.629 144.287 324.514 144.388 324.38 144.46C324.246 144.531 324.098 144.572 323.947 144.577C323.795 144.583 323.644 144.555 323.505 144.494C323.366 144.433 323.243 144.341 323.145 144.226C318.132 138.223 312.333 132.486 305.747 127.014C305.174 126.538 304.068 125.408 302.426 123.625C302.327 123.52 302.267 123.384 302.256 123.24C302.245 123.095 302.283 122.95 302.365 122.828C303.08 121.767 303.812 120.967 304.562 120.429C308.968 117.258 313.821 113.685 319.12 109.71C319.154 109.69 319.515 109.503 320.203 109.149Z" fill="#5D5D5D"/>
<path d="M344.028 309.567C339.118 322.886 332.63 335.344 324.566 346.941C324.377 347.208 324.381 347.566 324.576 347.829L340.974 369.951C341.105 370.14 341.379 370.16 341.546 369.992L368.874 342.684C369.073 342.48 369.42 342.577 369.498 342.857L399.166 459.707C399.225 459.965 398.998 460.197 398.747 460.135L282.618 430.632C282.004 430.476 281.793 429.713 282.24 429.264L308.966 402.558C309.335 402.193 309.286 401.584 308.864 401.282L287.471 385.918C286.816 385.446 285.932 385.438 285.264 385.897C252.776 408.377 214.24 417.698 174.958 413.236C119.565 406.948 71.7118 372.105 48.4799 321.307C43.4739 310.356 39.6461 298.603 36.9967 286.046C33.6601 268.131 31.3387 247.454 34.1114 242.715C36.4884 215.628 44.9007 191.217 58.7064 169.411C77.6782 139.428 106.018 116.601 139.364 104.453C213.372 77.4813 296.39 108.975 333.832 177.598C347.802 203.209 354.32 230.871 353.386 260.585C352.963 272.667 348.914 301.177 344.028 309.567ZM146.148 120.093C146.223 118.439 145.487 117.694 143.941 117.857C140.212 118.265 134.665 121.91 131.733 123.176C122.61 127.137 114.171 132.578 104.925 138.785C99.2142 142.613 95.8428 146.901 91.1331 151.25C88.3474 153.829 85.2485 157.297 81.8362 161.652C74.099 171.528 67.5742 181.644 62.2617 192.003C59.7894 196.821 58.4919 201.956 56.5201 206.101C55.1852 208.898 54.0886 212.267 53.2305 216.208C51.698 223.218 50.4789 228.683 49.573 232.603C48.8229 255.983 47.0599 280.422 57.7359 305.565C66.7244 318.333 57.9513 310.797 63.2016 320.143C65.9668 325.07 70.3837 331.948 76.4522 340.775C79.2992 344.913 82.6399 348.85 86.4744 352.586C93.442 359.365 97.1471 362.945 97.5898 363.326C117.6 380.47 140.648 391.478 166.734 396.351C170.443 397.045 173.14 397.096 176.123 397.729C178.159 398.165 180.512 398.451 183.182 398.587C195.36 399.189 207.62 398.771 219.297 396.341C220.578 396.076 222.287 395.783 224.426 395.463C226.85 395.096 232.2 393.615 240.476 391.022C256.011 385.503 270.082 377.809 282.689 367.94C286 365.354 289.841 361.955 294.213 357.742C299.506 352.637 303.023 348.898 304.767 346.522C311.605 337.171 315.896 330.998 317.64 328.004C320.8 322.573 324.205 315.665 327.856 307.28C327.993 306.972 327.891 306.606 327.611 306.402L294.285 282.473C293.981 282.256 293.997 281.8 294.316 281.605C294.976 281.197 295.623 280.952 296.257 280.87C310.788 275.872 323.277 284.305 318.794 268.436C318.536 268.185 318.306 267.907 318.109 267.609L316.485 265.2C316.271 264.885 316.358 264.454 316.679 264.24C319.611 262.29 323.473 261.749 326.436 260.646C332.116 258.537 335.791 257.23 337.459 256.726C337.751 256.637 337.95 256.368 337.95 256.063C338.018 243.622 336.71 231.174 334.027 218.719C333.632 216.882 332.991 214.976 332.106 213.002C329.409 204.005 325.922 195.185 321.644 186.541C319.141 181.488 316.066 177.313 313.502 172.525C313.176 171.9 312.782 171.315 312.327 170.779C306.963 164.368 303.143 158.988 297.861 153.751C292.814 148.759 290.433 145.533 285.734 142.633C285.378 142.419 285.077 142.121 284.855 141.766C284.413 141.051 283.796 140.537 283.006 140.224C282.642 140.083 282.315 139.871 282.046 139.601C279.968 137.485 277.503 135.481 274.649 133.589C266.388 128.11 257.598 123.482 248.281 119.705C243.632 117.816 240.241 117.101 236.277 115.458C230.678 113.14 223.986 112.191 217.816 110.925C214.369 110.217 211.247 109.765 208.447 109.567C196.753 108.73 185.481 108.992 174.631 110.353C169.128 111.041 160.672 113.083 149.264 116.479C149.018 116.552 148.8 116.702 148.641 116.907L146.148 120.093ZM377.732 440.351C378.283 440.549 378.851 440.106 378.795 439.524L378.008 432.051C378.001 431.97 377.984 431.894 377.957 431.827C375.842 426.426 374.943 420.229 373.319 415.329C372.031 411.44 371.612 406.315 369.579 401.762C369.055 400.591 368.643 399.145 368.343 397.423C367.955 395.211 366.961 390.634 365.36 383.692C364.389 379.486 362.714 375.464 362.183 371.37C362.076 370.563 361.08 370.239 360.518 370.829C353.747 377.969 348.472 383.243 344.692 386.653C343.541 387.687 342.275 389.069 340.892 390.798C340.163 391.716 339.39 391.978 338.573 391.584C338.123 391.359 337.578 390.713 336.938 389.644C333.362 383.662 330.914 379.895 329.593 378.343C326.249 374.43 324.059 371.527 323.024 369.635C322.895 369.391 322.737 369.161 322.554 368.951L318.753 364.316C318.352 363.835 317.621 363.802 317.17 364.245L303.296 378.108C302.558 378.848 302.676 380.075 303.541 380.66C309.787 384.88 317.817 390.655 327.631 397.985C328.605 398.713 329.303 399.846 329.725 401.384C329.903 402.019 329.722 402.699 329.255 403.16C325.394 407.006 322.009 410.426 319.1 413.42C318.603 413.937 317.646 414.628 316.23 415.493L316.148 415.554L310.1 421.536C309.526 422.107 309.895 423.087 310.703 423.139C312.467 423.261 314.278 423.7 316.138 424.456C316.62 424.653 317.124 424.79 317.64 424.864C323.034 425.609 329.388 428.386 334.599 429.376C339.203 430.254 343.456 431.292 347.359 432.49C351.905 433.889 355.603 434.328 360.252 435.532C363.879 436.461 366.443 437.635 369.968 438.248C372.345 438.663 374.933 439.364 377.732 440.351Z" fill="#F8EF64"/>
<path d="M332.106 213.002C331.52 214.302 330.843 215.456 330.073 216.463C328.718 218.246 328.013 219.182 327.958 219.27C320.398 230.663 314.177 240.045 309.293 247.416C307.005 250.877 303.756 254.276 301.713 258.104C300.657 260.085 299.193 262.212 297.32 264.485C295.93 266.159 294.432 268.245 292.824 270.743C289.351 276.147 287.607 278.855 287.594 278.869C285.867 281.983 282.506 285.137 281.28 288.547C281.205 288.751 280.497 289.605 279.155 291.109C278.74 291.578 278.371 292.087 278.052 292.63C275.784 296.51 273.192 300.222 270.277 303.768C270.168 303.897 269.65 305.061 268.724 307.26C268.607 307.527 268.8 307.826 269.092 307.831L310.744 308.434C311.005 308.439 311.124 308.761 310.928 308.934L305.809 313.303C305.519 313.553 305.187 313.747 304.829 313.875C300.047 315.61 296.85 318.683 292.978 321.286C285.05 326.602 269.027 337.511 244.91 354.016C240.323 357.16 235.102 358.487 236.502 365.694C238.109 373.984 239.434 382.426 240.476 391.022C232.201 393.615 226.851 395.096 224.426 395.463C222.287 395.783 220.578 396.076 219.297 396.341C207.62 398.771 195.36 399.189 183.183 398.587C180.513 398.451 178.16 398.165 176.123 397.729C173.14 397.096 170.443 397.045 166.734 396.351C140.649 391.478 117.601 380.47 97.5901 363.326C97.1474 362.945 93.4423 359.365 86.4748 352.586C82.6402 348.85 79.2995 344.913 76.4525 340.775C70.384 331.948 65.9672 325.07 63.2019 320.143C60.6478 315.597 59.4083 310.24 59.4832 304.074C61.5741 299.977 63.2394 295.247 64.479 289.884C67.6028 259.384 67.4305 264.2 76.2993 251.06C78.1586 246.262 79.354 240.75 80.9988 236.431C83.4916 229.928 85.3101 222.088 87.006 216.616C92.0188 200.466 95.2472 190.104 96.6911 185.531C97.8558 181.842 100.059 177.922 103.301 173.77C115.459 158.205 128.777 141.398 143.257 123.349C144.177 122.206 145.14 121.12 146.148 120.093L148.641 116.907C148.8 116.702 149.018 116.552 149.264 116.479C160.673 113.083 169.128 111.041 174.632 110.353C185.481 108.992 196.753 108.73 208.448 109.567C211.247 109.765 214.37 110.217 217.816 110.925C223.987 112.191 230.678 113.14 236.277 115.458C240.241 117.101 243.633 117.816 248.281 119.705C257.598 123.482 266.388 128.11 274.65 133.588C277.503 135.481 279.969 137.485 282.046 139.601C282.316 139.871 282.643 140.083 283.006 140.224C283.797 140.537 284.413 141.051 284.856 141.766C285.077 142.121 285.378 142.419 285.734 142.633C290.434 145.533 292.814 148.759 297.861 153.751C303.143 158.988 306.964 164.368 312.327 170.779C312.782 171.315 313.176 171.9 313.502 172.525C316.067 177.313 319.142 181.488 321.645 186.541C325.922 195.185 329.409 204.005 332.106 213.002Z" fill="#FADC26"/>
<path d="M146.148 120.093C145.14 121.12 144.176 122.206 143.257 123.349C128.777 141.398 115.458 158.205 103.301 173.77C100.059 177.922 97.8556 181.842 96.6909 185.531C95.247 190.104 92.0186 200.466 87.0058 216.616C85.3099 222.088 83.4914 229.928 80.9986 236.431C79.3538 240.75 78.1585 246.262 76.2991 251.06C75.2094 252.354 60.945 308.744 59.5079 308.159C52.1589 305.164 52.6753 292.964 51.1021 284.126C46.0611 255.081 48.8887 235.543 49.5732 232.603C50.479 228.683 51.6982 223.218 53.2306 216.208C54.0888 212.267 55.1853 208.898 56.5203 206.101C58.492 201.956 59.7895 196.821 62.2619 192.003C67.5743 181.644 74.0992 171.528 81.8364 161.652C85.2486 157.297 88.3476 153.829 91.1332 151.25C95.843 146.901 99.2144 142.613 104.925 138.785C114.171 132.578 122.61 127.137 131.733 123.176C134.665 121.91 140.213 118.265 143.941 117.857C145.488 117.694 146.223 118.439 146.148 120.093Z" fill="#FCED9D"/>
<path d="M464.693 254.113C464.693 254.324 464.649 254.453 464.56 254.501C436.506 271.345 410.601 286.743 386.844 300.695C386.799 300.723 386.748 300.737 386.695 300.738C386.642 300.739 386.591 300.725 386.545 300.699C386.499 300.673 386.461 300.636 386.435 300.59C386.408 300.545 386.395 300.493 386.395 300.44V267.303C386.395 267.179 386.369 267.057 386.316 266.945C386.264 266.833 386.187 266.733 386.092 266.654C385.997 266.574 385.885 266.516 385.764 266.483C385.643 266.451 385.517 266.445 385.394 266.466L364.154 269.977C364.01 270.002 363.863 269.994 363.722 269.953C363.582 269.913 363.452 269.841 363.344 269.743C363.235 269.644 363.149 269.523 363.093 269.387C363.037 269.251 363.012 269.104 363.02 268.956C363.408 262.232 363.602 257.315 363.602 254.205C363.595 251.095 363.394 246.181 362.999 239.463C362.992 239.317 363.016 239.171 363.072 239.036C363.127 238.901 363.212 238.78 363.32 238.682C363.428 238.584 363.556 238.512 363.695 238.47C363.834 238.429 363.98 238.419 364.123 238.443L385.373 241.913C385.497 241.934 385.623 241.928 385.744 241.896C385.864 241.863 385.976 241.805 386.072 241.725C386.167 241.646 386.243 241.546 386.296 241.434C386.348 241.322 386.375 241.2 386.374 241.076L386.313 207.939C386.313 207.886 386.326 207.834 386.353 207.789C386.379 207.743 386.417 207.706 386.463 207.68C386.509 207.654 386.561 207.64 386.613 207.641C386.666 207.642 386.718 207.656 386.763 207.684C410.539 221.588 436.472 236.935 464.56 253.725C464.649 253.779 464.693 253.909 464.693 254.113Z" fill="#5D5D5D"/>
<path d="M332.104 213.002C332.99 214.976 333.63 216.882 334.025 218.719C336.709 231.174 338.016 243.622 337.948 256.063C337.952 294.87 332.501 297.089 327.854 307.28C324.204 315.665 320.798 322.573 317.638 328.004C315.894 330.998 311.604 337.171 304.765 346.522C303.022 348.898 299.504 352.637 294.212 357.742C289.839 361.955 285.998 365.354 282.688 367.94C270.081 377.809 256.01 385.503 240.474 391.022C239.432 382.427 238.107 373.984 236.5 365.694C235.1 358.487 240.321 357.16 244.908 354.016C269.025 337.511 285.048 326.602 292.976 321.286C296.848 318.683 300.046 315.61 304.827 313.875C305.185 313.747 305.517 313.553 305.808 313.303L310.926 308.934C311.122 308.761 311.003 308.438 310.742 308.434L269.09 307.831C268.798 307.826 268.606 307.527 268.722 307.26C269.649 305.061 270.166 303.898 270.275 303.768C273.19 300.222 275.782 296.51 278.05 292.63C278.369 292.087 278.739 291.578 279.153 291.109C280.495 289.605 281.203 288.751 281.278 288.547C282.504 285.137 285.865 281.983 287.592 278.869C287.605 278.856 289.349 276.147 292.823 270.743C294.43 268.245 295.928 266.159 297.318 264.485C299.191 262.212 300.655 260.085 301.711 258.105C303.754 254.276 307.003 250.877 309.291 247.416C314.175 240.045 320.396 230.663 327.957 219.27C328.011 219.182 328.716 218.246 330.071 216.463C330.841 215.456 331.519 214.302 332.104 213.002Z" fill="#E8B73C"/>
<path d="M377.731 440.351C374.932 439.364 372.344 438.663 369.967 438.248C366.442 437.635 363.878 436.461 360.251 435.532C355.603 434.328 351.904 433.889 347.358 432.49C343.455 431.292 339.202 430.254 334.598 429.376C329.387 428.386 323.033 425.609 317.639 424.864C317.123 424.79 316.619 424.653 316.137 424.456C314.277 423.7 312.466 423.261 310.702 423.139C310.521 423.127 310.348 423.064 310.203 422.956C310.057 422.849 309.946 422.701 309.882 422.532C309.819 422.363 309.805 422.179 309.844 422.002C309.882 421.826 309.971 421.664 310.099 421.536L316.147 415.554C316.174 415.533 316.202 415.513 316.229 415.493C317.645 414.628 318.602 413.937 319.1 413.42C322.008 410.426 325.393 407.006 329.255 403.16C329.484 402.934 329.649 402.65 329.731 402.338C329.814 402.025 329.812 401.696 329.725 401.384C329.302 399.846 328.604 398.713 327.63 397.985C317.816 390.655 309.786 384.88 303.54 380.66C303.337 380.523 303.167 380.343 303.042 380.132C302.917 379.921 302.84 379.686 302.817 379.442C302.793 379.198 302.824 378.952 302.907 378.722C302.989 378.491 303.122 378.282 303.295 378.108L317.169 364.245C317.275 364.14 317.403 364.058 317.542 364.005C317.682 363.951 317.831 363.927 317.979 363.934C318.128 363.941 318.274 363.978 318.407 364.044C318.54 364.11 318.657 364.202 318.752 364.316L322.553 368.951C322.736 369.161 322.894 369.391 323.023 369.635C324.058 371.527 326.248 374.43 329.592 378.343C330.913 379.895 333.362 383.662 336.937 389.644C337.578 390.713 338.122 391.359 338.572 391.584C339.389 391.978 340.162 391.716 340.891 390.798C342.274 389.069 343.54 387.687 344.692 386.653C348.472 383.243 353.747 377.969 360.517 370.829C360.643 370.697 360.804 370.603 360.982 370.558C361.159 370.513 361.346 370.519 361.52 370.576C361.694 370.632 361.849 370.737 361.966 370.877C362.083 371.018 362.158 371.189 362.182 371.37C362.713 375.464 364.389 379.486 365.359 383.692C366.96 390.634 367.954 395.211 368.342 397.423C368.642 399.145 369.054 400.591 369.578 401.762C371.612 406.315 372.03 411.44 373.318 415.329C374.942 420.229 375.841 426.426 377.956 431.827C377.983 431.894 378 431.97 378.007 432.051L378.794 439.524C378.807 439.658 378.786 439.792 378.733 439.916C378.68 440.039 378.596 440.147 378.49 440.23C378.384 440.312 378.259 440.367 378.126 440.388C377.994 440.409 377.858 440.396 377.731 440.351ZM373.236 435.247C373.368 435.284 373.509 435.279 373.64 435.234C373.77 435.188 373.882 435.104 373.962 434.993C374.042 434.882 374.085 434.75 374.084 434.614C374.084 434.478 374.041 434.346 373.961 434.236C370.433 429.274 366.486 424.725 362.121 420.587C361.434 419.942 360.808 419.231 360.251 418.463C357.452 414.645 354.734 412.001 351.741 408.265C349.016 404.876 346.503 402.051 344.201 399.792C342.771 398.383 341.497 398.362 340.38 399.73C337.704 403.018 333.913 405.845 330.971 408.704C328.437 411.161 325.045 414.591 320.795 418.994C320.742 419.051 320.703 419.121 320.684 419.197C320.665 419.273 320.666 419.353 320.686 419.429C320.707 419.505 320.746 419.574 320.801 419.63C320.856 419.686 320.925 419.727 321 419.75L373.236 435.247Z" fill="#FADC26"/>
<path d="M373.237 435.247L321.001 419.75C320.925 419.727 320.857 419.686 320.802 419.63C320.747 419.574 320.708 419.505 320.687 419.429C320.667 419.353 320.666 419.274 320.685 419.197C320.704 419.121 320.743 419.051 320.796 418.994C325.046 414.591 328.438 411.161 330.972 408.704C333.914 405.845 337.704 403.018 340.381 399.73C341.498 398.362 342.772 398.383 344.202 399.792C346.504 402.051 349.017 404.876 351.742 408.265C354.735 412.001 357.453 414.645 360.252 418.463C360.809 419.231 361.435 419.942 362.121 420.587C366.487 424.725 370.434 429.274 373.962 434.236C374.042 434.346 374.085 434.478 374.085 434.614C374.086 434.75 374.043 434.882 373.963 434.993C373.883 435.104 373.771 435.189 373.64 435.234C373.51 435.279 373.369 435.284 373.237 435.247Z" fill="#E8B73C"/>
</svg>
