<svg width="288" height="266" viewBox="0 0 288 266" fill="none" xmlns="http://www.w3.org/2000/svg">
<path d="M77.3321 46.2242C77.3783 45.2038 76.9248 44.7441 75.9714 44.8448C73.6721 45.0968 70.2514 47.3453 68.4434 48.1263C62.8179 50.57 57.6144 53.927 51.9132 57.7564C48.3918 60.1183 46.3129 62.7636 43.4088 65.4467C41.6911 67.038 39.7802 69.1774 37.6761 71.8647C32.9052 77.9573 28.8819 84.1989 25.6061 90.5896C24.0816 93.5624 23.2815 96.7305 22.0657 99.2876C21.2426 101.013 20.5664 103.092 20.0372 105.523C19.0923 109.848 18.3406 113.22 17.782 115.638C17.3599 117.452 17.4166 119.94 19.1238 121.042C23.1262 123.62 27.3931 125.833 31.9246 127.68C32.8107 128.042 33.5898 127.823 34.2617 127.025" fill="black"/>
<path d="M77.3321 46.2242C77.3783 45.2038 76.9248 44.7441 75.9714 44.8448C73.6721 45.0968 70.2514 47.3453 68.4434 48.1263C62.8179 50.57 57.6144 53.927 51.9132 57.7564C48.3918 60.1183 46.3129 62.7636 43.4088 65.4467C41.6911 67.038 39.7802 69.1774 37.6761 71.8647C32.9052 77.9573 28.8819 84.1989 25.6061 90.5896C24.0816 93.5624 23.2815 96.7305 22.0657 99.2876C21.2426 101.013 20.5664 103.092 20.0372 105.523C19.0923 109.848 18.3406 113.22 17.782 115.638C17.3599 117.452 17.4166 119.94 19.1238 121.042C23.1262 123.62 27.3931 125.833 31.9246 127.68C32.8107 128.042 33.5898 127.823 34.2617 127.025" stroke="#FAEE81"/>
<path d="M23.8926 159.733C23.8464 163.537 24.6108 166.841 26.1857 169.646C27.8907 172.686 30.6143 176.929 34.3562 182.375C36.1117 184.928 38.1717 187.357 40.5362 189.662C44.8325 193.844 47.1171 196.053 47.3901 196.288C59.7289 206.865 73.9408 213.657 90.0258 216.663C92.3126 217.092 93.9757 217.123 95.8152 217.514C97.0709 217.782 98.5219 217.959 100.168 218.043C107.677 218.414 115.237 218.156 122.437 216.657C123.227 216.493 124.281 216.313 125.6 216.115C127.095 215.889 130.394 214.975 135.496 213.376" fill="black"/>
<path d="M23.8926 159.733C23.8464 163.537 24.6108 166.841 26.1857 169.646C27.8907 172.686 30.6143 176.929 34.3562 182.375C36.1117 184.928 38.1717 187.357 40.5362 189.662C44.8325 193.844 47.1171 196.053 47.3901 196.288C59.7289 206.865 73.9408 213.657 90.0258 216.663C92.3126 217.092 93.9757 217.123 95.8152 217.514C97.0709 217.782 98.5219 217.959 100.168 218.043C107.677 218.414 115.237 218.156 122.437 216.657C123.227 216.493 124.281 216.313 125.6 216.115C127.095 215.889 130.394 214.975 135.496 213.376" stroke="#F9E645"/>
<path d="M135.496 213.376C145.076 209.97 153.753 205.223 161.526 199.135C163.567 197.539 165.936 195.442 168.632 192.843C171.895 189.694 174.065 187.387 175.14 185.921C179.356 180.152 182.002 176.343 183.077 174.496C185.026 171.145 187.126 166.883 189.377 161.71C189.418 161.618 189.425 161.514 189.398 161.415C189.37 161.317 189.31 161.23 189.226 161.169L168.676 146.405C168.633 146.375 168.598 146.334 168.575 146.286C168.551 146.238 168.54 146.186 168.542 146.133C168.544 146.08 168.559 146.028 168.586 145.982C168.612 145.936 168.65 145.898 168.695 145.87C169.103 145.618 169.502 145.467 169.892 145.417C174.671 144.795 180.469 143.897 187.285 142.721C187.342 142.711 187.395 142.688 187.44 142.653C187.485 142.617 187.521 142.571 187.544 142.519C187.567 142.467 187.577 142.409 187.573 142.352C187.568 142.295 187.549 142.24 187.518 142.192C186.494 140.642 185.251 139.16 183.789 137.745C183.63 137.59 183.488 137.419 183.367 137.235L182.365 135.749C182.334 135.703 182.312 135.651 182.301 135.596C182.29 135.541 182.29 135.485 182.301 135.429C182.313 135.374 182.335 135.322 182.366 135.275C182.398 135.228 182.438 135.188 182.485 135.157C184.293 133.954 186.674 133.62 188.501 132.94C192.004 131.638 194.27 130.832 195.298 130.521C195.386 130.494 195.463 130.44 195.517 130.366C195.571 130.292 195.601 130.203 195.601 130.112C195.643 122.436 194.837 114.756 193.182 107.072C192.938 105.939 192.543 104.763 191.997 103.545" fill="black"/>
<path d="M135.496 213.376C145.076 209.97 153.753 205.223 161.526 199.135C163.567 197.539 165.936 195.442 168.632 192.843C171.895 189.694 174.065 187.387 175.14 185.921C179.356 180.152 182.002 176.343 183.077 174.496C185.026 171.145 187.126 166.883 189.377 161.71C189.418 161.618 189.425 161.514 189.398 161.415C189.37 161.317 189.31 161.23 189.226 161.169L168.676 146.405C168.633 146.375 168.598 146.334 168.575 146.286C168.551 146.238 168.54 146.186 168.542 146.133C168.544 146.08 168.559 146.028 168.586 145.982C168.612 145.936 168.65 145.898 168.695 145.87C169.103 145.618 169.502 145.467 169.892 145.417C174.671 144.795 180.469 143.897 187.285 142.721C187.342 142.711 187.395 142.688 187.44 142.653C187.485 142.617 187.521 142.571 187.544 142.519C187.567 142.467 187.577 142.409 187.573 142.352C187.568 142.295 187.549 142.24 187.518 142.192C186.494 140.642 185.251 139.16 183.789 137.745C183.63 137.59 183.488 137.419 183.367 137.235L182.365 135.749C182.334 135.703 182.312 135.651 182.301 135.596C182.29 135.541 182.29 135.485 182.301 135.429C182.313 135.374 182.335 135.322 182.366 135.275C182.398 135.228 182.438 135.188 182.485 135.157C184.293 133.954 186.674 133.62 188.501 132.94C192.004 131.638 194.27 130.832 195.298 130.521C195.386 130.494 195.463 130.44 195.517 130.366C195.571 130.292 195.601 130.203 195.601 130.112C195.643 122.436 194.837 114.756 193.182 107.072C192.938 105.939 192.543 104.763 191.997 103.545" stroke="#F0D350"/>
<path d="M191.998 103.545C190.334 97.9943 188.184 92.5526 185.547 87.22C184.003 84.1023 182.107 81.5263 180.526 78.5724C180.325 78.1873 180.082 77.826 179.801 77.4954C176.494 73.54 174.138 70.2208 170.881 66.9898C167.769 63.9099 166.301 61.9196 163.404 60.1309C163.184 59.9984 162.999 59.8149 162.862 59.5955C162.589 59.1546 162.209 58.8376 161.722 58.6445C161.497 58.5572 161.296 58.4264 161.129 58.2603C159.849 56.9544 158.328 55.7178 156.569 54.5505C151.474 51.1704 146.055 48.3152 140.309 45.9848C137.443 44.8196 135.351 44.3787 132.907 43.3647C129.455 41.935 125.329 41.3492 121.524 40.5683C119.399 40.1316 117.473 39.8523 115.747 39.7306C108.536 39.2141 101.586 39.3758 94.8954 40.2155C91.5021 40.6396 86.2881 41.8993 79.2535 43.9945C79.1019 44.0395 78.9674 44.1321 78.8693 44.2591L77.3322 46.2242" fill="black"/>
<path d="M191.998 103.545C190.334 97.9943 188.184 92.5526 185.547 87.22C184.003 84.1023 182.107 81.5263 180.526 78.5724C180.325 78.1873 180.082 77.826 179.801 77.4954C176.494 73.54 174.138 70.2208 170.881 66.9898C167.769 63.9099 166.301 61.9196 163.404 60.1309C163.184 59.9984 162.999 59.8149 162.862 59.5955C162.589 59.1546 162.209 58.8376 161.722 58.6445C161.497 58.5572 161.296 58.4264 161.129 58.2603C159.849 56.9544 158.328 55.7178 156.569 54.5505C151.474 51.1704 146.055 48.3152 140.309 45.9848C137.443 44.8196 135.351 44.3787 132.907 43.3647C129.455 41.935 125.329 41.3492 121.524 40.5683C119.399 40.1316 117.473 39.8523 115.747 39.7306C108.536 39.2141 101.586 39.3758 94.8954 40.2155C91.5021 40.6396 86.2881 41.8993 79.2535 43.9945C79.1019 44.0395 78.9674 44.1321 78.8693 44.2591L77.3322 46.2242" stroke="#F9E645"/>
<path d="M191.998 103.545C191.636 104.347 191.218 105.059 190.744 105.68C189.908 106.78 189.473 107.358 189.44 107.412C184.778 114.441 180.942 120.23 177.931 124.777C176.519 126.912 174.516 129.009 173.256 131.371C172.605 132.593 171.702 133.905 170.547 135.308C169.691 136.341 168.767 137.628 167.776 139.169C165.634 142.503 164.559 144.174 164.55 144.182C163.486 146.103 161.413 148.049 160.657 150.153C160.611 150.279 160.174 150.806 159.347 151.734C159.091 152.023 158.863 152.337 158.666 152.672C157.268 155.066 155.67 157.356 153.872 159.544C153.805 159.623 153.486 160.342 152.915 161.698C152.898 161.736 152.891 161.777 152.895 161.819C152.898 161.86 152.911 161.9 152.934 161.935C152.956 161.97 152.987 161.999 153.023 162.019C153.059 162.039 153.1 162.05 153.142 162.05L178.825 162.422C178.861 162.423 178.895 162.434 178.924 162.455C178.953 162.475 178.975 162.504 178.987 162.538C179 162.571 179.002 162.607 178.993 162.642C178.984 162.676 178.965 162.707 178.938 162.731L175.782 165.426C175.603 165.58 175.398 165.7 175.178 165.779C172.229 166.85 170.258 168.746 167.87 170.352C162.982 173.631 153.102 180.362 138.23 190.544C135.402 192.484 132.183 193.303 133.046 197.749C134.037 202.864 134.854 208.072 135.496 213.376" fill="black"/>
<path d="M191.998 103.545C191.636 104.347 191.218 105.059 190.744 105.68C189.908 106.78 189.473 107.358 189.44 107.412C184.778 114.441 180.942 120.23 177.931 124.777C176.519 126.912 174.516 129.009 173.256 131.371C172.605 132.593 171.702 133.905 170.547 135.308C169.691 136.341 168.767 137.628 167.776 139.169C165.634 142.503 164.559 144.174 164.55 144.182C163.486 146.103 161.413 148.049 160.657 150.153C160.611 150.279 160.174 150.806 159.347 151.734C159.091 152.023 158.863 152.337 158.666 152.672C157.268 155.066 155.67 157.356 153.872 159.544C153.805 159.623 153.486 160.342 152.915 161.698C152.898 161.736 152.891 161.777 152.895 161.819C152.898 161.86 152.911 161.9 152.934 161.935C152.956 161.97 152.987 161.999 153.023 162.019C153.059 162.039 153.1 162.05 153.142 162.05L178.825 162.422C178.861 162.423 178.895 162.434 178.924 162.455C178.953 162.475 178.975 162.504 178.987 162.538C179 162.571 179.002 162.607 178.993 162.642C178.984 162.676 178.965 162.707 178.938 162.731L175.782 165.426C175.603 165.58 175.398 165.7 175.178 165.779C172.229 166.85 170.258 168.746 167.87 170.352C162.982 173.631 153.102 180.362 138.23 190.544C135.402 192.484 132.183 193.303 133.046 197.749C134.037 202.864 134.854 208.072 135.496 213.376" stroke="#F1CA31"/>
<path d="M34.2618 127.025C35.4083 124.065 36.1454 120.664 37.1596 118C38.6967 113.988 39.818 109.151 40.8638 105.775C43.9548 95.8109 45.9454 89.4181 46.8358 86.5965C47.5539 84.3207 48.9126 81.9021 50.9116 79.3408C58.4082 69.7379 66.6207 59.3688 75.5494 48.2333C76.1163 47.5279 76.7106 46.8582 77.3322 46.2242" fill="black"/>
<path d="M34.2618 127.025C35.4083 124.065 36.1454 120.664 37.1596 118C38.6967 113.988 39.818 109.151 40.8638 105.775C43.9548 95.8109 45.9454 89.4181 46.8358 86.5965C47.5539 84.3207 48.9126 81.9021 50.9116 79.3408C58.4082 69.7379 66.6207 59.3688 75.5494 48.2333C76.1163 47.5279 76.7106 46.8582 77.3322 46.2242" stroke="#FBE562"/>
<path d="M220.132 243.809C220.21 243.837 220.293 243.845 220.375 243.832C220.457 243.819 220.534 243.785 220.6 243.734C220.665 243.683 220.716 243.617 220.749 243.541C220.782 243.465 220.795 243.381 220.787 243.299L220.302 238.689C220.298 238.638 220.287 238.592 220.27 238.55C218.966 235.218 218.412 231.395 217.41 228.372C216.616 225.972 216.358 222.81 215.104 220.001C214.781 219.279 214.527 218.387 214.342 217.325C214.103 215.96 213.49 213.136 212.503 208.853C211.904 206.258 210.871 203.777 210.544 201.251C210.529 201.139 210.483 201.034 210.41 200.947C210.338 200.86 210.243 200.796 210.135 200.761C210.028 200.726 209.913 200.722 209.803 200.75C209.694 200.778 209.595 200.836 209.517 200.917C205.342 205.322 202.09 208.576 199.759 210.68C199.049 211.318 198.268 212.17 197.415 213.237C196.966 213.804 196.489 213.965 195.985 213.722C195.708 213.583 195.372 213.184 194.977 212.525C192.772 208.834 191.263 206.51 190.448 205.553C188.386 203.139 187.036 201.348 186.397 200.181C186.318 200.03 186.22 199.888 186.107 199.759L183.764 196.899C183.705 196.829 183.633 196.772 183.551 196.731C183.469 196.69 183.379 196.667 183.287 196.663C183.196 196.659 183.104 196.674 183.018 196.707C182.932 196.74 182.853 196.79 182.788 196.855L174.233 205.408C174.126 205.515 174.044 205.644 173.993 205.787C173.942 205.929 173.923 206.081 173.938 206.231C173.952 206.381 174 206.527 174.077 206.657C174.154 206.787 174.259 206.898 174.384 206.983C178.235 209.586 183.186 213.149 189.238 217.671C189.839 218.12 190.269 218.819 190.53 219.768C190.583 219.961 190.585 220.164 190.534 220.357C190.483 220.549 190.381 220.725 190.24 220.864C187.859 223.237 185.771 225.347 183.978 227.194C183.672 227.513 183.082 227.939 182.208 228.473C182.191 228.485 182.174 228.498 182.158 228.51L178.428 232.201C178.349 232.28 178.294 232.38 178.271 232.489C178.247 232.598 178.255 232.711 178.295 232.816C178.334 232.92 178.402 233.011 178.492 233.077C178.582 233.144 178.689 233.183 178.8 233.19C179.888 233.266 181.005 233.537 182.151 234.003C182.448 234.124 182.759 234.209 183.077 234.255C186.403 234.714 190.322 236.427 193.535 237.038C196.374 237.58 198.996 238.22 201.403 238.959C204.206 239.822 206.487 240.093 209.353 240.836C211.589 241.409 213.171 242.134 215.344 242.512C216.81 242.768 218.405 243.2 220.132 243.809Z" fill="black" stroke="#F9E645"/>
<path d="M217.36 240.66C217.441 240.683 217.528 240.68 217.609 240.652C217.689 240.624 217.758 240.572 217.808 240.504C217.857 240.435 217.883 240.353 217.883 240.27C217.883 240.186 217.856 240.104 217.807 240.036C215.632 236.975 213.198 234.168 210.506 231.615C210.083 231.218 209.697 230.779 209.353 230.305C207.627 227.95 205.951 226.319 204.105 224.013C202.425 221.922 200.876 220.18 199.456 218.786C198.574 217.917 197.789 217.904 197.1 218.748C195.45 220.776 193.113 222.521 191.298 224.284C189.736 225.8 187.644 227.916 185.024 230.633C184.991 230.668 184.967 230.711 184.955 230.758C184.944 230.805 184.944 230.854 184.957 230.901C184.969 230.948 184.994 230.991 185.027 231.025C185.061 231.06 185.103 231.085 185.15 231.099L217.36 240.66Z" fill="black" stroke="#F1CA31"/>
<path d="M232.149 0.515344C230.689 0.591209 229.324 1.18396 227.914 1.51764C220.107 3.63917 212.247 5.56098 204.413 7.58198C188.776 11.5676 173.141 15.5645 157.505 19.558C156.932 19.7493 156.477 20.3335 156.554 20.9483C156.563 21.7602 157.378 22.189 157.847 22.749C163.041 27.9419 168.235 33.1347 173.429 38.3275C171.556 39.7109 169.686 41.0979 167.812 42.4792C160.547 37.3997 152.622 33.2935 144.348 30.1236C137.592 27.5012 130.583 25.4391 123.383 24.4937C117 23.5897 110.55 23.0705 104.101 23.1752C100.577 23.3223 97.0804 23.8942 93.5776 24.1684C85.433 24.9799 77.4075 26.9087 69.772 29.8537C58.3871 34.1824 47.5868 40.2405 38.3577 48.2258C36.155 50.1839 33.9202 52.1107 31.8021 54.1606C23.1022 63.1054 15.7193 73.3937 10.4825 84.7393C6.28975 93.7506 3.50694 103.391 2.03213 113.212C0.0647352 125.996 0.393788 139.146 3.17632 151.785C5.25512 161.253 8.60276 170.439 13.0592 179.046C16.3129 185.306 20.2864 191.177 24.7757 196.616C29.4161 202.307 34.5794 207.593 40.3656 212.127C50.3836 220.12 61.8641 226.279 74.085 230.15C91.5846 235.747 110.521 236.697 128.519 233.049C140.984 230.537 152.929 225.618 163.664 218.821C164.658 219.537 165.652 220.252 166.645 220.968C160.425 227.196 154.185 233.408 147.976 239.647C147.222 240.477 147.666 241.973 148.756 242.252C179.594 250.089 210.432 257.929 241.27 265.767C242.304 266.01 243.338 264.975 243.096 263.942C235.272 233.116 227.445 202.292 219.619 171.467C219.334 170.377 217.843 169.91 216.994 170.655C212.43 175.173 207.905 179.736 203.356 184.272C201.724 185.904 200.091 187.536 198.458 189.169C197.727 188.153 196.94 187.163 196.241 186.132C199.696 180.672 202.693 174.912 205.075 168.902C207.977 161.644 210.02 154.051 211.256 146.335C213.498 145.965 215.741 145.596 217.983 145.226C217.991 152.963 217.969 160.701 217.995 168.437C218.059 169.523 219.428 170.201 220.335 169.601C242.381 156.464 264.428 143.326 286.474 130.19C287.401 129.627 287.4 128.126 286.473 127.564C264.392 114.44 242.311 101.316 220.231 88.1901C219.316 87.6795 218.041 88.3699 217.987 89.419C217.964 97.1787 217.984 104.941 217.977 112.702C215.722 112.347 213.466 111.993 211.21 111.638C208.926 98.673 204.4 86.0813 197.672 74.7535C196.05 72.0038 194.293 69.3361 192.443 66.7352C193.744 64.9136 195.055 63.0985 196.361 61.2795C201.836 66.7451 207.295 72.2287 212.78 77.6831C213.618 78.4448 215.12 78.0124 215.435 76.9279C221.758 52.0916 228.067 27.2502 234.386 2.41222C234.608 1.46497 233.783 0.497251 232.817 0.529781C232.595 0.512114 232.372 0.509133 232.149 0.515344ZM210.046 62.5576C205.567 58.0942 201.112 53.6041 196.618 49.1573C195.861 48.5037 194.59 48.772 194.116 49.642C191.711 52.9844 189.307 56.3268 186.903 59.6692C183.709 55.9192 180.133 52.5105 176.359 49.3504C175.945 48.9352 175.446 48.4932 175.129 48.0481C175.898 47.2009 176.933 46.6587 177.823 45.9518C180.156 44.2678 182.446 42.5176 184.774 40.8308C185.425 40.5812 186.069 40.0554 186.05 39.2968C186.106 38.3766 185.208 37.8724 184.677 37.2616C180.524 33.108 176.372 28.9544 172.219 24.8008C189.118 20.5134 206.016 16.2259 222.915 11.9384C218.625 28.8115 214.336 45.6845 210.046 62.5576ZM106.803 31.9049C120.525 31.9124 134.339 34.907 146.881 40.5886C152.387 43.0771 157.662 46.078 162.616 49.5378C163.556 50.2 164.617 50.9634 165.54 51.6687C167.288 52.9832 169.093 54.4566 170.749 55.8977C179.219 63.2687 186.441 72.2221 191.847 82.1087C193.733 85.5486 195.416 89.0991 196.891 92.7342C197.102 93.2846 197.393 93.9906 197.622 94.6073C198.924 98.0295 200.023 101.528 200.928 105.076C201.057 105.626 201.245 106.342 201.382 106.96C201.604 107.912 201.806 108.868 202.003 109.825C202.108 110.404 202.264 111.148 202.373 111.796C203.612 118.764 204.098 125.866 203.846 132.937C203.246 137.935 202.602 142.953 202.063 147.969C201.601 149.845 201.247 151.745 200.928 153.65C200.265 156.383 199.575 159.119 198.63 161.77C198.5 162.233 198.139 162.554 198.037 163.03C197.141 165.44 196.15 167.814 195.077 170.151C194.807 170.714 194.478 171.439 194.17 172.057C191.881 176.794 189.177 181.322 186.195 185.653C185.796 186.375 186.059 187.262 186.604 187.83C189.937 192.315 193.243 196.821 196.593 201.291C197.21 201.959 198.359 201.83 198.888 201.114C204.018 195.985 209.148 190.856 214.278 185.727C220.084 208.605 225.89 231.483 231.696 254.361C208.824 248.548 185.952 242.734 163.08 236.92C168.287 231.708 173.508 226.507 178.707 221.287C179.45 220.494 179.194 219.091 178.248 218.573C173.838 215.414 169.446 212.226 165.023 209.086C164.09 208.498 162.849 208.72 162.04 209.422C157.567 212.493 152.839 215.194 147.919 217.483C142.415 220.041 136.566 222.118 130.634 223.592C128.758 224.061 126.932 224.454 125.024 224.817C124.214 224.964 123.266 225.134 122.445 225.262C119.329 225.759 116.19 226.102 113.041 226.299C111.996 226.365 110.824 226.416 109.729 226.451C108.49 226.482 107.126 226.501 105.837 226.484C99.5156 226.418 93.0983 225.775 86.8603 224.501C85.8287 224.292 84.7807 224.062 83.8142 223.828C79.444 222.795 75.1496 221.445 70.9665 219.813C70.3468 219.56 69.5651 219.258 68.8903 218.968C55.8278 213.516 44.0153 205.123 34.5321 194.62C34.1649 194.198 33.6672 193.655 33.2594 193.176C23.9183 182.431 17.0102 169.599 13.133 155.903C12.5985 154.039 12.1086 152.131 11.6884 150.287C11.2474 148.249 10.6845 146.208 10.5318 144.132C10.3324 141.97 10.0867 139.813 9.76067 137.666C9.53481 136.01 9.37174 134.244 9.38816 132.519C9.3568 130.255 9.32008 127.991 9.20454 125.729C10.4415 125.735 11.6784 125.741 12.9154 125.746C11.8629 124.986 10.8083 124.225 9.75699 123.464C9.53507 122.324 9.8248 121.161 9.89529 120.017C10.2951 116.21 10.8986 112.399 11.7149 108.619C12.2667 106.075 12.8934 103.64 13.64 101.129C16.1436 92.7452 19.8003 84.708 24.4835 77.3168C25.0966 76.3564 25.7893 75.2916 26.4647 74.3112C28.079 71.9555 29.7538 69.7279 31.5632 67.5224C32.0826 66.8892 32.6325 66.2371 33.1741 65.6113C38.0806 59.9371 43.6463 54.8345 49.7201 50.432C54.7706 46.7719 60.2569 43.5458 65.9525 40.9107C68.1626 39.8877 70.3517 38.9691 72.6374 38.1085C74.9237 37.2479 77.349 36.4383 79.7361 35.7443C82.1534 35.0417 84.5639 34.4414 87.0541 33.9227C90.6284 33.177 94.4227 32.6131 98.0581 32.2916C99.8807 32.1265 101.73 32.0153 103.589 31.9541C104.61 31.9225 105.743 31.9052 106.803 31.9049ZM236.304 107.95C248.098 114.9 259.863 121.884 271.619 128.91C256.693 137.869 241.738 146.779 226.734 155.606C226.728 149.371 226.746 143.136 226.725 136.903C226.682 135.813 225.5 135.016 224.465 135.318C220.43 135.985 216.396 136.652 212.362 137.32C212.58 133.325 212.799 129.322 212.586 125.323C212.521 123.753 212.44 122.185 212.351 120.617C216.511 121.288 220.667 121.994 224.829 122.643C225.896 122.751 226.848 121.728 226.72 120.674C226.709 114.55 226.698 108.427 226.687 102.304C229.893 104.186 233.098 106.068 236.304 107.95Z" fill="black"/>
<path d="M184.659 39.4723C184.693 39.4555 184.722 39.4307 184.745 39.4001C184.768 39.3696 184.783 39.334 184.789 39.2964C184.795 39.2589 184.792 39.2204 184.78 39.1841C184.769 39.1479 184.748 39.115 184.721 39.0881L170.163 24.5264C170.122 24.4866 170.093 24.4366 170.077 24.3815C170.062 24.3264 170.062 24.2683 170.077 24.2131C170.091 24.1579 170.121 24.1076 170.161 24.0675C170.202 24.0274 170.253 23.9988 170.308 23.9847L224.226 10.3048C224.271 10.2936 224.317 10.2941 224.361 10.3062C224.406 10.3184 224.446 10.3418 224.478 10.3742C224.511 10.4066 224.534 10.4468 224.546 10.4909C224.558 10.5351 224.559 10.5816 224.548 10.626L210.947 64.124C210.924 64.2132 210.878 64.2947 210.813 64.3604C210.748 64.426 210.667 64.4733 210.578 64.4976C210.489 64.5219 210.396 64.5223 210.307 64.4987C210.218 64.4751 210.136 64.4284 210.071 64.3633L195.872 50.1732C195.83 50.1309 195.779 50.0983 195.723 50.0777C195.667 50.057 195.608 50.0488 195.548 50.0536C195.489 50.0584 195.431 50.0761 195.379 50.1055C195.328 50.1348 195.283 50.1751 195.248 50.2236L187.443 61.0756C187.388 61.1513 187.317 61.2136 187.234 61.2577C187.152 61.3018 187.06 61.3266 186.967 61.3302C186.874 61.3339 186.781 61.3162 186.695 61.2787C186.609 61.2411 186.533 61.1846 186.473 61.1134C183.382 57.41 179.806 53.8703 175.745 50.4944C175.392 50.2005 174.709 49.5035 173.697 48.4034C173.636 48.3389 173.599 48.2551 173.592 48.1658C173.585 48.0764 173.609 47.987 173.659 47.9121C174.1 47.2571 174.552 46.7637 175.014 46.432C177.731 44.4753 180.723 42.2709 183.991 39.8187C184.012 39.8062 184.234 39.6907 184.659 39.4723Z" fill="#5D5D5D"/>
<path d="M199.349 163.121C196.321 171.338 192.321 179.024 187.348 186.179C187.232 186.344 187.234 186.565 187.355 186.727L197.466 200.376C197.546 200.492 197.716 200.505 197.818 200.401L214.67 183.553C214.792 183.427 215.006 183.487 215.054 183.66L233.348 255.751C233.384 255.91 233.245 256.053 233.09 256.015L161.482 237.813C161.104 237.717 160.974 237.246 161.249 236.969L177.729 220.493C177.957 220.267 177.926 219.892 177.666 219.705L164.475 210.226C164.071 209.935 163.526 209.93 163.114 210.214C143.081 224.083 119.319 229.833 95.097 227.081C60.9406 223.201 31.4332 201.705 17.1079 170.364C14.0211 163.608 11.6609 156.357 10.0272 148.61C7.96976 137.557 6.53832 124.801 8.248 121.877C9.71371 105.165 14.901 90.1046 23.4138 76.6514C35.1122 58.1532 52.5873 44.0701 73.1492 36.5751C118.784 19.9349 169.974 39.3653 193.062 81.7027C201.676 97.5031 205.695 114.569 205.12 132.902C204.859 140.356 202.362 157.945 199.349 163.121ZM77.3321 46.2242C77.3783 45.2038 76.9247 44.7441 75.9714 44.8448C73.6721 45.0968 70.2514 47.3453 68.4434 48.1263C62.8178 50.57 57.6144 53.927 51.9132 57.7564C48.3917 60.1183 46.3129 62.7636 43.4088 65.4467C41.6911 67.0381 39.7802 69.1774 37.6761 71.8647C32.9052 77.9573 28.8819 84.1989 25.6061 90.5896C24.0816 93.5624 23.2815 96.7305 22.0657 99.2876C21.2426 101.013 20.5664 103.092 20.0372 105.523C19.0923 109.848 18.3405 113.22 17.782 115.638C17.3194 130.062 16.2324 145.14 22.8154 160.652C28.3578 168.529 22.9482 163.88 26.1856 169.646C27.8907 172.686 30.6143 176.929 34.3562 182.375C36.1117 184.928 38.1717 187.357 40.5361 189.662C44.8325 193.844 47.1171 196.053 47.3901 196.288C59.7289 206.865 73.9408 213.657 90.0258 216.663C92.3126 217.092 93.9757 217.123 95.8152 217.514C97.0709 217.782 98.5219 217.959 100.168 218.043C107.677 218.414 115.237 218.156 122.437 216.657C123.227 216.493 124.281 216.313 125.6 216.115C127.095 215.889 130.394 214.975 135.496 213.376C145.076 209.97 153.753 205.223 161.526 199.135C163.567 197.539 165.936 195.442 168.632 192.843C171.895 189.694 174.065 187.387 175.14 185.921C179.356 180.152 182.002 176.343 183.077 174.496C185.026 171.145 187.126 166.883 189.377 161.71C189.462 161.52 189.399 161.295 189.226 161.169L168.676 146.405C168.489 146.272 168.499 145.99 168.695 145.87C169.103 145.618 169.502 145.467 169.892 145.417C178.853 142.333 186.553 147.536 183.789 137.745C183.63 137.59 183.488 137.419 183.367 137.235L182.365 135.749C182.233 135.555 182.287 135.289 182.485 135.157C184.293 133.954 186.674 133.62 188.501 132.94C192.004 131.638 194.27 130.832 195.298 130.521C195.478 130.466 195.601 130.3 195.601 130.112C195.643 122.436 194.837 114.756 193.182 107.072C192.938 105.939 192.543 104.763 191.997 103.545C190.334 97.9943 188.184 92.5526 185.547 87.22C184.003 84.1023 182.107 81.5263 180.526 78.5724C180.325 78.1873 180.082 77.826 179.801 77.4954C176.494 73.54 174.138 70.2208 170.881 66.9898C167.769 63.9099 166.301 61.9196 163.404 60.1309C163.184 59.9984 162.999 59.8149 162.862 59.5955C162.589 59.1546 162.209 58.8376 161.722 58.6445C161.497 58.5572 161.296 58.4264 161.129 58.2603C159.849 56.9544 158.328 55.7178 156.569 54.5506C151.474 51.1704 146.054 48.3152 140.309 45.9848C137.443 44.8196 135.351 44.3787 132.907 43.3647C129.455 41.935 125.329 41.3492 121.524 40.5683C119.399 40.1316 117.473 39.8524 115.747 39.7306C108.536 39.2141 101.586 39.3758 94.8954 40.2156C91.502 40.6396 86.2881 41.8993 79.2535 43.9946C79.1018 44.0395 78.9674 44.1321 78.8692 44.2591L77.3321 46.2242ZM220.132 243.809C220.471 243.931 220.822 243.658 220.787 243.299L220.302 238.689C220.297 238.638 220.287 238.592 220.27 238.55C218.966 235.218 218.412 231.395 217.41 228.372C216.616 225.972 216.358 222.81 215.104 220.001C214.781 219.279 214.527 218.387 214.342 217.325C214.103 215.96 213.49 213.136 212.503 208.853C211.904 206.258 210.871 203.777 210.544 201.251C210.477 200.753 209.863 200.553 209.517 200.917C205.342 205.322 202.089 208.576 199.759 210.68C199.049 211.318 198.268 212.171 197.415 213.237C196.966 213.804 196.489 213.966 195.985 213.722C195.708 213.583 195.372 213.185 194.977 212.525C192.772 208.834 191.263 206.51 190.448 205.553C188.386 203.139 187.035 201.348 186.397 200.181C186.318 200.03 186.22 199.888 186.107 199.759L183.764 196.899C183.517 196.602 183.066 196.582 182.787 196.855L174.233 205.408C173.778 205.864 173.851 206.621 174.384 206.983C178.235 209.586 183.186 213.149 189.238 217.671C189.839 218.12 190.269 218.819 190.53 219.768C190.639 220.16 190.528 220.58 190.24 220.864C187.859 223.237 185.771 225.347 183.978 227.194C183.672 227.513 183.081 227.939 182.208 228.473L182.158 228.51L178.428 232.201C178.074 232.553 178.302 233.158 178.8 233.19C179.888 233.266 181.005 233.537 182.151 234.003C182.448 234.124 182.759 234.209 183.077 234.255C186.403 234.714 190.322 236.427 193.535 237.038C196.374 237.58 198.996 238.22 201.403 238.959C204.206 239.822 206.487 240.093 209.353 240.836C211.589 241.409 213.17 242.134 215.344 242.512C216.81 242.768 218.405 243.2 220.132 243.809Z" fill="#F8EF64"/>
<path d="M191.998 103.545C191.636 104.347 191.218 105.059 190.744 105.68C189.908 106.781 189.473 107.358 189.44 107.412C184.778 114.441 180.942 120.23 177.93 124.777C176.519 126.912 174.516 129.009 173.256 131.371C172.605 132.593 171.702 133.905 170.547 135.308C169.691 136.341 168.767 137.628 167.776 139.169C165.634 142.503 164.559 144.174 164.55 144.182C163.486 146.103 161.413 148.049 160.657 150.153C160.611 150.279 160.174 150.806 159.347 151.734C159.091 152.023 158.863 152.337 158.666 152.672C157.268 155.066 155.67 157.356 153.872 159.544C153.805 159.623 153.486 160.342 152.915 161.698C152.843 161.863 152.962 162.047 153.142 162.05L178.825 162.422C178.986 162.425 179.059 162.624 178.938 162.731L175.782 165.426C175.603 165.58 175.398 165.7 175.178 165.779C172.229 166.85 170.258 168.746 167.87 170.352C162.982 173.631 153.102 180.362 138.23 190.544C135.402 192.484 132.183 193.303 133.046 197.749C134.037 202.864 134.854 208.072 135.496 213.376C130.394 214.975 127.095 215.889 125.6 216.115C124.281 216.313 123.227 216.493 122.437 216.657C115.237 218.156 107.677 218.414 100.168 218.043C98.5219 217.959 97.0709 217.782 95.8152 217.514C93.9757 217.123 92.3126 217.092 90.0258 216.663C73.9408 213.657 59.7289 206.865 47.3901 196.288C47.1171 196.053 44.8325 193.844 40.5362 189.662C38.1717 187.357 36.1117 184.928 34.3562 182.375C30.6143 176.929 27.8907 172.686 26.1857 169.646C24.6108 166.841 23.8464 163.537 23.8926 159.733C25.1819 157.205 26.2088 154.287 26.9731 150.978C28.8993 132.161 28.7931 135.132 34.2617 127.025C35.4083 124.065 36.1453 120.664 37.1596 118C38.6967 113.988 39.818 109.151 40.8637 105.775C43.9547 95.8109 45.9454 89.4181 46.8358 86.5965C47.5539 84.3207 48.9125 81.9021 50.9116 79.3408C58.4081 69.7379 66.6207 59.3688 75.5493 48.2333C76.1163 47.5279 76.7106 46.8582 77.3321 46.2242L78.8692 44.2591C78.9674 44.1321 79.1018 44.0395 79.2535 43.9945C86.2881 41.8993 91.502 40.6396 94.8954 40.2155C101.586 39.3758 108.536 39.2141 115.747 39.7306C117.473 39.8523 119.399 40.1316 121.524 40.5683C125.329 41.3492 129.455 41.935 132.907 43.3647C135.351 44.3787 137.443 44.8196 140.309 45.9848C146.054 48.3152 151.474 51.1704 156.569 54.5505C158.328 55.7178 159.849 56.9544 161.129 58.2603C161.296 58.4264 161.497 58.5572 161.722 58.6445C162.209 58.8376 162.589 59.1546 162.862 59.5955C162.999 59.8149 163.184 59.9984 163.404 60.1309C166.301 61.9196 167.769 63.9099 170.881 66.9898C174.138 70.2208 176.494 73.54 179.801 77.4954C180.082 77.826 180.325 78.1873 180.526 78.5724C182.107 81.5263 184.003 84.1023 185.547 87.22C188.184 92.5526 190.334 97.9943 191.998 103.545Z" fill="#FADC26"/>
<path d="M77.3321 46.2242C76.7106 46.8582 76.1163 47.5279 75.5493 48.2333C66.6207 59.3688 58.4081 69.7379 50.9116 79.3408C48.9125 81.9021 47.5539 84.3207 46.8357 86.5965C45.9454 89.4181 43.9547 95.8109 40.8637 105.775C39.818 109.151 38.6967 113.988 37.1595 118C36.1453 120.664 35.4083 124.065 34.2617 127.025C33.5898 127.823 24.7941 162.614 23.9079 162.253C19.3764 160.405 19.6948 152.878 18.7247 147.425C15.6164 129.506 17.3599 117.452 17.782 115.638C18.3405 113.22 19.0923 109.848 20.0372 105.523C20.5664 103.092 21.2426 101.013 22.0657 99.2876C23.2815 96.7305 24.0816 93.5624 25.6061 90.5896C28.8819 84.1989 32.9052 77.9573 37.6761 71.8647C39.7802 69.1774 41.6911 67.038 43.4088 65.4467C46.3129 62.7636 48.3917 60.1183 51.9132 57.7564C57.6144 53.927 62.8178 50.57 68.4434 48.1263C70.2514 47.3453 73.672 45.0968 75.9714 44.8448C76.9247 44.7441 77.3783 45.2038 77.3321 46.2242Z" fill="#FCED9D"/>
<path d="M273.754 128.909C273.754 129.039 273.726 129.119 273.672 129.148C256.373 139.54 240.399 149.04 225.751 157.648C225.723 157.665 225.691 157.674 225.659 157.674C225.626 157.675 225.594 157.666 225.566 157.65C225.538 157.634 225.514 157.611 225.498 157.583C225.482 157.555 225.473 157.523 225.474 157.49V137.046C225.474 136.97 225.457 136.895 225.425 136.825C225.393 136.756 225.346 136.695 225.287 136.646C225.228 136.596 225.159 136.561 225.085 136.541C225.01 136.52 224.932 136.517 224.856 136.53L211.759 138.696C211.671 138.712 211.58 138.707 211.493 138.681C211.407 138.656 211.327 138.612 211.26 138.551C211.192 138.491 211.14 138.416 211.105 138.332C211.071 138.248 211.055 138.157 211.06 138.066C211.299 133.918 211.419 130.884 211.419 128.965C211.415 127.046 211.291 124.015 211.047 119.871C211.043 119.78 211.058 119.69 211.092 119.607C211.126 119.523 211.179 119.449 211.245 119.388C211.312 119.328 211.391 119.283 211.476 119.258C211.562 119.232 211.652 119.226 211.74 119.241L224.844 121.382C224.92 121.395 224.998 121.391 225.072 121.371C225.146 121.351 225.215 121.315 225.274 121.266C225.333 121.217 225.38 121.156 225.412 121.086C225.445 121.017 225.461 120.942 225.461 120.866L225.423 100.421C225.423 100.389 225.431 100.357 225.448 100.329C225.464 100.301 225.487 100.277 225.516 100.261C225.544 100.245 225.576 100.237 225.608 100.238C225.641 100.238 225.673 100.247 225.7 100.264C240.362 108.842 256.352 118.311 273.672 128.669C273.726 128.703 273.754 128.783 273.754 128.909Z" fill="#5D5D5D"/>
<path d="M191.998 103.545C192.544 104.763 192.938 105.939 193.182 107.072C194.837 114.756 195.643 122.436 195.601 130.112C195.603 154.054 192.242 155.423 189.377 161.71C187.126 166.883 185.026 171.145 183.077 174.496C182.002 176.343 179.356 180.152 175.14 185.921C174.065 187.387 171.896 189.694 168.632 192.843C165.936 195.442 163.567 197.539 161.526 199.135C153.753 205.223 145.076 209.97 135.496 213.376C134.854 208.072 134.037 202.864 133.046 197.749C132.183 193.303 135.402 192.484 138.23 190.544C153.102 180.362 162.982 173.631 167.87 170.352C170.258 168.746 172.229 166.85 175.178 165.779C175.398 165.7 175.603 165.58 175.782 165.426L178.938 162.731C179.059 162.624 178.986 162.425 178.825 162.422L153.142 162.05C152.962 162.047 152.843 161.863 152.915 161.698C153.486 160.342 153.805 159.623 153.872 159.544C155.67 157.356 157.268 155.066 158.666 152.672C158.863 152.337 159.091 152.023 159.347 151.734C160.174 150.806 160.611 150.279 160.657 150.153C161.413 148.049 163.486 146.103 164.55 144.182C164.559 144.174 165.634 142.503 167.776 139.169C168.767 137.628 169.691 136.341 170.547 135.308C171.702 133.905 172.605 132.593 173.256 131.371C174.516 129.009 176.519 126.912 177.931 124.777C180.942 120.23 184.778 114.441 189.44 107.412C189.473 107.358 189.908 106.781 190.744 105.68C191.218 105.059 191.636 104.347 191.998 103.545Z" fill="#E8B73C"/>
<path d="M220.132 243.809C218.405 243.2 216.81 242.768 215.344 242.512C213.171 242.134 211.589 241.409 209.353 240.836C206.487 240.093 204.206 239.822 201.403 238.959C198.996 238.22 196.374 237.58 193.535 237.038C190.322 236.427 186.403 234.714 183.077 234.255C182.759 234.209 182.448 234.124 182.151 234.003C181.005 233.537 179.888 233.266 178.8 233.19C178.689 233.183 178.582 233.144 178.492 233.077C178.402 233.011 178.334 232.92 178.295 232.816C178.255 232.711 178.247 232.598 178.271 232.489C178.294 232.38 178.349 232.28 178.428 232.201L182.158 228.51C182.174 228.498 182.191 228.485 182.208 228.473C183.082 227.939 183.672 227.513 183.978 227.194C185.771 225.347 187.859 223.237 190.24 220.864C190.381 220.725 190.483 220.549 190.534 220.357C190.585 220.164 190.583 219.961 190.53 219.768C190.269 218.819 189.839 218.12 189.238 217.671C183.186 213.149 178.235 209.586 174.384 206.983C174.259 206.898 174.154 206.787 174.077 206.657C174 206.527 173.952 206.381 173.938 206.231C173.923 206.081 173.942 205.929 173.993 205.787C174.044 205.644 174.126 205.515 174.233 205.408L182.788 196.855C182.853 196.79 182.932 196.74 183.018 196.707C183.104 196.674 183.196 196.659 183.287 196.663C183.379 196.667 183.469 196.69 183.551 196.731C183.633 196.772 183.705 196.829 183.764 196.899L186.107 199.759C186.22 199.888 186.318 200.03 186.397 200.181C187.036 201.348 188.386 203.139 190.448 205.553C191.263 206.51 192.772 208.834 194.977 212.525C195.372 213.184 195.708 213.583 195.985 213.722C196.489 213.965 196.966 213.804 197.415 213.237C198.268 212.17 199.049 211.318 199.759 210.68C202.09 208.576 205.342 205.322 209.517 200.917C209.595 200.836 209.694 200.778 209.803 200.75C209.913 200.722 210.028 200.726 210.135 200.761C210.243 200.796 210.338 200.86 210.41 200.947C210.483 201.034 210.529 201.139 210.544 201.251C210.871 203.777 211.904 206.258 212.503 208.853C213.49 213.136 214.103 215.96 214.342 217.325C214.527 218.387 214.781 219.279 215.104 220.001C216.358 222.81 216.616 225.972 217.41 228.372C218.412 231.395 218.966 235.218 220.27 238.55C220.287 238.592 220.298 238.638 220.302 238.689L220.787 243.299C220.795 243.381 220.782 243.465 220.749 243.541C220.716 243.617 220.665 243.683 220.6 243.734C220.534 243.785 220.457 243.819 220.375 243.832C220.293 243.845 220.21 243.837 220.132 243.809ZM217.36 240.66C217.441 240.683 217.528 240.68 217.609 240.652C217.689 240.624 217.758 240.572 217.808 240.504C217.857 240.435 217.883 240.353 217.883 240.27C217.883 240.186 217.856 240.104 217.807 240.036C215.632 236.975 213.198 234.168 210.506 231.616C210.083 231.218 209.697 230.779 209.353 230.305C207.627 227.95 205.951 226.319 204.105 224.013C202.425 221.922 200.876 220.18 199.456 218.786C198.574 217.917 197.789 217.904 197.1 218.748C195.45 220.776 193.113 222.521 191.298 224.284C189.736 225.8 187.645 227.916 185.024 230.633C184.991 230.668 184.967 230.711 184.955 230.758C184.944 230.805 184.944 230.854 184.957 230.901C184.969 230.948 184.994 230.991 185.027 231.025C185.061 231.06 185.103 231.085 185.15 231.099L217.36 240.66Z" fill="#FADC26"/>
<path d="M217.36 240.66L185.15 231.099C185.103 231.085 185.061 231.06 185.027 231.025C184.994 230.991 184.969 230.948 184.957 230.901C184.944 230.854 184.944 230.805 184.955 230.758C184.967 230.711 184.991 230.668 185.024 230.633C187.644 227.916 189.736 225.8 191.298 224.284C193.113 222.521 195.45 220.776 197.1 218.748C197.789 217.904 198.574 217.917 199.456 218.786C200.876 220.18 202.425 221.922 204.105 224.013C205.951 226.319 207.627 227.95 209.353 230.305C209.697 230.779 210.083 231.218 210.506 231.615C213.198 234.168 215.632 236.975 217.807 240.036C217.856 240.104 217.883 240.186 217.883 240.27C217.883 240.353 217.857 240.435 217.808 240.504C217.758 240.572 217.689 240.624 217.609 240.652C217.528 240.68 217.441 240.683 217.36 240.66Z" fill="#E8B73C"/>
</svg>
