<svg width="512" height="512" viewBox="0 0 512 512" fill="none" xmlns="http://www.w3.org/2000/svg">
<path d="M149.569 119.621C150.173 116.652 146.137 116.53 144.539 117.727C143.016 118.867 141.292 119.73 139.366 120.317C135.186 121.576 132.093 123.347 127.493 125.343C126.935 125.581 126.406 125.883 125.916 126.244L121.347 129.57C121.231 129.652 121.111 129.724 120.989 129.785C117.82 131.341 115.406 132.733 113.746 133.962C108.379 137.923 102.683 141.721 98.0016 146.276C93.9758 150.196 89.5812 153.073 86.3544 156.973C81.014 163.428 76.8141 169.051 73.7546 173.842C69.8278 179.997 65.8328 186.985 61.7694 194.805C59.5977 198.975 58.0578 202.339 57.1495 204.898C54.0866 213.466 52.8881 218.594 50.7984 227.878C49.8354 232.184 49.2345 236.374 48.9955 240.448C48.4082 250.657 48.4867 260.972 49.2311 271.392C49.4564 274.511 49.7569 276.793 50.1325 278.24C51.7305 284.402 51.5666 289.623 53.9227 295.549C55.6539 299.9 55.6539 305.059 58.0509 308.549C58.727 309.542 59.7309 309.44 60.448 308.549" stroke="#F19352" stroke-width="2"/>
<path d="M60.4487 308.549C60.5921 313.701 61.5687 317.833 63.3784 320.945C68.1111 329.107 70.9383 333.887 71.8603 335.286C74.5646 339.38 76.6407 342.161 78.0885 343.628C80.9431 346.515 83.9957 347.385 87.2464 346.239C95.0863 343.475 101.584 341.356 106.74 339.882C109.731 339.022 115.154 337.002 123.007 333.822C129.16 331.325 135.921 328.998 143.29 326.841C143.408 326.805 143.532 326.799 143.653 326.823C143.773 326.848 143.886 326.902 143.981 326.981C144.076 327.06 144.151 327.161 144.198 327.276C144.246 327.391 144.264 327.516 144.253 327.64C144.069 329.714 143.546 331.608 142.686 333.321C139.008 340.67 136.683 347.221 132.913 354.366C129.41 360.989 127.136 366.424 123.858 372.505C122.342 375.323 121.262 378.162 120.621 381.021C120.538 381.386 120.586 381.768 120.756 382.101C120.927 382.434 121.208 382.696 121.553 382.843C129.338 386.139 135.31 389.149 143.126 391.892C152.202 395.079 161.783 397.662 171.87 399.641C177.699 400.787 183.323 400.449 191.221 400.644C208.314 401.053 224.967 398.521 241.179 393.048" stroke="#F28130" stroke-width="2"/>
<path d="M241.178 393.048C247.01 390.831 252.746 388.476 258.387 385.985C259.022 385.706 260.511 384.822 262.854 383.334C264.54 382.263 266.039 381.355 267.351 380.612C281.016 372.846 293.182 362.644 303.849 350.005C305.515 348.026 307.004 346.085 308.315 344.181C310.958 340.332 312.368 338.309 312.546 338.111C315.291 335.112 316.746 331.089 319.409 327.476C319.934 326.768 320.39 326.01 320.772 325.214L327.799 310.412C327.833 310.338 327.854 310.261 327.86 310.187C327.915 309.375 328.926 306.597 330.893 301.855C331.828 299.603 332.948 295.703 334.253 290.155C334.785 287.882 335.83 285.876 335.84 284.115C335.854 282.676 336.028 281.13 336.363 279.478C337.271 274.995 337.821 270.211 338.012 265.127C338.381 255.147 338.534 245.167 337.018 235.084C336.622 232.478 336.09 228.666 335.42 223.651C335.209 222.061 334.553 220.024 333.454 217.54" stroke="#E77A35" stroke-width="2"/>
<path d="M333.454 217.54C332.348 213.111 330.722 208.16 328.578 202.687C328.086 201.431 327.11 200.759 325.648 200.67C321.667 200.432 317.894 200.722 314.329 201.541C311.242 202.243 308.842 202.728 307.128 202.994C295.675 204.744 288.648 206.3 283.639 206.126C283.435 206.121 283.237 206.062 283.063 205.957C282.89 205.851 282.747 205.702 282.648 205.524C282.55 205.346 282.5 205.146 282.503 204.943C282.506 204.739 282.562 204.541 282.666 204.366C284.632 201.039 287.859 198.306 289.99 194.805C292.407 190.834 296.177 186.514 298.308 181.693C298.372 181.546 298.403 181.387 298.397 181.227C298.391 181.066 298.349 180.91 298.274 180.768C298.2 180.626 298.094 180.503 297.965 180.408C297.836 180.313 297.687 180.248 297.529 180.219L286.138 178.12C286 178.095 285.869 178.039 285.755 177.956C285.642 177.873 285.549 177.765 285.483 177.641C285.417 177.517 285.38 177.38 285.374 177.239C285.369 177.099 285.395 176.959 285.452 176.831C288.784 169.16 292.499 161.858 296.597 154.925C296.753 154.662 296.813 154.353 296.766 154.05C296.72 153.748 296.569 153.471 296.341 153.267C291.349 148.79 286.285 144.358 281.149 139.97C276.478 135.985 272.937 133.375 270.527 132.14C258.634 126.049 244.313 118.792 230.596 115.26C222.873 113.268 217.672 112.056 214.995 111.626C199.869 109.197 184.018 109.46 167.444 112.415C160.539 113.643 154.332 114.861 149.568 119.621" stroke="#F28130" stroke-width="2"/>
<path d="M333.454 217.54C329.629 222.528 325.928 227.448 322.349 232.3C319.788 235.774 317.6 239.056 315.783 242.147C312.935 246.969 308.971 253.704 305.293 258.464C301.288 263.664 298.83 268.014 294.609 273.931C286.489 285.32 278.796 297.068 271.53 309.174C271.46 309.291 271.418 309.424 271.409 309.561C271.399 309.698 271.422 309.835 271.474 309.96C271.527 310.086 271.609 310.197 271.713 310.285C271.817 310.372 271.941 310.433 272.073 310.463C274.859 311.112 277.837 311.388 281.006 311.292C292.048 310.951 299.892 310.941 304.535 311.262C306.639 311.398 308.571 311.831 310.333 312.562C310.446 312.608 310.546 312.682 310.621 312.778C310.697 312.874 310.747 312.988 310.765 313.108C310.784 313.229 310.771 313.352 310.727 313.466C310.684 313.58 310.612 313.681 310.518 313.759C308.09 315.745 305.15 317.342 303.491 318.458C295.842 323.637 288.641 328.4 281.887 332.747C277.779 335.398 274.511 338.285 270.465 340.619C265.937 343.229 260.549 348.91 256.574 350.927C252.456 353.008 248.796 355.284 245.593 357.754C244.118 358.887 242.878 359.75 241.874 360.344C239.416 361.777 238.129 362.558 238.013 362.688C237.891 362.816 237.798 362.96 237.739 363.111C237.681 363.261 237.659 363.414 237.674 363.558L241.178 393.048" stroke="#E57324" stroke-width="2"/>
<path d="M395.286 289.704C395.287 289.988 395.361 290.266 395.501 290.513C395.641 290.759 395.842 290.966 396.085 291.112C396.328 291.258 396.605 291.339 396.888 291.347C397.172 291.355 397.453 291.29 397.704 291.158C410.344 284.453 418.703 279.171 430.146 272.897C436.026 269.676 442.404 265.766 449.281 261.166C451.258 259.856 454.536 258.351 456.677 257.594C456.829 257.539 456.965 257.445 457.07 257.321C457.175 257.198 457.246 257.049 457.276 256.89C457.306 256.731 457.294 256.567 457.241 256.414C457.188 256.261 457.096 256.124 456.974 256.017C454.095 253.499 452.293 251.954 449.004 250.06C441.322 245.624 435.971 242.441 432.952 240.51C424.225 234.9 417.218 231.338 406.913 225.176C403.498 223.129 399.985 221.245 396.372 219.525C396.235 219.459 396.084 219.429 395.933 219.437C395.781 219.446 395.635 219.493 395.506 219.574C395.378 219.655 395.273 219.767 395.2 219.9C395.128 220.033 395.09 220.183 395.091 220.334V247.665C395.092 247.867 395.049 248.067 394.965 248.252C394.882 248.437 394.76 248.601 394.608 248.735C394.455 248.869 394.276 248.968 394.082 249.027C393.888 249.086 393.684 249.103 393.483 249.077L361.4 244.973C361.207 244.948 361.012 244.962 360.825 245.014C360.638 245.066 360.463 245.155 360.31 245.275C360.158 245.395 360.031 245.544 359.936 245.713C359.842 245.883 359.782 246.07 359.761 246.262C359.112 252.308 359.129 258.583 359.812 265.087C359.833 265.28 359.911 265.463 360.037 265.612C360.163 265.761 360.33 265.871 360.519 265.926C361.796 266.274 362.906 266.41 363.848 266.335C367.836 266.008 373.31 265.312 380.269 264.247C384.848 263.541 389.457 261.995 394.18 262.046C394.474 262.049 394.755 262.168 394.963 262.377C395.17 262.586 395.286 262.868 395.286 263.162V289.704Z" stroke="#F28130" stroke-width="2"/>
<path d="M446.833 254.298C439.601 253.561 429.347 253.98 421.859 253.008C418.014 252.51 414.104 252.083 410.13 251.728C403.287 251.114 400.777 253.755 401.064 260.45C401.317 266.216 401.395 272.927 401.299 280.584C401.297 280.811 401.353 281.035 401.464 281.233C401.575 281.432 401.735 281.598 401.93 281.715C402.125 281.832 402.347 281.896 402.574 281.9C402.801 281.905 403.026 281.85 403.225 281.741C407.234 279.516 412.185 276.616 418.079 273.04C420.667 271.471 430.347 266.656 447.12 258.597C448.083 258.133 448.663 257.679 448.861 257.235C448.995 256.936 449.046 256.609 449.01 256.28C448.974 255.951 448.852 255.63 448.654 255.344C448.456 255.057 448.188 254.813 447.871 254.631C447.555 254.449 447.199 254.335 446.833 254.298Z" stroke="#E57324" stroke-width="2"/>
<path d="M398.838 46.0062C396.761 46.3862 394.732 47.0351 392.673 47.5161C354.048 57.3694 315.423 67.2237 276.797 77.0764C275.533 77.5421 274.966 79.2143 275.651 80.3645C276.461 81.5238 277.638 82.3961 278.594 83.4393C286.691 91.458 294.782 99.4826 302.815 107.565C299.588 109.917 296.362 112.27 293.135 114.622C286.389 109.638 279.135 105.371 271.604 101.685C262.1 96.8844 252.278 92.6351 242.023 89.7082C232.471 86.9137 222.625 85.1925 212.715 84.3288C207.678 83.89 202.663 83.1749 197.61 82.9451C190.443 82.8493 183.276 83.317 176.151 84.0556C165.799 85.1644 155.481 86.9164 145.52 89.9967C138.267 92.2213 131.23 95.0923 124.259 98.0697C115.668 101.762 107.298 106.03 99.5601 111.299C90.1629 117.629 81.4304 124.91 73.2229 132.708C71.3154 134.505 69.5609 136.454 67.9606 138.527C64.9042 142.047 61.3701 145.171 58.7778 149.078C55.4263 153.852 51.9496 158.54 48.6857 163.374C42.1431 173.316 37.0347 184.139 32.8077 195.244C30.9222 200.784 29.2427 206.392 27.5642 211.997C26.1323 216.776 25.114 221.676 24.6216 226.642C23.8343 233.346 22.9478 240.04 22.2238 246.75C21.7049 254.196 22.1804 261.668 22.7169 269.099C23.4065 276.478 24.3157 283.847 25.7245 291.127C28.3359 304.472 32.827 317.424 38.8379 329.616C47.2153 346.845 58.1586 362.893 71.6554 376.531C77.4531 382.373 83.6249 387.86 90.2065 392.807C92.9916 394.794 96.0035 396.466 98.6025 398.707C102.682 401.78 107.242 404.125 111.543 406.862C116.607 409.826 122.11 411.827 127.331 414.434C133.873 417.484 140.793 419.619 147.723 421.589C167.454 427.072 188.153 429.063 208.565 427.356C216.694 426.67 224.792 425.499 232.749 423.693C236.668 422.759 240.449 421.339 244.338 420.292C249.653 418.797 254.888 417.015 259.964 414.836C271.683 409.934 282.772 403.621 293.275 396.501C294.042 396.068 294.63 397.045 295.212 397.383C297.788 399.444 300.371 401.496 302.965 403.535C294.039 412.471 285.077 421.375 276.175 430.331C275.056 431.603 275.84 433.854 277.507 434.162C287.826 436.596 298.091 439.222 308.325 442.071C311.836 443.08 315.451 444.11 319.086 444.788C320.348 445.037 321.609 445.292 322.87 445.549C323.603 445.72 324.646 445.932 325.494 446.148C328.751 446.993 331.918 448.154 335.191 448.947C342.236 450.711 349.322 452.315 356.354 454.131C364.618 456.212 372.913 458.18 381.111 460.516C384.507 461.51 388.04 461.895 391.476 462.698C394.12 463.782 396.87 464.762 399.734 465C401.265 464.89 402.36 463.192 401.819 461.757C391.546 421.38 381.274 381.004 371.002 340.627C370.555 338.964 368.246 338.301 366.997 339.496C358.054 348.42 349.122 357.357 340.182 366.285C337.982 363.244 335.701 360.206 333.55 357.163C345.631 340.778 354.707 322.191 360.161 302.581C361.072 299.354 361.874 296.097 362.599 292.823C364.664 292.507 366.729 292.191 368.795 291.875C368.807 306.394 368.77 320.916 368.813 335.432C368.935 337.05 370.869 338.139 372.318 337.411C373.37 336.862 373.981 335.711 375.038 335.135C379.856 332.778 384.348 329.832 388.92 327.043C400.806 320.008 412.685 312.96 424.609 305.989C429.034 303.28 433.271 300.251 437.924 297.928C448.441 292.194 458.404 285.515 468.882 279.712C481.181 272.658 493.206 265.142 505.437 257.97C507.028 256.997 507.152 254.437 505.618 253.357C500.443 250.203 495.195 247.157 489.992 244.044C450.759 220.751 411.525 197.458 372.292 174.164C370.796 173.317 368.721 174.577 368.805 176.299C368.805 190.464 368.805 204.628 368.805 218.793C366.688 218.513 364.564 218.26 362.451 217.963C361.945 217.564 362.143 216.748 361.924 216.186C360.074 206.651 356.907 197.412 352.952 188.553C350.526 183.05 348.227 177.471 345.199 172.26C342.029 166.672 338.581 161.241 334.954 155.94C334.531 155.311 333.882 154.791 333.62 154.077C334.188 152.764 335.26 151.733 336.046 150.545C337.424 148.7 338.844 146.814 340.24 144.949C349.207 153.891 358.141 162.871 367.128 171.791C368.422 172.93 370.721 172.108 370.989 170.4C381.268 130.075 391.57 89.7551 401.835 49.4269C402.201 47.6514 400.648 45.882 398.838 46.0062ZM362.311 146.932C355.028 139.679 347.783 132.384 340.477 125.156C339.252 124.11 337.208 124.548 336.445 125.948C332.436 131.557 328.427 137.165 324.419 142.774C319.548 137.094 314.396 131.645 308.781 126.692C307.559 125.599 306.327 124.517 305.084 123.449C310.842 119.326 316.628 115.235 322.37 111.092C323.643 110.063 323.563 107.936 322.283 106.942C315.165 99.8203 308.046 92.6988 300.928 85.5772C328.402 78.5752 355.876 71.5732 383.35 64.5712C376.337 92.0248 369.324 119.478 362.311 146.932ZM193.425 97.2488C199.575 97.2737 205.683 97.5643 211.834 98.255C219.909 99.147 227.978 100.679 235.88 102.837C247.559 106.028 259.059 110.677 269.744 116.553C284.506 124.643 297.93 135.106 309.589 147.23C309.258 147.957 308.928 148.684 308.597 149.411C310.355 149.879 312.279 150.091 313.699 151.347C317.012 154.018 319.212 157.743 321.558 161.227C323.379 164.096 325.65 166.656 327.332 169.618C330.346 174.609 332.279 180.151 335.112 185.239C335.928 186.761 336.82 188.24 337.71 189.72C338.501 189.585 338.518 190.499 338.837 191.004C342.531 199.107 345.494 207.544 347.573 216.205C348.673 220.524 349.628 224.886 350.652 229.255C351.107 230.509 352.427 231.171 353.706 231.177C362.634 232.32 371.562 233.464 380.489 234.607C381.336 234.618 382.155 234.177 382.565 233.43C383.108 232.402 382.761 231.152 382.86 230.028C382.86 218.926 382.86 207.823 382.86 196.721C415.839 216.299 448.818 235.877 481.796 255.455C448.811 275.05 415.825 294.646 382.84 314.241C382.832 302.37 382.856 290.498 382.828 278.628C382.759 276.851 380.854 275.528 379.153 275.998C370.307 277.359 361.452 278.675 352.612 280.064C351.05 280.395 350.078 281.946 350.046 283.477C349.089 290.349 347.104 297.025 345.006 303.622C343.286 308.899 341.3 314.088 339.066 319.169C334.289 330.001 328.207 340.484 321.047 350.015C312.045 362.026 301.321 372.732 289.42 381.874C285.575 384.673 281.664 387.156 277.646 389.696C261.519 399.961 243.502 407.312 224.71 410.919C208.636 414.024 192.084 414.588 175.821 412.767C173.953 412.554 171.951 412.292 170.217 412.025C151.283 409.196 132.951 402.659 116.37 393.121C113.344 391.374 110.335 389.581 107.451 387.611C106.528 386.76 105.605 385.909 104.682 385.058C104.491 385.662 104.326 386.395 103.711 385.696C98.3978 382.132 94.2453 377.109 88.8602 373.638C87.5642 372.147 86.3472 370.545 84.673 369.452C84.3235 369.17 83.9001 368.832 83.4761 368.469C80.9798 366.353 78.8539 363.846 76.8987 361.237C63.919 347.039 53.6731 330.379 46.7796 312.428C43.3319 303.506 40.7005 294.27 38.9159 284.874C38.699 283.706 38.4406 282.279 38.2363 281.007C37.9432 279.226 37.6856 277.435 37.4654 275.769C36.7804 270.43 36.3601 265.057 36.2149 259.676C36.1827 258.257 36.1588 256.595 36.1609 255.083C36.1742 252.38 36.247 249.615 36.3944 247.003C36.4842 245.288 36.5978 243.682 36.7407 242.021C37.4753 233.41 38.9286 224.863 41.0527 216.486C41.3482 215.369 41.7014 213.993 42.048 212.785C43.5666 207.354 45.384 202.007 47.4731 196.769C47.9808 195.503 48.5991 194.014 49.1761 192.673C49.5509 191.81 50.0316 190.715 50.4383 189.835C58.8008 171.433 70.7264 154.654 85.4211 140.761C98.1727 128.651 112.874 118.552 128.922 111.318C130.813 110.467 132.549 109.722 134.475 108.937C138.217 107.409 142.025 106.043 145.871 104.8C146.962 104.459 148.306 104.028 149.505 103.685C151.99 102.949 154.547 102.262 156.979 101.666C159.537 101.034 162.168 100.453 164.665 99.9633C166.03 99.6832 167.292 99.4614 168.706 99.2041C170.288 98.9426 172.091 98.6247 173.77 98.4066C176.695 98.0069 179.636 97.7406 182.581 97.5487C184.009 97.462 185.677 97.3804 187.2 97.3352C189.202 97.2695 191.353 97.2434 193.425 97.2488ZM383.376 446.535C355.946 439.548 328.516 432.56 301.086 425.573C308.168 418.482 315.281 411.419 322.344 404.311C323.47 403.062 323.017 400.944 321.581 400.131C316.065 395.905 310.549 391.678 305.034 387.451C308.56 384.875 311.554 381.673 314.722 378.688C318.088 375.417 321.395 372.083 324.591 368.644C328.624 374.138 332.612 379.67 336.674 385.14C337.872 386.597 340.323 386.512 341.492 385.057C348.465 378.086 355.438 371.115 362.411 364.144C369.399 391.608 376.388 419.071 383.376 446.535Z" fill="white"/>
<path d="M385.524 62.4008C385.578 62.4554 385.619 62.51 385.647 62.5646C385.776 62.9195 385.79 63.2982 385.688 63.7008C379.125 89.3526 371.783 118.089 363.663 149.91C363.637 150.012 363.584 150.106 363.51 150.181C363.436 150.257 363.342 150.311 363.24 150.338C363.137 150.365 363.03 150.364 362.928 150.336C362.826 150.307 362.733 150.252 362.66 150.176L339.273 126.817C339.207 126.75 339.128 126.698 339.04 126.665C338.952 126.631 338.858 126.618 338.765 126.625C338.671 126.631 338.58 126.659 338.498 126.704C338.416 126.75 338.345 126.813 338.29 126.888L325.311 145.047C325.224 145.171 325.109 145.273 324.976 145.345C324.844 145.418 324.696 145.459 324.545 145.466C324.394 145.473 324.243 145.446 324.104 145.385C323.965 145.325 323.842 145.234 323.744 145.119C319.912 140.656 316.57 136.998 313.715 134.146C310.86 131.287 307.2 127.946 302.734 124.125C302.619 124.027 302.527 123.903 302.467 123.765C302.407 123.626 302.379 123.475 302.386 123.324C302.393 123.173 302.434 123.026 302.507 122.893C302.58 122.76 302.682 122.646 302.805 122.559L320.978 109.589C321.054 109.534 321.117 109.463 321.162 109.381C321.208 109.299 321.235 109.208 321.242 109.115C321.249 109.021 321.235 108.927 321.202 108.839C321.169 108.752 321.117 108.672 321.049 108.607L297.683 85.2274C297.607 85.154 297.552 85.0615 297.523 84.9595C297.495 84.8576 297.494 84.7499 297.521 84.6476C297.549 84.5452 297.603 84.452 297.678 84.3776C297.753 84.3032 297.847 84.2503 297.95 84.2243C329.794 76.1173 358.552 68.7882 384.223 62.2371C384.626 62.1347 385.005 62.1518 385.36 62.2882C385.414 62.3087 385.469 62.3462 385.524 62.4008Z" fill="#5D5D5D"/>
<path d="M347.417 207.815C348.789 212.347 350.497 219.208 352.539 228.4C352.611 228.748 352.899 229.011 353.256 229.055L380.514 232.546C380.673 232.564 380.813 232.44 380.811 232.28V193.526C380.808 193.352 381.001 193.244 381.16 193.331L484.98 254.963C485.351 255.186 485.351 255.723 484.98 255.946L381.631 317.342C381.259 317.567 380.784 317.296 380.791 316.861V278.854C380.791 278.309 380.306 277.892 379.767 277.974L353.205 282.027C352.67 282.112 352.255 282.536 352.18 283.071C351.743 286.251 351.18 289.22 350.49 291.977C341.25 328.909 321.702 359.119 291.844 382.608C289.29 384.614 284.705 387.692 278.087 391.841C253.57 407.236 226.756 415.227 197.643 415.814C164.767 416.482 134.429 407.731 106.627 389.558C98.7343 386.85 83.2755 373.995 75.5168 362.76C62.0974 348.068 51.8059 331.342 44.6421 312.582C26.4389 264.882 32.0935 211.633 59.6082 168.734C69.2305 153.741 81.2669 140.547 95.7174 129.151C117.325 112.118 142.422 101.315 171.009 96.7431C179.143 95.4397 188.591 94.962 199.354 95.31C242.316 96.7021 281.191 114.748 311.113 145.856C333.272 164.943 346.935 200.945 347.417 207.815ZM149.569 119.621C150.173 116.652 146.137 116.53 144.539 117.727C143.016 118.867 141.292 119.73 139.366 120.317C135.187 121.576 132.093 123.347 127.494 125.343C126.936 125.581 126.406 125.883 125.916 126.244L121.347 129.57C121.231 129.652 121.112 129.724 120.989 129.785C117.82 131.341 115.406 132.733 113.746 133.962C108.379 137.923 102.683 141.721 98.0018 146.276C93.976 150.196 89.5814 153.073 86.3547 156.972C81.0142 163.428 76.8143 169.051 73.7548 173.842C69.8281 179.997 65.833 186.985 61.7696 194.805C59.598 198.975 58.058 202.339 57.1497 204.898C54.0868 213.466 52.8883 218.594 50.7986 227.878C49.8357 232.184 49.2347 236.374 48.9957 240.448C48.4084 250.657 48.4869 260.972 49.2313 271.392C49.4566 274.511 49.7571 276.793 50.1327 278.24C51.7307 284.402 51.5668 289.623 53.9229 295.549C55.6541 299.9 55.6541 305.059 58.0511 308.549C58.7272 309.542 59.7311 309.44 60.4482 308.549C60.5916 313.701 61.5682 317.833 63.3779 320.945C68.1105 329.107 70.9378 333.887 71.8597 335.286C74.5641 339.38 76.6402 342.161 78.0879 343.628C80.9425 346.515 83.9952 347.385 87.2459 346.239C159.669 321.613 134.866 321.655 120.62 381.021C120.449 381.774 121.986 382.04 122.697 382.343C130.482 385.639 135.31 389.149 143.126 391.892C152.202 395.079 161.783 397.662 171.87 399.641C177.698 400.787 183.322 400.449 191.22 400.644C208.313 401.053 224.966 398.521 241.179 393.049C247.011 390.831 252.747 388.476 258.388 385.986C259.023 385.706 260.512 384.822 262.855 383.334C264.541 382.263 266.04 381.355 267.352 380.612C281.017 372.846 293.183 362.644 303.85 350.006C305.516 348.027 307.005 346.085 308.316 344.181C310.959 340.332 312.37 338.309 312.547 338.111C315.292 335.112 316.747 331.089 319.41 327.476C319.935 326.768 320.391 326.01 320.773 325.214L327.8 310.412C327.834 310.338 327.855 310.262 327.861 310.187C327.916 309.375 328.927 306.598 330.894 301.855C331.829 299.603 332.949 295.703 334.254 290.155C334.786 287.882 335.831 285.876 335.841 284.116C335.855 282.676 336.029 281.13 336.364 279.479C337.272 274.995 337.822 270.211 338.013 265.128C338.382 255.147 338.535 245.167 337.019 235.084C336.623 232.478 336.091 228.666 335.421 223.651C335.21 222.061 334.554 220.024 333.455 217.54C332.348 213.111 330.723 208.16 328.579 202.687C328.087 201.431 327.11 200.759 325.649 200.671C321.667 200.432 317.894 200.722 314.329 201.541C311.243 202.244 308.842 202.728 307.128 202.994C295.676 204.745 288.648 206.3 283.639 206.126C282.749 206.102 282.213 205.131 282.666 204.366C284.633 201.039 287.86 198.306 289.99 194.805C292.408 190.834 296.178 186.514 298.308 181.693C298.584 181.066 298.203 180.345 297.53 180.219L286.139 178.12C285.547 178.012 285.211 177.381 285.452 176.831C288.785 169.16 292.5 161.859 296.598 154.925C296.92 154.382 296.812 153.688 296.341 153.267C291.349 148.79 286.285 144.358 281.15 139.97C276.479 135.985 272.938 133.375 270.527 132.14C258.634 126.049 244.313 118.792 230.597 115.26C222.873 113.268 217.673 112.056 214.996 111.626C199.869 109.197 184.019 109.46 167.444 112.415C160.54 113.643 154.332 114.861 149.569 119.621ZM395.286 289.704C395.289 290.943 396.607 291.735 397.703 291.158C410.344 284.453 418.703 279.171 430.145 272.897C436.025 269.676 442.404 265.766 449.281 261.166C451.258 259.856 454.536 258.351 456.677 257.594C457.344 257.352 457.507 256.485 456.974 256.017C454.095 253.499 452.292 251.954 449.004 250.06C441.321 245.624 435.971 242.441 432.952 240.51C424.225 234.9 417.218 231.338 406.913 225.176C403.498 223.129 399.984 221.245 396.372 219.526C395.777 219.237 395.086 219.673 395.091 220.334V247.665C395.092 248.524 394.336 249.189 393.483 249.077L361.4 244.973C360.589 244.87 359.851 245.451 359.761 246.262C359.112 252.308 359.129 258.583 359.812 265.087C359.854 265.482 360.133 265.813 360.519 265.926C361.796 266.274 362.905 266.41 363.848 266.335C367.836 266.008 373.31 265.312 380.269 264.247C384.848 263.541 389.457 261.995 394.18 262.046C394.792 262.052 395.286 262.55 395.286 263.162V289.704Z" fill="#F48840"/>
<path d="M333.455 217.54C329.631 222.528 325.929 227.448 322.351 232.3C319.79 235.774 317.601 239.056 315.785 242.147C312.937 246.969 308.973 253.704 305.295 258.464C301.29 263.664 298.831 268.014 294.611 273.931C286.491 285.32 278.798 297.068 271.532 309.174C271.23 309.681 271.504 310.334 272.075 310.463C274.861 311.112 277.838 311.388 281.007 311.292C292.05 310.951 299.893 310.941 304.537 311.262C306.64 311.398 308.573 311.832 310.335 312.562C310.829 312.763 310.93 313.419 310.519 313.759C308.092 315.745 305.152 317.342 303.492 318.458C295.843 323.637 288.642 328.4 281.888 332.747C277.78 335.399 274.513 338.285 270.466 340.619C265.939 343.229 260.55 348.91 256.576 350.927C252.458 353.008 248.797 355.284 245.594 357.754C244.119 358.887 242.88 359.75 241.876 360.344C239.417 361.777 238.13 362.558 238.014 362.688C237.768 362.947 237.644 363.267 237.676 363.558L241.179 393.048C224.967 398.521 208.314 401.053 191.221 400.644C183.323 400.449 177.699 400.787 171.87 399.641C161.783 397.662 152.202 395.079 143.126 391.892C86.7196 369.553 84.8715 354.873 78.0885 343.628C76.6407 342.161 74.5646 339.38 71.8603 335.286C70.9383 333.887 68.1111 329.107 63.3784 320.945C61.5687 317.833 60.5921 313.701 60.4487 308.549C61.1965 306.031 61.7292 303.257 62.5589 300.923C66.2672 290.503 69.4564 280.243 72.1266 270.143C73.2227 266.038 74.79 262.579 76.1319 257.809C78.2558 250.282 80.6016 242.751 83.1694 235.217C84.1869 232.235 85.0542 229.41 85.7713 226.742C87.1781 221.501 87.9805 218.649 88.1786 218.185C89.8586 214.227 91.2859 209.631 92.4605 204.396C93.0819 201.64 93.98 198.814 95.1546 195.921C96.8141 191.837 97.9921 184.968 101.352 180.434C105.333 175.056 108.642 170.975 111.278 168.191C112.286 167.13 113.169 165.959 113.911 164.701C118.111 157.535 124.769 150.718 129.768 144.464C135.45 137.353 138.38 133.692 138.557 133.48C138.783 133.228 140.548 130.863 143.853 126.387C145.615 124.012 147.521 121.757 149.569 119.621C154.333 114.861 160.54 113.643 167.445 112.415C184.019 109.46 199.87 109.197 214.996 111.626C217.673 112.056 222.874 113.268 230.598 115.26C244.314 118.792 258.635 126.049 270.528 132.14C272.938 133.375 276.479 135.985 281.15 139.97C286.286 144.358 291.35 148.79 296.342 153.267C296.813 153.687 296.92 154.382 296.598 154.925C317.756 175.183 326.424 190.337 333.455 217.54Z" fill="#F0791F"/>
<path d="M149.569 119.621C147.52 121.757 145.615 124.012 143.853 126.387C140.547 130.864 138.782 133.228 138.557 133.481C138.379 133.692 135.449 137.353 129.767 144.464C124.769 150.718 118.11 157.536 113.91 164.701C113.168 165.959 112.285 167.13 111.277 168.191C108.641 170.976 105.333 175.056 101.351 180.434C97.9914 184.968 96.8133 191.837 95.1538 195.921C93.9792 198.814 93.0812 201.64 92.4597 204.397C91.2851 209.631 89.8578 214.227 88.1778 218.185C87.9798 218.649 87.1774 221.501 85.7706 226.742C85.0535 229.41 84.1862 232.235 83.1686 235.218C80.6009 242.751 78.255 250.282 76.1312 257.809C74.7892 262.579 73.2219 266.039 72.1259 270.143C69.4557 280.243 66.2664 290.503 62.5582 300.923C61.7284 303.257 61.1958 306.031 60.448 308.549C59.7309 309.44 58.727 309.542 58.0509 308.549C55.6539 305.059 55.6539 299.9 53.9227 295.549C51.5666 289.623 51.7305 284.402 50.1325 278.24C49.7569 276.793 49.4564 274.511 49.2311 271.392C48.4867 260.972 48.4082 250.657 48.9955 240.448C49.2345 236.374 49.8354 232.184 50.7984 227.878C52.8881 218.594 54.0866 213.466 57.1495 204.898C58.0578 202.339 59.5977 198.975 61.7694 194.805C65.8328 186.985 69.8278 179.997 73.7546 173.842C76.8141 169.051 81.014 163.428 86.3544 156.973C89.5812 153.073 93.9758 150.196 98.0016 146.276C102.683 141.721 108.379 137.923 113.746 133.962C115.406 132.733 117.82 131.341 120.989 129.785C121.111 129.724 121.231 129.652 121.347 129.57L125.916 126.244C126.406 125.883 126.935 125.581 127.493 125.343C132.093 123.347 135.186 121.576 139.366 120.317C141.292 119.73 143.016 118.867 144.539 117.727C146.137 116.53 150.173 116.652 149.569 119.621Z" fill="#EE9D63"/>
<path d="M333.454 217.54C334.553 220.024 335.209 222.061 335.42 223.651C336.09 228.666 336.622 232.478 337.018 235.084C338.534 245.167 338.381 255.147 338.012 265.127C337.821 270.211 337.271 274.995 336.363 279.478C336.028 281.13 335.854 282.676 335.84 284.115C335.83 285.876 334.785 287.882 334.253 290.155C332.948 295.703 331.828 299.603 330.893 301.855C328.926 306.597 327.915 309.375 327.861 310.187C327.854 310.261 327.833 310.338 327.799 310.412L320.772 325.214C320.39 326.01 319.934 326.768 319.409 327.476C316.746 331.089 315.291 335.112 312.546 338.111C312.369 338.309 310.958 340.332 308.315 344.181C307.004 346.085 305.515 348.026 303.849 350.005C293.182 362.644 281.016 372.846 267.351 380.612C266.039 381.355 264.54 382.263 262.854 383.334C260.511 384.822 259.022 385.706 258.387 385.985C252.746 388.476 247.01 390.831 241.178 393.048L237.674 363.558C237.659 363.414 237.681 363.261 237.739 363.111C237.798 362.96 237.891 362.816 238.013 362.688C238.129 362.558 239.416 361.777 241.874 360.344C242.878 359.75 244.118 358.887 245.593 357.754C248.796 355.284 252.456 353.008 256.574 350.927C260.549 348.91 265.937 343.229 270.465 340.619C274.511 338.285 277.779 335.398 281.887 332.747C288.641 328.4 295.842 323.637 303.491 318.458C305.15 317.342 308.09 315.745 310.518 313.759C310.612 313.681 310.684 313.58 310.727 313.466C310.771 313.352 310.784 313.229 310.765 313.108C310.747 312.988 310.697 312.874 310.621 312.778C310.546 312.682 310.447 312.608 310.333 312.562C308.571 311.831 306.639 311.398 304.535 311.262C299.892 310.941 292.048 310.951 281.006 311.292C277.837 311.388 274.859 311.112 272.073 310.463C271.941 310.433 271.817 310.372 271.713 310.285C271.609 310.197 271.527 310.086 271.474 309.96C271.422 309.835 271.399 309.698 271.409 309.561C271.418 309.424 271.46 309.291 271.53 309.174C278.796 297.068 286.489 285.32 294.609 273.931C298.83 268.014 301.288 263.664 305.294 258.464C308.971 253.704 312.935 246.969 315.783 242.147C317.6 239.056 319.788 235.774 322.349 232.3C325.928 227.448 329.629 222.528 333.454 217.54Z" fill="#DA6C29"/>
<path d="M395.286 289.704V263.162C395.286 262.868 395.17 262.586 394.963 262.377C394.755 262.168 394.474 262.049 394.18 262.046C389.457 261.995 384.848 263.541 380.269 264.247C373.31 265.312 367.836 266.008 363.848 266.335C362.906 266.41 361.796 266.274 360.519 265.926C360.33 265.871 360.163 265.761 360.037 265.612C359.911 265.463 359.833 265.28 359.812 265.087C359.129 258.583 359.112 252.308 359.761 246.262C359.782 246.07 359.842 245.883 359.936 245.713C360.031 245.544 360.158 245.395 360.31 245.275C360.463 245.155 360.638 245.066 360.825 245.014C361.012 244.962 361.207 244.948 361.4 244.973L393.483 249.077C393.684 249.103 393.888 249.086 394.082 249.027C394.276 248.968 394.455 248.869 394.608 248.735C394.76 248.601 394.882 248.437 394.965 248.252C395.049 248.067 395.092 247.867 395.091 247.665V220.334C395.09 220.183 395.128 220.033 395.2 219.9C395.273 219.767 395.378 219.655 395.506 219.574C395.635 219.493 395.781 219.446 395.933 219.437C396.084 219.429 396.235 219.459 396.372 219.525C399.985 221.245 403.498 223.129 406.913 225.176C417.218 231.338 424.225 234.9 432.952 240.51C435.971 242.441 441.322 245.624 449.004 250.06C452.293 251.954 454.095 253.499 456.974 256.017C457.096 256.124 457.188 256.261 457.241 256.414C457.294 256.567 457.306 256.731 457.276 256.89C457.246 257.049 457.175 257.198 457.07 257.321C456.965 257.445 456.829 257.539 456.677 257.594C454.536 258.351 451.258 259.856 449.281 261.166C442.404 265.766 436.026 269.676 430.146 272.897C418.703 279.171 410.344 284.453 397.704 291.158C397.453 291.29 397.172 291.355 396.888 291.347C396.605 291.339 396.328 291.258 396.085 291.112C395.842 290.966 395.641 290.759 395.501 290.513C395.361 290.266 395.287 289.988 395.286 289.704ZM446.833 254.298C439.601 253.561 429.347 253.98 421.858 253.008C418.014 252.51 414.104 252.083 410.129 251.728C403.286 251.114 400.777 253.755 401.064 260.45C401.316 266.216 401.395 272.927 401.299 280.584C401.296 280.811 401.353 281.035 401.464 281.233C401.574 281.432 401.735 281.598 401.93 281.715C402.125 281.832 402.347 281.896 402.574 281.9C402.801 281.905 403.026 281.85 403.225 281.741C407.234 279.516 412.185 276.616 418.078 273.04C420.667 271.47 430.347 266.656 447.119 258.597C448.082 258.133 448.663 257.679 448.861 257.235C448.995 256.936 449.045 256.609 449.009 256.28C448.973 255.951 448.851 255.63 448.654 255.344C448.456 255.057 448.188 254.813 447.871 254.631C447.555 254.449 447.199 254.335 446.833 254.298Z" fill="#F0791F"/>
<path d="M446.833 254.298C447.199 254.335 447.555 254.449 447.871 254.631C448.188 254.813 448.456 255.057 448.654 255.344C448.852 255.63 448.974 255.951 449.01 256.28C449.046 256.609 448.995 256.936 448.861 257.235C448.663 257.679 448.083 258.133 447.12 258.597C430.347 266.656 420.667 271.471 418.079 273.04C412.185 276.616 407.234 279.516 403.225 281.741C403.026 281.85 402.801 281.905 402.574 281.9C402.347 281.896 402.125 281.832 401.93 281.715C401.735 281.598 401.575 281.432 401.464 281.233C401.353 281.035 401.297 280.811 401.299 280.584C401.395 272.927 401.317 266.216 401.064 260.45C400.777 253.755 403.287 251.114 410.13 251.728C414.104 252.083 418.014 252.51 421.859 253.008C429.347 253.98 439.601 253.561 446.833 254.298Z" fill="#DA6C29"/>
<path d="M297.836 426.858C297.761 426.838 297.693 426.799 297.638 426.745C297.582 426.691 297.542 426.623 297.522 426.549C297.501 426.476 297.5 426.398 297.519 426.325C297.539 426.251 297.577 426.185 297.631 426.132L320.731 403.049C320.8 402.98 320.854 402.896 320.888 402.804C320.922 402.712 320.936 402.613 320.929 402.514C320.923 402.416 320.895 402.32 320.849 402.232C320.802 402.144 320.738 402.067 320.659 402.005L302.559 388.135C302.445 388.049 302.355 387.937 302.293 387.809C302.232 387.681 302.202 387.54 302.206 387.397C302.21 387.254 302.248 387.114 302.316 386.988C302.385 386.862 302.482 386.753 302.6 386.671C304.471 385.382 306.134 384.051 307.588 382.679C314.117 376.538 319.471 371.194 323.65 366.649C323.788 366.502 323.957 366.386 324.144 366.311C324.331 366.236 324.533 366.204 324.734 366.215C324.936 366.227 325.132 366.283 325.31 366.379C325.487 366.476 325.641 366.61 325.761 366.772L338.125 383.693C338.219 383.824 338.341 383.932 338.482 384.011C338.623 384.09 338.779 384.138 338.941 384.15C339.102 384.163 339.265 384.141 339.418 384.085C339.571 384.028 339.71 383.94 339.825 383.826L363.089 360.569C363.131 360.528 363.183 360.498 363.241 360.483C363.298 360.468 363.358 360.469 363.415 360.484C363.472 360.5 363.524 360.53 363.565 360.572C363.607 360.614 363.637 360.666 363.652 360.723L385.922 448.242C385.953 448.357 385.952 448.477 385.921 448.592C385.89 448.707 385.829 448.812 385.744 448.896C385.66 448.981 385.554 449.042 385.438 449.075C385.322 449.107 385.199 449.109 385.082 449.081L297.836 426.858Z" fill="#5D5D5D"/>
</svg>
