<svg width="62" height="45" viewBox="0 0 62 45" fill="none" xmlns="http://www.w3.org/2000/svg">
<path fill-rule="evenodd" clip-rule="evenodd" d="M48.3982 22.7766L53.3916 4.1411L32.7604 19.3185L41.2366 21.5897L36.2433 40.2252L56.8745 25.0478L48.3982 22.7766Z" fill="black"/>
<path d="M33.5227 7.9137H11.5C10.6716 7.9137 10 8.58527 10 9.4137C10 10.2421 10.6716 10.9137 11.5 10.9137H33.5227C34.3511 10.9137 35.0227 10.2421 35.0227 9.4137C35.0227 8.58527 34.3511 7.9137 33.5227 7.9137Z" fill="black"/>
<path d="M33.5227 31.9137H11.5C10.6716 31.9137 10 32.5853 10 33.4137C10 34.2421 10.6716 34.9137 11.5 34.9137H33.5227C34.3511 34.9137 35.0227 34.2421 35.0227 33.4137C35.0227 32.5853 34.3511 31.9137 33.5227 31.9137Z" fill="black"/>
<path d="M23.5227 19.9137H1.5C0.671573 19.9137 0 20.5853 0 21.4137C0 22.2421 0.671573 22.9137 1.5 22.9137H23.5227C24.3511 22.9137 25.0227 22.2421 25.0227 21.4137C25.0227 20.5853 24.3511 19.9137 23.5227 19.9137Z" fill="black"/>
</svg>
