<svg width="41" height="41" viewBox="0 0 41 41" fill="none" xmlns="http://www.w3.org/2000/svg">
<path d="M40.9936 18.0344C40.9604 17.7742 40.7991 17.547 40.5643 17.4296L33.3661 13.8307L38.5608 2.69904C38.699 2.4026 38.6401 2.05187 38.4126 1.81703C38.1854 1.58257 37.837 1.51211 37.5356 1.64108L26.9879 6.16127L21.0575 0.231246C20.8905 0.0641593 20.6602 -0.0201539 20.4223 0.00410062C20.1875 0.0272001 19.9749 0.154632 19.844 0.351363L15.4913 6.88082L1.12614 0.076094C0.789272 -0.0829075 0.389651 0.0137254 0.163276 0.308244C-0.0627139 0.602378 -0.0530892 1.0147 0.186761 1.29806L8.12875 10.6845L0.519008 13.4515C0.247204 13.5504 0.0512435 13.7906 0.00850944 14.0767C-0.0338396 14.3631 0.0839677 14.6496 0.315348 14.8232L5.73141 18.8856L1.92808 21.4212C1.69439 21.5771 1.56118 21.8458 1.57851 22.1261C1.59583 22.4068 1.76138 22.6566 2.01278 22.7825L5.76529 24.6586L0.231034 30.1928C-0.0246 30.4481 -0.0734939 30.8446 0.111687 31.1545C0.296868 31.4648 0.67031 31.6081 1.01488 31.5057L7.44462 29.5765L4.77124 37.597C4.66883 37.9046 4.7647 38.2434 5.0134 38.4513C5.2621 38.6592 5.61206 38.6942 5.89696 38.5387L14.0195 34.1082L19.9106 40.7358C20.0604 40.9041 20.2749 41.0003 20.5001 41.0003C20.7368 41.0065 20.9436 40.9025 21.0933 40.7312L26.1737 34.9251L35.8562 40.8833C35.9833 40.9618 36.1265 41.0003 36.2693 41.0003C36.4433 41.0003 36.6166 40.943 36.7594 40.8298C37.0189 40.6238 37.1221 40.2769 37.0174 39.9624L33.4708 29.3224L38.5369 29.9557C38.858 29.9961 39.1749 29.8336 39.3292 29.5468C39.4832 29.2596 39.4455 28.9077 39.2334 28.6602L35.0104 23.7334L40.731 18.7282C40.9285 18.5553 41.0271 18.2951 40.9936 18.0344ZM28.6777 22.021L25.396 23.3334L26.7774 28.1682C26.8655 28.4765 26.7581 28.8076 26.5059 29.0055C26.3639 29.1168 26.1922 29.1734 26.0193 29.1734C25.8849 29.1734 25.7498 29.1391 25.6282 29.0694L20.4496 26.1104L15.2915 28.321C15.0059 28.443 14.6755 28.3868 14.4468 28.1766C14.2185 27.9664 14.1346 27.6415 14.2328 27.347L15.5271 23.4636L12.4607 22.8503C12.1415 22.7864 11.894 22.5327 11.8385 22.212C11.7831 21.8909 11.9305 21.5686 12.2097 21.4012L15.4432 19.4612L12.7479 15.4184C12.5496 15.1208 12.5762 14.7273 12.8129 14.4594C13.0489 14.191 13.4355 14.1156 13.7566 14.2757L17.8344 16.3147L19.824 12.9983C19.978 12.7419 20.2629 12.5899 20.5632 12.6184C20.8616 12.6422 21.1211 12.8332 21.2323 13.1111L22.5448 16.3928L27.3795 15.0115C27.699 14.921 28.0386 15.0373 28.233 15.3048C28.4278 15.5716 28.4355 15.932 28.2523 16.2069L25.7514 19.9582L28.5395 20.5157C28.8813 20.5842 29.1381 20.8691 29.1697 21.2168C29.2017 21.564 29.0015 21.8913 28.6777 22.021Z" fill="black"/>
</svg>
