<svg width="94" height="109" viewBox="0 0 94 109" fill="none" xmlns="http://www.w3.org/2000/svg">
<path fill-rule="evenodd" clip-rule="evenodd" d="M50.8613 1.69618C52.9687 3.83318 52.9481 7.27751 50.8157 9.38937L42.7673 17.3602H47C72.4231 17.3602 93.1429 37.7868 93.1429 63.1198C93.1429 88.4528 72.4231 108.88 47 108.88C21.5769 108.88 0.857143 88.4528 0.857143 63.1198C0.857143 60.1158 3.28762 57.6798 6.28571 57.6798C9.28391 57.6798 11.7143 60.1158 11.7143 63.1198C11.7143 82.323 27.4517 98 47 98C66.5483 98 82.2857 82.323 82.2857 63.1198C82.2857 43.9166 66.5483 28.2402 47 28.2402H42.7673L50.8157 36.2109C52.9481 38.3227 52.9687 41.7667 50.8613 43.9041C48.754 46.0409 45.3166 46.0611 43.1843 43.9493L25.7352 26.6691C24.7032 25.6475 24.1224 24.2537 24.1224 22.8002C24.1224 21.3461 24.7032 19.9529 25.7352 18.9307L43.1843 1.65065C45.3166 -0.46116 48.754 -0.440815 50.8613 1.69618Z" fill="white"/>
</svg>
